{
.appVersion = "3324";
DisplayStrings = (
"CompanyName®\012CompanyName®\012"
);
classes = (
{
automatic = 1;

glyphs = (
{
glyphname = A;
layers = (
{
anchors = (
{
name = bottom;
position = "{313, 0}";
},
{
name = ogonek;
position = "{563, 0}";
},
{
name = top;
position = "{309, 700}";
}
);
background = {
anchors = (
{
name = bottom;
position = "{313, 0}";
},
{
name = ogonek;
position = "{563, 0}";
},
{
name = top;
position = "{309, 700}";
}
);
paths = (
{
closed = 1;
nodes = (
"181 0 LINE",
"181 44 LINE",
"155 43 OFFCURVE",
"129 41 OFFCURVE",
"103 40 CURVE",
"112 62 OFFCURVE",
"118 77 OFFCURVE",
"128 109 CURVE",
"163 216 LINE",
"423 222 LINE",
"458 128 LINE SMOOTH",
"472 91 OFFCURVE",
"484 35 OFFCURVE",
"409 33 CURVE",
"409 0 LINE",
"638 0 LINE",
"638 44 LINE",
"615 43 OFFCURVE",
"593 41 OFFCURVE",
"570 40 CURVE",
"572 70 OFFCURVE",
"555 122 OFFCURVE",
"544 150 CURVE SMOOTH",
"321 719 LINE",
"297 719 LINE",
"91 158 LINE SMOOTH",
"63 84 OFFCURVE",
"54 33 OFFCURVE",
"-6 33 CURVE",
"-6 0 LINE"
);
},
{
closed = 1;
nodes = (
"249 460 LINE",
"263 498 OFFCURVE",
"277 535 OFFCURVE",
"291 573 CURVE",
"293 573 LINE",
"308 532 OFFCURVE",
"323 491 OFFCURVE",
"338 450 CURVE",
"409 259 LINE",
"178 259 LINE"
);
}
);
};
layerId = UUID0;
paths = (
{
closed = 1;
nodes = (
"181 0 LINE",
"181 44 LINE",
"155 43 OFFCURVE",
"129 41 OFFCURVE",
"103 40 CURVE",
"112 62 OFFCURVE",
"118 77 OFFCURVE",
"128 109 CURVE",
"163 216 LINE",
"423 222 LINE",
"458 128 LINE SMOOTH",
"472 91 OFFCURVE",
"484 35 OFFCURVE",
"409 33 CURVE",
"409 0 LINE",
"638 0 LINE",
"638 44 LINE",
"615 43 OFFCURVE",
"593 41 OFFCURVE",
"570 40 CURVE",
"572 70 OFFCURVE",
"555 122 OFFCURVE",
"544 150 CURVE SMOOTH",
"321 719 LINE",
"297 719 LINE",
"91 158 LINE SMOOTH",
"63 84 OFFCURVE",
"54 33 OFFCURVE",
"-6 33 CURVE",
"-6 0 LINE"
);
},
{
closed = 1;
nodes = (
"249 460 LINE",
"263 498 OFFCURVE",
"277 535 OFFCURVE",
"291 573 CURVE",
"293 573 LINE",
"308 532 OFFCURVE",
"323 491 OFFCURVE",
"338 450 CURVE",
"409 259 LINE",
"178 259 LINE"
);
}
);
width = 626;
},
{
anchors = (
{
name = bottom;
position = "{334, 0}";
},
{
name = ogonek;
position = "{601, 0}";
},
{
name = top;
position = "{329, 700}";
}
);
background = {
anchors = (
{
name = bottom;
position = "{334, 0}";
},
{
name = ogonek;
position = "{601, 0}";
},
{
name = top;
position = "{329, 700}";
}
);
paths = (
{
closed = 1;
nodes = (
"218 0 LINE",
"218 80 LINE",
"204 80 OFFCURVE",
"168 79 OFFCURVE",
"147 77 CURVE",
"158 100 OFFCURVE",
"172 140 OFFCURVE",
"179 158 CURVE SMOOTH",
"195 205 LINE",
"412 209 LINE",
"432 154 LINE SMOOTH",
"451 104 OFFCURVE",
"450 66 OFFCURVE",
"395 66 CURVE",
"395 0 LINE",
"664 0 LINE",
"664 77 LINE",
"650 77 OFFCURVE",
"628 76 OFFCURVE",
"606 74 CURVE",
"603 104 OFFCURVE",
"586 153 OFFCURVE",
"578 173 CURVE SMOOTH",
"365 718 LINE",
"295 718 LINE",
"100 183 LINE SMOOTH",
"78 123 OFFCURVE",
"60 69 OFFCURVE",
"4 69 CURVE",
"4 0 LINE"
);
},
{
closed = 1;
nodes = (
"265 410 LINE SMOOTH",
"287 472 OFFCURVE",
"297 519 OFFCURVE",
"302 542 CURVE",
"303 542 LINE",
"309 505 OFFCURVE",
"324 453 OFFCURVE",
"341 405 CURVE SMOOTH",
"387 280 LINE",
"220 280 LINE"
);
}
);
};
layerId = "4C2B4986-1645-43C1-94B7-5E4C57EFF0D9";
paths = (
{
closed = 1;
nodes = (
"218 0 LINE",
"218 80 LINE",
"204 80 OFFCURVE",
"168 79 OFFCURVE",
"147 77 CURVE",
"158 100 OFFCURVE",
"172 140 OFFCURVE",
"179 158 CURVE SMOOTH",
"195 205 LINE",
"412 209 LINE",
"432 154 LINE SMOOTH",
"451 104 OFFCURVE",
"450 66 OFFCURVE",
"395 66 CURVE",
"395 0 LINE",
"664 0 LINE",
"664 77 LINE",
"650 77 OFFCURVE",
"628 76 OFFCURVE",
"606 74 CURVE",
"603 104 OFFCURVE",
"586 153 OFFCURVE",
"578 173 CURVE SMOOTH",
"365 718 LINE",
"295 718 LINE",
"100 183 LINE SMOOTH",
"78 123 OFFCURVE",
"60 69 OFFCURVE",
"4 69 CURVE",
"4 0 LINE"
);
},
{
closed = 1;
nodes = (
"265 410 LINE SMOOTH",
"287 472 OFFCURVE",
"297 519 OFFCURVE",
"302 542 CURVE",
"303 542 LINE",
"309 505 OFFCURVE",
"324 453 OFFCURVE",
"341 405 CURVE SMOOTH",
"387 280 LINE",
"220 280 LINE"
);
}
);
width = 668;
}
);
leftKerningGroup = A;
rightKerningGroup = A;
unicode = 0041;
},
{
glyphname = Aacute;
layers = (
{
background = {
anchors = (
{
name = bottom;
position = "{313, 0}";
},
{
name = ogonek;
position = "{563, 0}";
},
{
name = top;
position = "{309, 700}";
}
);
paths = (
{
closed = 1;
nodes = (
"181 0 LINE",
"181 44 LINE",
"155 43 OFFCURVE",
"129 41 OFFCURVE",
"103 40 CURVE",
"112 62 OFFCURVE",
"118 77 OFFCURVE",
"128 109 CURVE",
"163 216 LINE",
"423 222 LINE",
"458 128 LINE SMOOTH",
"472 91 OFFCURVE",
"484 35 OFFCURVE",
"409 33 CURVE",
"409 0 LINE",
"638 0 LINE",
"638 44 LINE",
"615 43 OFFCURVE",
"593 41 OFFCURVE",
"570 40 CURVE",
"572 70 OFFCURVE",
"555 122 OFFCURVE",
"544 150 CURVE SMOOTH",
"321 719 LINE",
"297 719 LINE",
"91 158 LINE SMOOTH",
"63 84 OFFCURVE",
"54 33 OFFCURVE",
"-6 33 CURVE",
"-6 0 LINE"
);
},
{
closed = 1;
nodes = (
"249 460 LINE",
"263 498 OFFCURVE",
"277 535 OFFCURVE",
"291 573 CURVE",
"293 573 LINE",
"308 532 OFFCURVE",
"323 491 OFFCURVE",
"338 450 CURVE",
"409 259 LINE",
"178 259 LINE"
);
},
{
closed = 1;
nodes = (
"418 849 LINE SMOOTH",
"463 877 OFFCURVE",
"450 905 OFFCURVE",
"444 914 CURVE SMOOTH",
"441 919 OFFCURVE",
"416 943 OFFCURVE",
"377 909 CURVE SMOOTH",
"251 789 LINE",
"273 760 LINE"
);
}
);
};
components = (
{
name = A;
},
{
name = acutecomb.case;
transform = "{1, 0, 0, 1, 219, 0}";
}
);
layerId = UUID0;
width = 626;
},
{
background = {
anchors = (
{
name = bottom;
position = "{334, 0}";
},
{
name = ogonek;
position = "{601, 0}";
},
{
name = top;
position = "{329, 700}";
}
);
paths = (
{
closed = 1;
nodes = (
"218 0 LINE",
"218 80 LINE",
"204 80 OFFCURVE",
"168 79 OFFCURVE",
"147 77 CURVE",
"158 100 OFFCURVE",
"172 140 OFFCURVE",
"179 158 CURVE SMOOTH",
"195 205 LINE",
"412 209 LINE",
"432 154 LINE SMOOTH",
"451 104 OFFCURVE",
"450 66 OFFCURVE",
"395 66 CURVE",
"395 0 LINE",
"664 0 LINE",
"664 77 LINE",
"650 77 OFFCURVE",
"628 76 OFFCURVE",
"606 74 CURVE",
"603 104 OFFCURVE",
"586 153 OFFCURVE",
"578 173 CURVE SMOOTH",
"365 718 LINE",
"295 718 LINE",
"100 183 LINE SMOOTH",
"78 123 OFFCURVE",
"60 69 OFFCURVE",
"4 69 CURVE",
"4 0 LINE"
);
},
{
closed = 1;
nodes = (
"265 410 LINE SMOOTH",
"287 472 OFFCURVE",
"297 519 OFFCURVE",
"302 542 CURVE",
"303 542 LINE",
"309 505 OFFCURVE",
"324 453 OFFCURVE",
"341 405 CURVE SMOOTH",
"387 280 LINE",
"220 280 LINE"
);
},
{
closed = 1;
nodes = (
"448 825 LINE SMOOTH",
"479 845 OFFCURVE",
"501 885 OFFCURVE",
"478 919 CURVE SMOOTH",
"453 952 OFFCURVE",
"409 945 OFFCURVE",
"381 917 CURVE SMOOTH",
"270 799 LINE",
"306 750 LINE"
);
}
);
};
components = (
{
name = A;
},
{
name = acutecomb.case;
transform = "{1, 0, 0, 1, 226, 0}";
}
);
layerId = "4C2B4986-1645-43C1-94B7-5E4C57EFF0D9";
width = 668;
}
);
leftKerningGroup = A;
rightKerningGroup = A;
unicode = 00C1;
},
{
glyphname = Abreve;
layers = (
{
background = {
anchors = (
{
name = bottom;
position = "{313, 0}";
},
{
name = ogonek;
position = "{563, 0}";
},
{
name = top;
position = "{309, 700}";
}
);
paths = (
{
closed = 1;
nodes = (
"181 0 LINE",
"181 44 LINE",
"155 43 OFFCURVE",
"129 41 OFFCURVE",
"103 40 CURVE",
"112 62 OFFCURVE",
"118 77 OFFCURVE",
"128 109 CURVE",
"163 216 LINE",
"423 222 LINE",
"458 128 LINE SMOOTH",
"472 91 OFFCURVE",
"484 35 OFFCURVE",
"409 33 CURVE",
"409 0 LINE",
"638 0 LINE",
"638 44 LINE",
"615 43 OFFCURVE",
"593 41 OFFCURVE",
"570 40 CURVE",
"572 70 OFFCURVE",
"555 122 OFFCURVE",
"544 150 CURVE SMOOTH",
"321 719 LINE",
"297 719 LINE",
"91 158 LINE SMOOTH",
"63 84 OFFCURVE",
"54 33 OFFCURVE",
"-6 33 CURVE",
"-6 0 LINE"
);
},
{
closed = 1;
nodes = (
"249 460 LINE",
"263 498 OFFCURVE",
"277 535 OFFCURVE",
"291 573 CURVE",
"293 573 LINE",
"308 532 OFFCURVE",
"323 491 OFFCURVE",
"338 450 CURVE",
"409 259 LINE",
"178 259 LINE"
);
},
{
closed = 1;
nodes = (
"370 809 OFFCURVE",
"425 845 OFFCURVE",
"456 912 CURVE",
"429 924 LINE",
"408 896 OFFCURVE",
"360 870 OFFCURVE",
"309 870 CURVE SMOOTH",
"258 870 OFFCURVE",
"210 896 OFFCURVE",
"189 924 CURVE",
"163 912 LINE",
"193 845 OFFCURVE",
"248 809 OFFCURVE",
"309 809 CURVE SMOOTH"
);
}
);
};
components = (
{
name = A;
},
{
name = brevecomb.case;
transform = "{1, 0, 0, 1, 126, 0}";
}
);
layerId = UUID0;
width = 626;
},
{
background = {
anchors = (
{
name = bottom;
position = "{334, 0}";
},
{
name = ogonek;
position = "{601, 0}";
},
{
name = top;
position = "{329, 700}";
}
);
paths = (
{
closed = 1;
nodes = (
"218 0 LINE",
"218 80 LINE",
"204 80 OFFCURVE",
"168 79 OFFCURVE",
"147 77 CURVE",
"158 100 OFFCURVE",
"172 140 OFFCURVE",
"179 158 CURVE SMOOTH",
"195 205 LINE",
"412 209 LINE",
"432 154 LINE SMOOTH",
"451 104 OFFCURVE",
"450 66 OFFCURVE",
"395 66 CURVE",
"395 0 LINE",
"664 0 LINE",
"664 77 LINE",
"650 77 OFFCURVE",
"628 76 OFFCURVE",
"606 74 CURVE",
"603 104 OFFCURVE",
"586 153 OFFCURVE",
"578 173 CURVE SMOOTH",
"365 718 LINE",
"295 718 LINE",
"100 183 LINE SMOOTH",
"78 123 OFFCURVE",
"60 69 OFFCURVE",
"4 69 CURVE",
"4 0 LINE"
);
},
{
closed = 1;
nodes = (
"265 410 LINE SMOOTH",
"287 472 OFFCURVE",
"297 519 OFFCURVE",
"302 542 CURVE",
"303 542 LINE",
"309 505 OFFCURVE",
"324 453 OFFCURVE",
"341 405 CURVE SMOOTH",
"387 280 LINE",
"220 280 LINE"
);
},
{
closed = 1;
nodes = (
"395 782 OFFCURVE",
"469 813 OFFCURVE",
"501 903 CURVE",
"459 924 LINE",
"431 896 OFFCURVE",
"394 869 OFFCURVE",
"331 869 CURVE SMOOTH",
"268 869 OFFCURVE",
"230 896 OFFCURVE",
"202 924 CURVE",
"160 903 LINE",
"192 813 OFFCURVE",
"267 782 OFFCURVE",
"331 782 CURVE SMOOTH"
);
}
);
};
components = (
{
name = A;
},
{
name = brevecomb.case;
transform = "{1, 0, 0, 1, 126, 0}";
}
);
layerId = "4C2B4986-1645-43C1-94B7-5E4C57EFF0D9";
width = 668;
}
);
leftKerningGroup = A;
rightKerningGroup = A;
unicode = 0102;
},
{
glyphname = Abreveacute;
layers = (
{
background = {
anchors = (
{
name = bottom;
position = "{313, 0}";
},
{
name = ogonek;
position = "{563, 0}";
},
{
name = top;
position = "{309, 700}";
}
);
paths = (
{
closed = 1;
nodes = (
"181 0 LINE",
"181 44 LINE",
"155 43 OFFCURVE",
"129 41 OFFCURVE",
"103 40 CURVE",
"112 62 OFFCURVE",
"118 77 OFFCURVE",
"128 109 CURVE",
"163 216 LINE",
"423 222 LINE",
"458 128 LINE SMOOTH",
"472 91 OFFCURVE",
"484 35 OFFCURVE",
"409 33 CURVE",
"409 0 LINE",
"638 0 LINE",
"638 44 LINE",
"615 43 OFFCURVE",
"593 41 OFFCURVE",
"570 40 CURVE",
"572 70 OFFCURVE",
"555 122 OFFCURVE",
"544 150 CURVE SMOOTH",
"321 719 LINE",
"297 719 LINE",
"91 158 LINE SMOOTH",
"63 84 OFFCURVE",
"54 33 OFFCURVE",
"-6 33 CURVE",
"-6 0 LINE"
);
},
{
closed = 1;
nodes = (
"249 460 LINE",
"263 498 OFFCURVE",
"277 535 OFFCURVE",
"291 573 CURVE",
"293 573 LINE",
"308 532 OFFCURVE",
"323 491 OFFCURVE",
"338 450 CURVE",
"409 259 LINE",
"178 259 LINE"
);
},
{
closed = 1;
nodes = (
"369 804 OFFCURVE",
"416 845 OFFCURVE",
"445 925 CURVE",
"418 937 LINE",
"399 900 OFFCURVE",
"356 865 OFFCURVE",
"310 865 CURVE SMOOTH",
"264 865 OFFCURVE",
"221 898 OFFCURVE",
"201 935 CURVE",
"172 920 LINE",
"197 841 OFFCURVE",
"255 804 OFFCURVE",
"307 804 CURVE SMOOTH"
);
},
{
closed = 1;
nodes = (
"428 1028 LINE SMOOTH",
"464 1066 OFFCURVE",
"445 1092 OFFCURVE",
"437 1099 CURVE SMOOTH",
"432 1103 OFFCURVE",
"402 1123 OFFCURVE",
"372 1080 CURVE SMOOTH",
"288 945 LINE",
"316 922 LINE"
);
}
);
};
components = (
{
name = A;
},
{
name = brevecomb_acutecomb.case;
transform = "{1, 0, 0, 1, 122, 151}";
}
);
layerId = UUID0;
width = 626;
},
{
background = {
anchors = (
{
name = bottom;
position = "{334, 0}";
},
{
name = ogonek;
position = "{601, 0}";
},
{
name = top;
position = "{329, 700}";
}
);
paths = (
{
closed = 1;
nodes = (
"218 0 LINE",
"218 80 LINE",
"204 80 OFFCURVE",
"168 79 OFFCURVE",
"147 77 CURVE",
"158 100 OFFCURVE",
"172 140 OFFCURVE",
"179 158 CURVE SMOOTH",
"195 205 LINE",
"412 209 LINE",
"432 154 LINE SMOOTH",
"451 104 OFFCURVE",
"450 66 OFFCURVE",
"395 66 CURVE",
"395 0 LINE",
"664 0 LINE",
"664 77 LINE",
"650 77 OFFCURVE",
"628 76 OFFCURVE",
"606 74 CURVE",
"603 104 OFFCURVE",
"586 153 OFFCURVE",
"578 173 CURVE SMOOTH",
"365 718 LINE",
"295 718 LINE",
"100 183 LINE SMOOTH",
"78 123 OFFCURVE",
"60 69 OFFCURVE",
"4 69 CURVE",
"4 0 LINE"
);
},
{
closed = 1;
nodes = (
"265 410 LINE SMOOTH",
"287 472 OFFCURVE",
"297 519 OFFCURVE",
"302 542 CURVE",
"303 542 LINE",
"309 505 OFFCURVE",
"324 453 OFFCURVE",
"341 405 CURVE SMOOTH",
"387 280 LINE",
"220 280 LINE"
);
},
{
closed = 1;
nodes = (
"395 800 OFFCURVE",
"452 838 OFFCURVE",
"487 935 CURVE",
"422 964 LINE",
"403 927 OFFCURVE",
"377 892 OFFCURVE",
"331 892 CURVE SMOOTH",
"284 892 OFFCURVE",
"257 926 OFFCURVE",
"236 963 CURVE",
"171 930 LINE",
"202 834 OFFCURVE",
"271 800 OFFCURVE",
"327 800 CURVE SMOOTH"
);
},
{
closed = 1;
nodes = (
"453 1060 LINE SMOOTH",
"480 1085 OFFCURVE",
"493 1130 OFFCURVE",
"462 1159 CURVE SMOOTH",
"430 1184 OFFCURVE",
"389 1168 OFFCURVE",
"368 1135 CURVE SMOOTH",
"286 995 LINE",
"332 954 LINE"
);
}
);
};
components = (
{
name = A;
},
{
name = brevecomb_acutecomb.case;
transform = "{1, 0, 0, 1, 122, 191}";
}
);
layerId = "4C2B4986-1645-43C1-94B7-5E4C57EFF0D9";
width = 668;
}
);
unicode = 1EAE;
},
{
glyphname = Abrevedotbelow;
layers = (
{
background = {
anchors = (
{
name = bottom;
position = "{313, -184}";
},
{
name = ogonek;
position = "{563, 0}";
},
{
name = top;
position = "{309, 700}";
}
);
paths = (
{
closed = 1;
nodes = (
"181 0 LINE",
"181 44 LINE",
"155 43 OFFCURVE",
"129 41 OFFCURVE",
"103 40 CURVE",
"112 62 OFFCURVE",
"118 77 OFFCURVE",
"128 109 CURVE",
"163 216 LINE",
"423 222 LINE",
"458 128 LINE SMOOTH",
"472 91 OFFCURVE",
"484 35 OFFCURVE",
"409 33 CURVE",
"409 0 LINE",
"638 0 LINE",
"638 44 LINE",
"615 43 OFFCURVE",
"593 41 OFFCURVE",
"570 40 CURVE",
"572 70 OFFCURVE",
"555 122 OFFCURVE",
"544 150 CURVE SMOOTH",
"321 719 LINE",
"297 719 LINE",
"91 158 LINE SMOOTH",
"63 84 OFFCURVE",
"54 33 OFFCURVE",
"-6 33 CURVE",
"-6 0 LINE"
);
},
{
closed = 1;
nodes = (
"249 460 LINE",
"263 498 OFFCURVE",
"277 535 OFFCURVE",
"291 573 CURVE",
"293 573 LINE",
"308 532 OFFCURVE",
"323 491 OFFCURVE",
"338 450 CURVE",
"409 259 LINE",
"178 259 LINE"
);
},
{
closed = 1;
nodes = (
"338 -184 OFFCURVE",
"362 -161 OFFCURVE",
"362 -131 CURVE SMOOTH",
"362 -102 OFFCURVE",
"341 -78 OFFCURVE",
"314 -78 CURVE SMOOTH",
"288 -78 OFFCURVE",
"265 -102 OFFCURVE",
"265 -131 CURVE SMOOTH",
"265 -161 OFFCURVE",
"287 -184 OFFCURVE",
"313 -184 CURVE SMOOTH"
);
},
{
closed = 1;
nodes = (
"370 809 OFFCURVE",
"425 845 OFFCURVE",
"456 912 CURVE",
"429 924 LINE",
"408 896 OFFCURVE",
"360 870 OFFCURVE",
"309 870 CURVE SMOOTH",
"258 870 OFFCURVE",
"210 896 OFFCURVE",
"189 924 CURVE",
"163 912 LINE",
"193 845 OFFCURVE",
"248 809 OFFCURVE",
"309 809 CURVE SMOOTH"
);
}
);
};
components = (
{
name = A;
},
{
name = dotbelowcomb;
transform = "{1, 0, 0, 1, 191, 0}";
},
{
name = brevecomb.case;
transform = "{1, 0, 0, 1, 126, 0}";
}
);
layerId = UUID0;
width = 626;
},
{
background = {
anchors = (
{
name = bottom;
position = "{334, -227}";
},
{
name = ogonek;
position = "{601, 0}";
},
{
name = top;
position = "{329, 700}";
}
);
paths = (
{
closed = 1;
nodes = (
"218 0 LINE",
"218 80 LINE",
"204 80 OFFCURVE",
"168 79 OFFCURVE",
"147 77 CURVE",
"158 100 OFFCURVE",
"172 140 OFFCURVE",
"179 158 CURVE SMOOTH",
"195 205 LINE",
"412 209 LINE",
"432 154 LINE SMOOTH",
"451 104 OFFCURVE",
"450 66 OFFCURVE",
"395 66 CURVE",
"395 0 LINE",
"664 0 LINE",
"664 77 LINE",
"650 77 OFFCURVE",
"628 76 OFFCURVE",
"606 74 CURVE",
"603 104 OFFCURVE",
"586 153 OFFCURVE",
"578 173 CURVE SMOOTH",
"365 718 LINE",
"295 718 LINE",
"100 183 LINE SMOOTH",
"78 123 OFFCURVE",
"60 69 OFFCURVE",
"4 69 CURVE",
"4 0 LINE"
);
},
{
closed = 1;
nodes = (
"265 410 LINE SMOOTH",
"287 472 OFFCURVE",
"297 519 OFFCURVE",
"302 542 CURVE",
"303 542 LINE",
"309 505 OFFCURVE",
"324 453 OFFCURVE",
"341 405 CURVE SMOOTH",
"387 280 LINE",
"220 280 LINE"
);
},
{
closed = 1;
nodes = (
"371 -191 OFFCURVE",
"394 -162 OFFCURVE",
"394 -127 CURVE SMOOTH",
"394 -91 OFFCURVE",
"369 -62 OFFCURVE",
"335 -62 CURVE SMOOTH",
"302 -62 OFFCURVE",
"274 -91 OFFCURVE",
"274 -127 CURVE SMOOTH",
"274 -162 OFFCURVE",
"299 -191 OFFCURVE",
"336 -191 CURVE SMOOTH"
);
},
{
closed = 1;
nodes = (
"395 782 OFFCURVE",
"469 813 OFFCURVE",
"501 903 CURVE",
"459 924 LINE",
"431 896 OFFCURVE",
"394 869 OFFCURVE",
"331 869 CURVE SMOOTH",
"268 869 OFFCURVE",
"230 896 OFFCURVE",
"202 924 CURVE",
"160 903 LINE",
"192 813 OFFCURVE",
"267 782 OFFCURVE",
"331 782 CURVE SMOOTH"
);
}
);
};
components = (
{
name = A;
},
{
name = dotbelowcomb;
transform = "{1, 0, 0, 1, 217, 0}";
},
{
name = brevecomb.case;
transform = "{1, 0, 0, 1, 126, 0}";
}
);
layerId = "4C2B4986-1645-43C1-94B7-5E4C57EFF0D9";
width = 668;
}
);
unicode = 1EB6;
},
{
glyphname = Abrevegrave;
layers = (
{
background = {
anchors = (
{
name = bottom;
position = "{313, 0}";
},
{
name = ogonek;
position = "{563, 0}";
},
{
name = top;
position = "{309, 700}";
}
);
paths = (
{
closed = 1;
nodes = (
"181 0 LINE",
"181 44 LINE",
"155 43 OFFCURVE",
"129 41 OFFCURVE",
"103 40 CURVE",
"112 62 OFFCURVE",
"118 77 OFFCURVE",
"128 109 CURVE",
"163 216 LINE",
"423 222 LINE",
"458 128 LINE SMOOTH",
"472 91 OFFCURVE",
"484 35 OFFCURVE",
"409 33 CURVE",
"409 0 LINE",
"638 0 LINE",
"638 44 LINE",
"615 43 OFFCURVE",
"593 41 OFFCURVE",
"570 40 CURVE",
"572 70 OFFCURVE",
"555 122 OFFCURVE",
"544 150 CURVE SMOOTH",
"321 719 LINE",
"297 719 LINE",
"91 158 LINE SMOOTH",
"63 84 OFFCURVE",
"54 33 OFFCURVE",
"-6 33 CURVE",
"-6 0 LINE"
);
},
{
closed = 1;
nodes = (
"249 460 LINE",
"263 498 OFFCURVE",
"277 535 OFFCURVE",
"291 573 CURVE",
"293 573 LINE",
"308 532 OFFCURVE",
"323 491 OFFCURVE",
"338 450 CURVE",
"409 259 LINE",
"178 259 LINE"
);
},
{
closed = 1;
nodes = (
"369 804 OFFCURVE",
"416 845 OFFCURVE",
"445 925 CURVE",
"418 937 LINE",
"399 900 OFFCURVE",
"356 865 OFFCURVE",
"310 865 CURVE SMOOTH",
"264 865 OFFCURVE",
"221 898 OFFCURVE",
"201 935 CURVE",
"172 920 LINE",
"197 841 OFFCURVE",
"255 804 OFFCURVE",
"307 804 CURVE SMOOTH"
);
},
{
closed = 1;
nodes = (
"336 935 LINE",
"252 1070 LINE SMOOTH",
"222 1113 OFFCURVE",
"192 1093 OFFCURVE",
"187 1089 CURVE SMOOTH",
"179 1082 OFFCURVE",
"160 1056 OFFCURVE",
"196 1018 CURVE SMOOTH",
"308 912 LINE"
);
}
);
};
components = (
{
name = A;
},
{
name = brevecomb_gravecomb.case;
transform = "{1, 0, 0, 1, 122, 200}";
}
);
layerId = UUID0;
width = 626;
},
{
background = {
anchors = (
{
name = bottom;
position = "{334, 0}";
},
{
name = ogonek;
position = "{601, 0}";
},
{
name = top;
position = "{329, 700}";
}
);
paths = (
{
closed = 1;
nodes = (
"218 0 LINE",
"218 80 LINE",
"204 80 OFFCURVE",
"168 79 OFFCURVE",
"147 77 CURVE",
"158 100 OFFCURVE",
"172 140 OFFCURVE",
"179 158 CURVE SMOOTH",
"195 205 LINE",
"412 209 LINE",
"432 154 LINE SMOOTH",
"451 104 OFFCURVE",
"450 66 OFFCURVE",
"395 66 CURVE",
"395 0 LINE",
"664 0 LINE",
"664 77 LINE",
"650 77 OFFCURVE",
"628 76 OFFCURVE",
"606 74 CURVE",
"603 104 OFFCURVE",
"586 153 OFFCURVE",
"578 173 CURVE SMOOTH",
"365 718 LINE",
"295 718 LINE",
"100 183 LINE SMOOTH",
"78 123 OFFCURVE",
"60 69 OFFCURVE",
"4 69 CURVE",
"4 0 LINE"
);
},
{
closed = 1;
nodes = (
"265 410 LINE SMOOTH",
"287 472 OFFCURVE",
"297 519 OFFCURVE",
"302 542 CURVE",
"303 542 LINE",
"309 505 OFFCURVE",
"324 453 OFFCURVE",
"341 405 CURVE SMOOTH",
"387 280 LINE",
"220 280 LINE"
);
},
{
closed = 1;
nodes = (
"395 800 OFFCURVE",
"452 838 OFFCURVE",
"487 935 CURVE",
"422 964 LINE",
"403 927 OFFCURVE",
"377 892 OFFCURVE",
"331 892 CURVE SMOOTH",
"284 892 OFFCURVE",
"257 926 OFFCURVE",
"236 963 CURVE",
"171 930 LINE",
"202 834 OFFCURVE",
"271 800 OFFCURVE",
"327 800 CURVE SMOOTH"
);
},
{
closed = 1;
nodes = (
"376 998 LINE",
"294 1138 LINE SMOOTH",
"273 1171 OFFCURVE",
"232 1187 OFFCURVE",
"201 1162 CURVE SMOOTH",
"169 1133 OFFCURVE",
"182 1088 OFFCURVE",
"209 1063 CURVE SMOOTH",
"330 957 LINE"
);
}
);
};
components = (
{
name = A;
},
{
name = brevecomb_gravecomb.case;
transform = "{1, 0, 0, 1, 121, 201}";
}
);
layerId = "4C2B4986-1645-43C1-94B7-5E4C57EFF0D9";
width = 668;
}
);
unicode = 1EB0;
},
{
glyphname = Abrevehookabove;
layers = (
{
background = {
anchors = (
{
name = bottom;
position = "{313, 0}";
},
{
name = ogonek;
position = "{563, 0}";
},
{
name = top;
position = "{309, 700}";
}
);
paths = (
{
closed = 1;
nodes = (
"181 0 LINE",
"181 44 LINE",
"155 43 OFFCURVE",
"129 41 OFFCURVE",
"103 40 CURVE",
"112 62 OFFCURVE",
"118 77 OFFCURVE",
"128 109 CURVE",
"163 216 LINE",
"423 222 LINE",
"458 128 LINE SMOOTH",
"472 91 OFFCURVE",
"484 35 OFFCURVE",
"409 33 CURVE",
"409 0 LINE",
"638 0 LINE",
"638 44 LINE",
"615 43 OFFCURVE",
"593 41 OFFCURVE",
"570 40 CURVE",
"572 70 OFFCURVE",
"555 122 OFFCURVE",
"544 150 CURVE SMOOTH",
"321 719 LINE",
"297 719 LINE",
"91 158 LINE SMOOTH",
"63 84 OFFCURVE",
"54 33 OFFCURVE",
"-6 33 CURVE",
"-6 0 LINE"
);
},
{
closed = 1;
nodes = (
"249 460 LINE",
"263 498 OFFCURVE",
"277 535 OFFCURVE",
"291 573 CURVE",
"293 573 LINE",
"308 532 OFFCURVE",
"323 491 OFFCURVE",
"338 450 CURVE",
"409 259 LINE",
"178 259 LINE"
);
},
{
closed = 1;
nodes = (
"369 804 OFFCURVE",
"416 845 OFFCURVE",
"445 925 CURVE",
"418 937 LINE",
"399 900 OFFCURVE",
"356 865 OFFCURVE",
"310 865 CURVE SMOOTH",
"264 865 OFFCURVE",
"221 898 OFFCURVE",
"201 935 CURVE",
"172 920 LINE",
"197 841 OFFCURVE",
"255 804 OFFCURVE",
"307 804 CURVE SMOOTH"
);
},
{
closed = 1;
nodes = (
"336 932 LINE",
"336 943 OFFCURVE",
"350 952 OFFCURVE",
"366 964 CURVE SMOOTH",
"390 982 OFFCURVE",
"407 999 OFFCURVE",
"407 1033 CURVE SMOOTH",
"407 1073 OFFCURVE",
"368 1114 OFFCURVE",
"298 1114 CURVE SMOOTH",
"231 1114 OFFCURVE",
"194 1078 OFFCURVE",
"194 1044 CURVE SMOOTH",
"194 1017 OFFCURVE",
"211 1006 OFFCURVE",
"227 1006 CURVE SMOOTH",
"243 1006 OFFCURVE",
"258 1016 OFFCURVE",
"258 1032 CURVE SMOOTH",
"258 1038 OFFCURVE",
"255 1044 OFFCURVE",
"252 1048 CURVE",
"254 1062 OFFCURVE",
"275 1078 OFFCURVE",
"299 1078 CURVE SMOOTH",
"332 1078 OFFCURVE",
"352 1053 OFFCURVE",
"352 1026 CURVE SMOOTH",
"352 1012 OFFCURVE",
"346 996 OFFCURVE",
"333 985 CURVE SMOOTH",
"316 970 OFFCURVE",
"295 956 OFFCURVE",
"295 932 CURVE"
);
}
);
};
components = (
{
name = A;
},
{
name = brevecomb_hookabovecomb.case;
transform = "{1, 0, 0, 1, 72, 200}";
}
);
layerId = UUID0;
width = 626;
},
{
background = {
anchors = (
{
name = bottom;
position = "{334, 0}";
},
{
name = ogonek;
position = "{601, 0}";
},
{
name = top;
position = "{329, 700}";
}
);
paths = (
{
closed = 1;
nodes = (
"218 0 LINE",
"218 80 LINE",
"204 80 OFFCURVE",
"168 79 OFFCURVE",
"147 77 CURVE",
"158 100 OFFCURVE",
"172 140 OFFCURVE",
"179 158 CURVE SMOOTH",
"195 205 LINE",
"412 209 LINE",
"432 154 LINE SMOOTH",
"451 104 OFFCURVE",
"450 66 OFFCURVE",
"395 66 CURVE",
"395 0 LINE",
"664 0 LINE",
"664 77 LINE",
"650 77 OFFCURVE",
"628 76 OFFCURVE",
"606 74 CURVE",
"603 104 OFFCURVE",
"586 153 OFFCURVE",
"578 173 CURVE SMOOTH",
"365 718 LINE",
"295 718 LINE",
"100 183 LINE SMOOTH",
"78 123 OFFCURVE",
"60 69 OFFCURVE",
"4 69 CURVE",
"4 0 LINE"
);
},
{
closed = 1;
nodes = (
"265 410 LINE SMOOTH",
"287 472 OFFCURVE",
"297 519 OFFCURVE",
"302 542 CURVE",
"303 542 LINE",
"309 505 OFFCURVE",
"324 453 OFFCURVE",
"341 405 CURVE SMOOTH",
"387 280 LINE",
"220 280 LINE"
);
},
{
closed = 1;
nodes = (
"395 800 OFFCURVE",
"452 838 OFFCURVE",
"487 935 CURVE",
"422 964 LINE",
"403 927 OFFCURVE",
"377 892 OFFCURVE",
"331 892 CURVE SMOOTH",
"284 892 OFFCURVE",
"257 926 OFFCURVE",
"236 963 CURVE",
"171 930 LINE",
"202 834 OFFCURVE",
"271 800 OFFCURVE",
"327 800 CURVE SMOOTH"
);
},
{
closed = 1;
nodes = (
"365 980 LINE",
"365 992 OFFCURVE",
"376 1006 OFFCURVE",
"392 1019 CURVE SMOOTH",
"411 1035 OFFCURVE",
"434 1049 OFFCURVE",
"434 1085 CURVE SMOOTH",
"434 1142 OFFCURVE",
"388 1178 OFFCURVE",
"309 1178 CURVE SMOOTH",
"238 1178 OFFCURVE",
"197 1129 OFFCURVE",
"197 1084 CURVE SMOOTH",
"197 1056 OFFCURVE",
"218 1033 OFFCURVE",
"249 1033 CURVE SMOOTH",
"272 1033 OFFCURVE",
"284 1049 OFFCURVE",
"284 1064 CURVE SMOOTH",
"284 1078 OFFCURVE",
"274 1091 OFFCURVE",
"254 1091 CURVE",
"256 1100 OFFCURVE",
"271 1118 OFFCURVE",
"309 1118 CURVE SMOOTH",
"337 1118 OFFCURVE",
"359 1104 OFFCURVE",
"359 1076 CURVE SMOOTH",
"359 1059 OFFCURVE",
"351 1047 OFFCURVE",
"342 1037 CURVE SMOOTH",
"326 1019 OFFCURVE",
"303 1008 OFFCURVE",
"303 980 CURVE"
);
}
);
};
components = (
{
name = A;
},
{
name = brevecomb_hookabovecomb.case;
transform = "{1, 0, 0, 1, 121, 200}";
}
);
layerId = "4C2B4986-1645-43C1-94B7-5E4C57EFF0D9";
width = 668;
}
);
unicode = 1EB2;
},
{
glyphname = Abrevetilde;
layers = (
{
background = {
anchors = (
{
name = bottom;
position = "{313, 0}";
},
{
name = ogonek;
position = "{563, 0}";
},
{
name = top;
position = "{309, 700}";
}
);
paths = (
{
closed = 1;
nodes = (
"181 0 LINE",
"181 44 LINE",
"155 43 OFFCURVE",
"129 41 OFFCURVE",
"103 40 CURVE",
"112 62 OFFCURVE",
"118 77 OFFCURVE",
"128 109 CURVE",
"163 216 LINE",
"423 222 LINE",
"458 128 LINE SMOOTH",
"472 91 OFFCURVE",
"484 35 OFFCURVE",
"409 33 CURVE",
"409 0 LINE",
"638 0 LINE",
"638 44 LINE",
"615 43 OFFCURVE",
"593 41 OFFCURVE",
"570 40 CURVE",
"572 70 OFFCURVE",
"555 122 OFFCURVE",
"544 150 CURVE SMOOTH",
"321 719 LINE",
"297 719 LINE",
"91 158 LINE SMOOTH",
"63 84 OFFCURVE",
"54 33 OFFCURVE",
"-6 33 CURVE",
"-6 0 LINE"
);
},
{
closed = 1;
nodes = (
"249 460 LINE",
"263 498 OFFCURVE",
"277 535 OFFCURVE",
"291 573 CURVE",
"293 573 LINE",
"308 532 OFFCURVE",
"323 491 OFFCURVE",
"338 450 CURVE",
"409 259 LINE",
"178 259 LINE"
);
},
{
closed = 1;
nodes = (
"369 804 OFFCURVE",
"416 845 OFFCURVE",
"445 925 CURVE",
"418 937 LINE",
"399 900 OFFCURVE",
"356 865 OFFCURVE",
"310 865 CURVE SMOOTH",
"264 865 OFFCURVE",
"221 898 OFFCURVE",
"201 935 CURVE",
"172 920 LINE",
"197 841 OFFCURVE",
"255 804 OFFCURVE",
"307 804 CURVE SMOOTH"
);
},
{
closed = 1;
nodes = (
"455 1056 LINE",
"439 1027 OFFCURVE",
"411 1008 OFFCURVE",
"382 1008 CURVE SMOOTH",
"338 1008 OFFCURVE",
"313 1063 OFFCURVE",
"250 1061 CURVE SMOOTH",
"213 1060 OFFCURVE",
"165 1022 OFFCURVE",
"148 975 CURVE",
"178 958 LINE",
"197 988 OFFCURVE",
"227 1000 OFFCURVE",
"251 1000 CURVE SMOOTH",
"288 1000 OFFCURVE",
"320 946 OFFCURVE",
"382 946 CURVE SMOOTH",
"417 946 OFFCURVE",
"462 975 OFFCURVE",
"484 1041 CURVE"
);
}
);
};
components = (
{
name = A;
},
{
name = brevecomb_tildecomb.case;
transform = "{1, 0, 0, 1, 127, 200}";
}
);
layerId = UUID0;
width = 626;
},
{
background = {
anchors = (
{
name = bottom;
position = "{334, 0}";
},
{
name = ogonek;
position = "{601, 0}";
},
{
name = top;
position = "{329, 700}";
}
);
paths = (
{
closed = 1;
nodes = (
"218 0 LINE",
"218 80 LINE",
"204 80 OFFCURVE",
"168 79 OFFCURVE",
"147 77 CURVE",
"158 100 OFFCURVE",
"172 140 OFFCURVE",
"179 158 CURVE SMOOTH",
"195 205 LINE",
"412 209 LINE",
"432 154 LINE SMOOTH",
"451 104 OFFCURVE",
"450 66 OFFCURVE",
"395 66 CURVE",
"395 0 LINE",
"664 0 LINE",
"664 77 LINE",
"650 77 OFFCURVE",
"628 76 OFFCURVE",
"606 74 CURVE",
"603 104 OFFCURVE",
"586 153 OFFCURVE",
"578 173 CURVE SMOOTH",
"365 718 LINE",
"295 718 LINE",
"100 183 LINE SMOOTH",
"78 123 OFFCURVE",
"60 69 OFFCURVE",
"4 69 CURVE",
"4 0 LINE"
);
},
{
closed = 1;
nodes = (
"265 410 LINE SMOOTH",
"287 472 OFFCURVE",
"297 519 OFFCURVE",
"302 542 CURVE",
"303 542 LINE",
"309 505 OFFCURVE",
"324 453 OFFCURVE",
"341 405 CURVE SMOOTH",
"387 280 LINE",
"220 280 LINE"
);
},
{
closed = 1;
nodes = (
"395 800 OFFCURVE",
"452 838 OFFCURVE",
"487 935 CURVE",
"422 964 LINE",
"403 927 OFFCURVE",
"377 892 OFFCURVE",
"331 892 CURVE SMOOTH",
"284 892 OFFCURVE",
"257 926 OFFCURVE",
"236 963 CURVE",
"171 930 LINE",
"202 834 OFFCURVE",
"271 800 OFFCURVE",
"327 800 CURVE SMOOTH"
);
},
{
closed = 1;
nodes = (
"465 1129 LINE",
"448 1098 OFFCURVE",
"426 1079 OFFCURVE",
"403 1079 CURVE SMOOTH",
"355 1079 OFFCURVE",
"343 1117 OFFCURVE",
"281 1117 CURVE SMOOTH",
"236 1117 OFFCURVE",
"186 1075 OFFCURVE",
"164 1014 CURVE",
"220 981 LINE",
"240 1013 OFFCURVE",
"266 1022 OFFCURVE",
"282 1022 CURVE SMOOTH",
"322 1022 OFFCURVE",
"349 983 OFFCURVE",
"403 983 CURVE SMOOTH",
"443 983 OFFCURVE",
"494 1017 OFFCURVE",
"522 1100 CURVE"
);
}
);
};
components = (
{
name = A;
},
{
name = brevecomb_tildecomb.case;
transform = "{1, 0, 0, 1, 127, 201}";
}
);
layerId = "4C2B4986-1645-43C1-94B7-5E4C57EFF0D9";
width = 668;
}
);
unicode = 1EB4;
},
{
glyphname = Acaron;
layers = (
{
background = {
anchors = (
{
name = bottom;
position = "{313, 0}";
},
{
name = ogonek;
position = "{563, 0}";
},
{
name = top;
position = "{309, 957}";
}
);
paths = (
{
closed = 1;
nodes = (
"181 0 LINE",
"181 44 LINE",
"155 43 OFFCURVE",
"129 41 OFFCURVE",
"103 40 CURVE",
"112 62 OFFCURVE",
"118 77 OFFCURVE",
"128 109 CURVE",
"163 216 LINE",
"423 222 LINE",
"458 128 LINE SMOOTH",
"472 91 OFFCURVE",
"484 35 OFFCURVE",
"409 33 CURVE",
"409 0 LINE",
"638 0 LINE",
"638 44 LINE",
"615 43 OFFCURVE",
"593 41 OFFCURVE",
"570 40 CURVE",
"572 70 OFFCURVE",
"555 122 OFFCURVE",
"544 150 CURVE SMOOTH",
"321 719 LINE",
"297 719 LINE",
"91 158 LINE SMOOTH",
"63 84 OFFCURVE",
"54 33 OFFCURVE",
"-6 33 CURVE",
"-6 0 LINE"
);
},
{
closed = 1;
nodes = (
"249 460 LINE",
"263 498 OFFCURVE",
"277 535 OFFCURVE",
"291 573 CURVE",
"293 573 LINE",
"308 532 OFFCURVE",
"323 491 OFFCURVE",
"338 450 CURVE",
"409 259 LINE",
"178 259 LINE"
);
},
{
closed = 1;
nodes = (
"305 780 LINE",
"499 925 LINE",
"479 957 LINE",
"309 867 LINE",
"141 955 LINE",
"119 921 LINE",
"303 780 LINE"
);
}
);
};
components = (
{
name = A;
},
{
name = caroncomb.case;
transform = "{1, 0, 0, 1, 74, 0}";
}
);
layerId = UUID0;
width = 626;
},
{
background = {
anchors = (
{
name = bottom;
position = "{334, 0}";
},
{
name = ogonek;
position = "{601, 0}";
},
{
name = top;
position = "{329, 963}";
}
);
paths = (
{
closed = 1;
nodes = (
"218 0 LINE",
"218 80 LINE",
"204 80 OFFCURVE",
"168 79 OFFCURVE",
"147 77 CURVE",
"158 100 OFFCURVE",
"172 140 OFFCURVE",
"179 158 CURVE SMOOTH",
"195 205 LINE",
"412 209 LINE",
"432 154 LINE SMOOTH",
"451 104 OFFCURVE",
"450 66 OFFCURVE",
"395 66 CURVE",
"395 0 LINE",
"664 0 LINE",
"664 77 LINE",
"650 77 OFFCURVE",
"628 76 OFFCURVE",
"606 74 CURVE",
"603 104 OFFCURVE",
"586 153 OFFCURVE",
"578 173 CURVE SMOOTH",
"365 718 LINE",
"295 718 LINE",
"100 183 LINE SMOOTH",
"78 123 OFFCURVE",
"60 69 OFFCURVE",
"4 69 CURVE",
"4 0 LINE"
);
},
{
closed = 1;
nodes = (
"265 410 LINE SMOOTH",
"287 472 OFFCURVE",
"297 519 OFFCURVE",
"302 542 CURVE",
"303 542 LINE",
"309 505 OFFCURVE",
"324 453 OFFCURVE",
"341 405 CURVE SMOOTH",
"387 280 LINE",
"220 280 LINE"
);
},
{
closed = 1;
nodes = (
"334 765 LINE",
"538 918 LINE",
"512 963 LINE",
"329 874 LINE",
"151 961 LINE",
"120 915 LINE",
"315 765 LINE"
);
}
);
};
components = (
{
name = A;
},
{
name = caroncomb.case;
transform = "{1, 0, 0, 1, 99, 0}";
}
);
layerId = "4C2B4986-1645-43C1-94B7-5E4C57EFF0D9";
width = 668;
}
);
unicode = 01CD;
},
{
glyphname = Acircumflex;
layers = (
{
background = {
anchors = (
{
name = bottom;
position = "{313, 0}";
},
{
name = ogonek;
position = "{563, 0}";
},
{
name = top;
position = "{314, 931}";
}
);
paths = (
{
closed = 1;
nodes = (
"181 0 LINE",
"181 44 LINE",
"155 43 OFFCURVE",
"129 41 OFFCURVE",
"103 40 CURVE",
"112 62 OFFCURVE",
"118 77 OFFCURVE",
"128 109 CURVE",
"163 216 LINE",
"423 222 LINE",
"458 128 LINE SMOOTH",
"472 91 OFFCURVE",
"484 35 OFFCURVE",
"409 33 CURVE",
"409 0 LINE",
"638 0 LINE",
"638 44 LINE",
"615 43 OFFCURVE",
"593 41 OFFCURVE",
"570 40 CURVE",
"572 70 OFFCURVE",
"555 122 OFFCURVE",
"544 150 CURVE SMOOTH",
"321 719 LINE",
"297 719 LINE",
"91 158 LINE SMOOTH",
"63 84 OFFCURVE",
"54 33 OFFCURVE",
"-6 33 CURVE",
"-6 0 LINE"
);
},
{
closed = 1;
nodes = (
"249 460 LINE",
"263 498 OFFCURVE",
"277 535 OFFCURVE",
"291 573 CURVE",
"293 573 LINE",
"308 532 OFFCURVE",
"323 491 OFFCURVE",
"338 450 CURVE",
"409 259 LINE",
"178 259 LINE"
);
},
{
closed = 1;
nodes = (
"462 790 LINE",
"315 931 LINE",
"313 931 LINE",
"158 789 LINE",
"183 760 LINE",
"310 844 LINE",
"439 760 LINE"
);
}
);
};
components = (
{
name = A;
},
{
name = circumflexcomb.case;
transform = "{1, 0, 0, 1, 74, 0}";
}
);
layerId = UUID0;
width = 626;
},
{
background = {
anchors = (
{
name = bottom;
position = "{334, 0}";
},
{
name = ogonek;
position = "{601, 0}";
},
{
name = top;
position = "{333, 971}";
}
);
paths = (
{
closed = 1;
nodes = (
"218 0 LINE",
"218 80 LINE",
"204 80 OFFCURVE",
"168 79 OFFCURVE",
"147 77 CURVE",
"158 100 OFFCURVE",
"172 140 OFFCURVE",
"179 158 CURVE SMOOTH",
"195 205 LINE",
"412 209 LINE",
"432 154 LINE SMOOTH",
"451 104 OFFCURVE",
"450 66 OFFCURVE",
"395 66 CURVE",
"395 0 LINE",
"664 0 LINE",
"664 77 LINE",
"650 77 OFFCURVE",
"628 76 OFFCURVE",
"606 74 CURVE",
"603 104 OFFCURVE",
"586 153 OFFCURVE",
"578 173 CURVE SMOOTH",
"365 718 LINE",
"295 718 LINE",
"100 183 LINE SMOOTH",
"78 123 OFFCURVE",
"60 69 OFFCURVE",
"4 69 CURVE",
"4 0 LINE"
);
},
{
closed = 1;
nodes = (
"265 410 LINE SMOOTH",
"287 472 OFFCURVE",
"297 519 OFFCURVE",
"302 542 CURVE",
"303 542 LINE",
"309 505 OFFCURVE",
"324 453 OFFCURVE",
"341 405 CURVE SMOOTH",
"387 280 LINE",
"220 280 LINE"
);
},
{
closed = 1;
nodes = (
"501 821 LINE",
"344 971 LINE",
"325 971 LINE",
"160 821 LINE",
"187 776 LINE",
"330 861 LINE",
"469 774 LINE"
);
}
);
};
components = (
{
name = A;
},
{
name = circumflexcomb.case;
transform = "{1, 0, 0, 1, 75, 0}";
}
);
layerId = "4C2B4986-1645-43C1-94B7-5E4C57EFF0D9";
width = 668;
}
);
leftKerningGroup = A;
rightKerningGroup = A;
unicode = 00C2;
},
{
glyphname = Acircumflexacute;
layers = (
{
background = {
anchors = (
{
name = bottom;
position = "{313, 0}";
},
{
name = ogonek;
position = "{563, 0}";
},
{
name = top;
position = "{309, 700}";
}
);
paths = (
{
closed = 1;
nodes = (
"181 0 LINE",
"181 44 LINE",
"155 43 OFFCURVE",
"129 41 OFFCURVE",
"103 40 CURVE",
"112 62 OFFCURVE",
"118 77 OFFCURVE",
"128 109 CURVE",
"163 216 LINE",
"423 222 LINE",
"458 128 LINE SMOOTH",
"472 91 OFFCURVE",
"484 35 OFFCURVE",
"409 33 CURVE",
"409 0 LINE",
"638 0 LINE",
"638 44 LINE",
"615 43 OFFCURVE",
"593 41 OFFCURVE",
"570 40 CURVE",
"572 70 OFFCURVE",
"555 122 OFFCURVE",
"544 150 CURVE SMOOTH",
"321 719 LINE",
"297 719 LINE",
"91 158 LINE SMOOTH",
"63 84 OFFCURVE",
"54 33 OFFCURVE",
"-6 33 CURVE",
"-6 0 LINE"
);
},
{
closed = 1;
nodes = (
"249 460 LINE",
"263 498 OFFCURVE",
"277 535 OFFCURVE",
"291 573 CURVE",
"293 573 LINE",
"308 532 OFFCURVE",
"323 491 OFFCURVE",
"338 450 CURVE",
"409 259 LINE",
"178 259 LINE"
);
},
{
closed = 1;
nodes = (
"436 775 LINE",
"314 891 LINE",
"313 891 LINE",
"184 774 LINE",
"205 750 LINE",
"310 819 LINE",
"417 750 LINE"
);
},
{
closed = 1;
nodes = (
"572 930 LINE SMOOTH",
"608 968 OFFCURVE",
"589 994 OFFCURVE",
"581 1001 CURVE SMOOTH",
"576 1005 OFFCURVE",
"546 1025 OFFCURVE",
"516 982 CURVE SMOOTH",
"432 847 LINE",
"460 824 LINE"
);
}
);
};
components = (
{
name = A;
},
{
name = circumflexcomb_acutecomb.case;
transform = "{1, 0, 0, 1, 109, 191}";
}
);
layerId = UUID0;
width = 626;
},
{
background = {
anchors = (
{
name = bottom;
position = "{334, 0}";
},
{
name = ogonek;
position = "{601, 0}";
},
{
name = top;
position = "{329, 700}";
}
);
paths = (
{
closed = 1;
nodes = (
"218 0 LINE",
"218 80 LINE",
"204 80 OFFCURVE",
"168 79 OFFCURVE",
"147 77 CURVE",
"158 100 OFFCURVE",
"172 140 OFFCURVE",
"179 158 CURVE SMOOTH",
"195 205 LINE",
"412 209 LINE",
"432 154 LINE SMOOTH",
"451 104 OFFCURVE",
"450 66 OFFCURVE",
"395 66 CURVE",
"395 0 LINE",
"664 0 LINE",
"664 77 LINE",
"650 77 OFFCURVE",
"628 76 OFFCURVE",
"606 74 CURVE",
"603 104 OFFCURVE",
"586 153 OFFCURVE",
"578 173 CURVE SMOOTH",
"365 718 LINE",
"295 718 LINE",
"100 183 LINE SMOOTH",
"78 123 OFFCURVE",
"60 69 OFFCURVE",
"4 69 CURVE",
"4 0 LINE"
);
},
{
closed = 1;
nodes = (
"265 410 LINE SMOOTH",
"287 472 OFFCURVE",
"297 519 OFFCURVE",
"302 542 CURVE",
"303 542 LINE",
"309 505 OFFCURVE",
"324 453 OFFCURVE",
"341 405 CURVE SMOOTH",
"387 280 LINE",
"220 280 LINE"
);
},
{
closed = 1;
nodes = (
"471 800 LINE",
"341 924 LINE",
"326 924 LINE",
"189 800 LINE",
"212 763 LINE",
"330 834 LINE",
"445 762 LINE"
);
},
{
closed = 1;
nodes = (
"625 956 LINE SMOOTH",
"652 981 OFFCURVE",
"665 1026 OFFCURVE",
"634 1055 CURVE SMOOTH",
"602 1080 OFFCURVE",
"561 1064 OFFCURVE",
"540 1031 CURVE SMOOTH",
"458 891 LINE",
"504 850 LINE"
);
}
);
};
components = (
{
name = A;
},
{
name = circumflexcomb_acutecomb.case;
transform = "{1, 0, 0, 1, 109, 212}";
}
);
layerId = "4C2B4986-1645-43C1-94B7-5E4C57EFF0D9";
width = 668;
}
);
unicode = 1EA4;
},
{
glyphname = Acircumflexdotbelow;
layers = (
{
background = {
anchors = (
{
name = bottom;
position = "{313, -184}";
},
{
name = ogonek;
position = "{563, 0}";
},
{
name = top;
position = "{309, 931}";
}
);
paths = (
{
closed = 1;
nodes = (
"181 0 LINE",
"181 44 LINE",
"155 43 OFFCURVE",
"129 41 OFFCURVE",
"103 40 CURVE",
"112 62 OFFCURVE",
"118 77 OFFCURVE",
"128 109 CURVE",
"163 216 LINE",
"423 222 LINE",
"458 128 LINE SMOOTH",
"472 91 OFFCURVE",
"484 35 OFFCURVE",
"409 33 CURVE",
"409 0 LINE",
"638 0 LINE",
"638 44 LINE",
"615 43 OFFCURVE",
"593 41 OFFCURVE",
"570 40 CURVE",
"572 70 OFFCURVE",
"555 122 OFFCURVE",
"544 150 CURVE SMOOTH",
"321 719 LINE",
"297 719 LINE",
"91 158 LINE SMOOTH",
"63 84 OFFCURVE",
"54 33 OFFCURVE",
"-6 33 CURVE",
"-6 0 LINE"
);
},
{
closed = 1;
nodes = (
"249 460 LINE",
"263 498 OFFCURVE",
"277 535 OFFCURVE",
"291 573 CURVE",
"293 573 LINE",
"308 532 OFFCURVE",
"323 491 OFFCURVE",
"338 450 CURVE",
"409 259 LINE",
"178 259 LINE"
);
},
{
closed = 1;
nodes = (
"338 -184 OFFCURVE",
"362 -161 OFFCURVE",
"362 -131 CURVE SMOOTH",
"362 -102 OFFCURVE",
"341 -78 OFFCURVE",
"314 -78 CURVE SMOOTH",
"288 -78 OFFCURVE",
"265 -102 OFFCURVE",
"265 -131 CURVE SMOOTH",
"265 -161 OFFCURVE",
"287 -184 OFFCURVE",
"313 -184 CURVE SMOOTH"
);
},
{
closed = 1;
nodes = (
"462 790 LINE",
"315 931 LINE",
"313 931 LINE",
"158 789 LINE",
"183 760 LINE",
"310 844 LINE",
"439 760 LINE"
);
}
);
};
components = (
{
name = A;
},
{
name = dotbelowcomb;
transform = "{1, 0, 0, 1, 191, 0}";
},
{
name = circumflexcomb.case;
transform = "{1, 0, 0, 1, 74, 0}";
}
);
layerId = UUID0;
width = 626;
},
{
background = {
anchors = (
{
name = bottom;
position = "{334, -227}";
},
{
name = ogonek;
position = "{601, 0}";
},
{
name = top;
position = "{329, 971}";
}
);
paths = (
{
closed = 1;
nodes = (
"218 0 LINE",
"218 80 LINE",
"204 80 OFFCURVE",
"168 79 OFFCURVE",
"147 77 CURVE",
"158 100 OFFCURVE",
"172 140 OFFCURVE",
"179 158 CURVE SMOOTH",
"195 205 LINE",
"412 209 LINE",
"432 154 LINE SMOOTH",
"451 104 OFFCURVE",
"450 66 OFFCURVE",
"395 66 CURVE",
"395 0 LINE",
"664 0 LINE",
"664 77 LINE",
"650 77 OFFCURVE",
"628 76 OFFCURVE",
"606 74 CURVE",
"603 104 OFFCURVE",
"586 153 OFFCURVE",
"578 173 CURVE SMOOTH",
"365 718 LINE",
"295 718 LINE",
"100 183 LINE SMOOTH",
"78 123 OFFCURVE",
"60 69 OFFCURVE",
"4 69 CURVE",
"4 0 LINE"
);
},
{
closed = 1;
nodes = (
"265 410 LINE SMOOTH",
"287 472 OFFCURVE",
"297 519 OFFCURVE",
"302 542 CURVE",
"303 542 LINE",
"309 505 OFFCURVE",
"324 453 OFFCURVE",
"341 405 CURVE SMOOTH",
"387 280 LINE",
"220 280 LINE"
);
},
{
closed = 1;
nodes = (
"371 -191 OFFCURVE",
"394 -162 OFFCURVE",
"394 -127 CURVE SMOOTH",
"394 -91 OFFCURVE",
"369 -62 OFFCURVE",
"335 -62 CURVE SMOOTH",
"302 -62 OFFCURVE",
"274 -91 OFFCURVE",
"274 -127 CURVE SMOOTH",
"274 -162 OFFCURVE",
"299 -191 OFFCURVE",
"336 -191 CURVE SMOOTH"
);
},
{
closed = 1;
nodes = (
"501 821 LINE",
"344 971 LINE",
"325 971 LINE",
"160 821 LINE",
"187 776 LINE",
"330 861 LINE",
"469 774 LINE"
);
}
);
};
components = (
{
name = A;
},
{
name = dotbelowcomb;
transform = "{1, 0, 0, 1, 217, 0}";
},
{
name = circumflexcomb.case;
transform = "{1, 0, 0, 1, 75, 0}";
}
);
layerId = "4C2B4986-1645-43C1-94B7-5E4C57EFF0D9";
width = 668;
}
);
unicode = 1EAC;
},
{
glyphname = Acircumflexgrave;
layers = (
{
background = {
anchors = (
{
name = bottom;
position = "{313, 0}";
},
{
name = ogonek;
position = "{563, 0}";
},
{
name = top;
position = "{309, 700}";
}
);
paths = (
{
closed = 1;
nodes = (
"181 0 LINE",
"181 44 LINE",
"155 43 OFFCURVE",
"129 41 OFFCURVE",
"103 40 CURVE",
"112 62 OFFCURVE",
"118 77 OFFCURVE",
"128 109 CURVE",
"163 216 LINE",
"423 222 LINE",
"458 128 LINE SMOOTH",
"472 91 OFFCURVE",
"484 35 OFFCURVE",
"409 33 CURVE",
"409 0 LINE",
"638 0 LINE",
"638 44 LINE",
"615 43 OFFCURVE",
"593 41 OFFCURVE",
"570 40 CURVE",
"572 70 OFFCURVE",
"555 122 OFFCURVE",
"544 150 CURVE SMOOTH",
"321 719 LINE",
"297 719 LINE",
"91 158 LINE SMOOTH",
"63 84 OFFCURVE",
"54 33 OFFCURVE",
"-6 33 CURVE",
"-6 0 LINE"
);
},
{
closed = 1;
nodes = (
"249 460 LINE",
"263 498 OFFCURVE",
"277 535 OFFCURVE",
"291 573 CURVE",
"293 573 LINE",
"308 532 OFFCURVE",
"323 491 OFFCURVE",
"338 450 CURVE",
"409 259 LINE",
"178 259 LINE"
);
},
{
closed = 1;
nodes = (
"436 775 LINE",
"314 891 LINE",
"313 891 LINE",
"184 774 LINE",
"205 750 LINE",
"310 819 LINE",
"417 750 LINE"
);
},
{
closed = 1;
nodes = (
"466 878 LINE",
"382 1013 LINE SMOOTH",
"352 1056 OFFCURVE",
"322 1036 OFFCURVE",
"317 1032 CURVE SMOOTH",
"309 1025 OFFCURVE",
"290 999 OFFCURVE",
"326 961 CURVE SMOOTH",
"438 855 LINE"
);
}
);
};
components = (
{
name = A;
},
{
name = circumflexcomb_gravecomb.case;
transform = "{1, 0, 0, 1, 92, 191}";
}
);
layerId = UUID0;
width = 626;
},
{
background = {
anchors = (
{
name = bottom;
position = "{334, 0}";
},
{
name = ogonek;
position = "{601, 0}";
},
{
name = top;
position = "{329, 700}";
}
);
paths = (
{
closed = 1;
nodes = (
"218 0 LINE",
"218 80 LINE",
"204 80 OFFCURVE",
"168 79 OFFCURVE",
"147 77 CURVE",
"158 100 OFFCURVE",
"172 140 OFFCURVE",
"179 158 CURVE SMOOTH",
"195 205 LINE",
"412 209 LINE",
"432 154 LINE SMOOTH",
"451 104 OFFCURVE",
"450 66 OFFCURVE",
"395 66 CURVE",
"395 0 LINE",
"664 0 LINE",
"664 77 LINE",
"650 77 OFFCURVE",
"628 76 OFFCURVE",
"606 74 CURVE",
"603 104 OFFCURVE",
"586 153 OFFCURVE",
"578 173 CURVE SMOOTH",
"365 718 LINE",
"295 718 LINE",
"100 183 LINE SMOOTH",
"78 123 OFFCURVE",
"60 69 OFFCURVE",
"4 69 CURVE",
"4 0 LINE"
);
},
{
closed = 1;
nodes = (
"265 410 LINE SMOOTH",
"287 472 OFFCURVE",
"297 519 OFFCURVE",
"302 542 CURVE",
"303 542 LINE",
"309 505 OFFCURVE",
"324 453 OFFCURVE",
"341 405 CURVE SMOOTH",
"387 280 LINE",
"220 280 LINE"
);
},
{
closed = 1;
nodes = (
"471 800 LINE",
"341 924 LINE",
"326 924 LINE",
"189 800 LINE",
"212 763 LINE",
"330 834 LINE",
"445 762 LINE"
);
},
{
closed = 1;
nodes = (
"528 934 LINE",
"446 1074 LINE SMOOTH",
"425 1107 OFFCURVE",
"384 1123 OFFCURVE",
"353 1098 CURVE SMOOTH",
"321 1069 OFFCURVE",
"334 1024 OFFCURVE",
"361 999 CURVE SMOOTH",
"482 893 LINE"
);
}
);
};
components = (
{
name = A;
},
{
name = circumflexcomb_gravecomb.case;
transform = "{1, 0, 0, 1, 104, 212}";
}
);
layerId = "4C2B4986-1645-43C1-94B7-5E4C57EFF0D9";
width = 668;
}
);
unicode = 1EA6;
},
{
glyphname = Acircumflexhookabove;
layers = (
{
background = {
anchors = (
{
name = bottom;
position = "{313, 0}";
},
{
name = ogonek;
position = "{563, 0}";
},
{
name = top;
position = "{309, 700}";
}
);
paths = (
{
closed = 1;
nodes = (
"181 0 LINE",
"181 44 LINE",
"155 43 OFFCURVE",
"129 41 OFFCURVE",
"103 40 CURVE",
"112 62 OFFCURVE",
"118 77 OFFCURVE",
"128 109 CURVE",
"163 216 LINE",
"423 222 LINE",
"458 128 LINE SMOOTH",
"472 91 OFFCURVE",
"484 35 OFFCURVE",
"409 33 CURVE",
"409 0 LINE",
"638 0 LINE",
"638 44 LINE",
"615 43 OFFCURVE",
"593 41 OFFCURVE",
"570 40 CURVE",
"572 70 OFFCURVE",
"555 122 OFFCURVE",
"544 150 CURVE SMOOTH",
"321 719 LINE",
"297 719 LINE",
"91 158 LINE SMOOTH",
"63 84 OFFCURVE",
"54 33 OFFCURVE",
"-6 33 CURVE",
"-6 0 LINE"
);
},
{
closed = 1;
nodes = (
"249 460 LINE",
"263 498 OFFCURVE",
"277 535 OFFCURVE",
"291 573 CURVE",
"293 573 LINE",
"308 532 OFFCURVE",
"323 491 OFFCURVE",
"338 450 CURVE",
"409 259 LINE",
"178 259 LINE"
);
},
{
closed = 1;
nodes = (
"436 775 LINE",
"314 891 LINE",
"313 891 LINE",
"184 774 LINE",
"205 750 LINE",
"310 819 LINE",
"417 750 LINE"
);
},
{
closed = 1;
nodes = (
"465 847 LINE",
"465 858 OFFCURVE",
"479 867 OFFCURVE",
"495 879 CURVE SMOOTH",
"519 897 OFFCURVE",
"536 914 OFFCURVE",
"536 948 CURVE SMOOTH",
"536 988 OFFCURVE",
"497 1029 OFFCURVE",
"427 1029 CURVE SMOOTH",
"360 1029 OFFCURVE",
"323 993 OFFCURVE",
"323 959 CURVE SMOOTH",
"323 932 OFFCURVE",
"340 921 OFFCURVE",
"356 921 CURVE SMOOTH",
"372 921 OFFCURVE",
"387 931 OFFCURVE",
"387 947 CURVE SMOOTH",
"387 953 OFFCURVE",
"384 959 OFFCURVE",
"381 963 CURVE",
"383 977 OFFCURVE",
"404 993 OFFCURVE",
"428 993 CURVE SMOOTH",
"461 993 OFFCURVE",
"481 968 OFFCURVE",
"481 941 CURVE SMOOTH",
"481 927 OFFCURVE",
"475 911 OFFCURVE",
"462 900 CURVE SMOOTH",
"445 885 OFFCURVE",
"424 871 OFFCURVE",
"424 847 CURVE"
);
}
);
};
components = (
{
name = A;
},
{
name = circumflexcomb_hookabovecomb.case;
transform = "{1, 0, 0, 1, 70, 191}";
}
);
layerId = UUID0;
width = 626;
},
{
background = {
anchors = (
{
name = bottom;
position = "{334, 0}";
},
{
name = ogonek;
position = "{601, 0}";
},
{
name = top;
position = "{329, 700}";
}
);
paths = (
{
closed = 1;
nodes = (
"218 0 LINE",
"218 80 LINE",
"204 80 OFFCURVE",
"168 79 OFFCURVE",
"147 77 CURVE",
"158 100 OFFCURVE",
"172 140 OFFCURVE",
"179 158 CURVE SMOOTH",
"195 205 LINE",
"412 209 LINE",
"432 154 LINE SMOOTH",
"451 104 OFFCURVE",
"450 66 OFFCURVE",
"395 66 CURVE",
"395 0 LINE",
"664 0 LINE",
"664 77 LINE",
"650 77 OFFCURVE",
"628 76 OFFCURVE",
"606 74 CURVE",
"603 104 OFFCURVE",
"586 153 OFFCURVE",
"578 173 CURVE SMOOTH",
"365 718 LINE",
"295 718 LINE",
"100 183 LINE SMOOTH",
"78 123 OFFCURVE",
"60 69 OFFCURVE",
"4 69 CURVE",
"4 0 LINE"
);
},
{
closed = 1;
nodes = (
"265 410 LINE SMOOTH",
"287 472 OFFCURVE",
"297 519 OFFCURVE",
"302 542 CURVE",
"303 542 LINE",
"309 505 OFFCURVE",
"324 453 OFFCURVE",
"341 405 CURVE SMOOTH",
"387 280 LINE",
"220 280 LINE"
);
},
{
closed = 1;
nodes = (
"471 800 LINE",
"341 924 LINE",
"326 924 LINE",
"189 800 LINE",
"212 763 LINE",
"330 834 LINE",
"445 762 LINE"
);
},
{
closed = 1;
nodes = (
"515 899 LINE",
"515 911 OFFCURVE",
"526 925 OFFCURVE",
"542 938 CURVE SMOOTH",
"561 954 OFFCURVE",
"584 968 OFFCURVE",
"584 1004 CURVE SMOOTH",
"584 1061 OFFCURVE",
"538 1097 OFFCURVE",
"459 1097 CURVE SMOOTH",
"388 1097 OFFCURVE",
"347 1048 OFFCURVE",
"347 1003 CURVE SMOOTH",
"347 975 OFFCURVE",
"368 952 OFFCURVE",
"399 952 CURVE SMOOTH",
"422 952 OFFCURVE",
"434 968 OFFCURVE",
"434 983 CURVE SMOOTH",
"434 997 OFFCURVE",
"424 1010 OFFCURVE",
"404 1010 CURVE",
"406 1019 OFFCURVE",
"421 1037 OFFCURVE",
"459 1037 CURVE SMOOTH",
"487 1037 OFFCURVE",
"509 1023 OFFCURVE",
"509 995 CURVE SMOOTH",
"509 978 OFFCURVE",
"501 966 OFFCURVE",
"492 956 CURVE SMOOTH",
"476 938 OFFCURVE",
"453 927 OFFCURVE",
"453 899 CURVE"
);
}
);
};
components = (
{
name = A;
},
{
name = circumflexcomb_hookabovecomb.case;
transform = "{1, 0, 0, 1, 69, 211}";
}
);
layerId = "4C2B4986-1645-43C1-94B7-5E4C57EFF0D9";
width = 668;
}
);
unicode = 1EA8;
},
{
glyphname = Acircumflextilde;
layers = (
{
background = {
anchors = (
{
name = bottom;
position = "{313, 0}";
},
{
name = ogonek;
position = "{563, 0}";
},
{
name = top;
position = "{309, 700}";
}
);
paths = (
{
closed = 1;
nodes = (
"181 0 LINE",
"181 44 LINE",
"155 43 OFFCURVE",
"129 41 OFFCURVE",
"103 40 CURVE",
"112 62 OFFCURVE",
"118 77 OFFCURVE",
"128 109 CURVE",
"163 216 LINE",
"423 222 LINE",
"458 128 LINE SMOOTH",
"472 91 OFFCURVE",
"484 35 OFFCURVE",
"409 33 CURVE",
"409 0 LINE",
"638 0 LINE",
"638 44 LINE",
"615 43 OFFCURVE",
"593 41 OFFCURVE",
"570 40 CURVE",
"572 70 OFFCURVE",
"555 122 OFFCURVE",
"544 150 CURVE SMOOTH",
"321 719 LINE",
"297 719 LINE",
"91 158 LINE SMOOTH",
"63 84 OFFCURVE",
"54 33 OFFCURVE",
"-6 33 CURVE",
"-6 0 LINE"
);
},
{
closed = 1;
nodes = (
"249 460 LINE",
"263 498 OFFCURVE",
"277 535 OFFCURVE",
"291 573 CURVE",
"293 573 LINE",
"308 532 OFFCURVE",
"323 491 OFFCURVE",
"338 450 CURVE",
"409 259 LINE",
"178 259 LINE"
);
},
{
closed = 1;
nodes = (
"436 775 LINE",
"314 891 LINE",
"313 891 LINE",
"184 774 LINE",
"205 750 LINE",
"310 819 LINE",
"417 750 LINE"
);
},
{
closed = 1;
nodes = (
"467 1014 LINE",
"451 985 OFFCURVE",
"423 966 OFFCURVE",
"394 966 CURVE SMOOTH",
"350 966 OFFCURVE",
"325 1021 OFFCURVE",
"262 1019 CURVE SMOOTH",
"225 1018 OFFCURVE",
"177 980 OFFCURVE",
"160 933 CURVE",
"190 916 LINE",
"209 946 OFFCURVE",
"239 958 OFFCURVE",
"263 958 CURVE SMOOTH",
"300 958 OFFCURVE",
"332 904 OFFCURVE",
"394 904 CURVE SMOOTH",
"429 904 OFFCURVE",
"474 933 OFFCURVE",
"496 999 CURVE"
);
}
);
};
components = (
{
name = A;
},
{
name = circumflexcomb_tildecomb.case;
transform = "{1, 0, 0, 1, 92, 192}";
}
);
layerId = UUID0;
width = 626;
},
{
background = {
anchors = (
{
name = bottom;
position = "{334, 0}";
},
{
name = ogonek;
position = "{601, 0}";
},
{
name = top;
position = "{329, 700}";
}
);
paths = (
{
closed = 1;
nodes = (
"218 0 LINE",
"218 80 LINE",
"204 80 OFFCURVE",
"168 79 OFFCURVE",
"147 77 CURVE",
"158 100 OFFCURVE",
"172 140 OFFCURVE",
"179 158 CURVE SMOOTH",
"195 205 LINE",
"412 209 LINE",
"432 154 LINE SMOOTH",
"451 104 OFFCURVE",
"450 66 OFFCURVE",
"395 66 CURVE",
"395 0 LINE",
"664 0 LINE",
"664 77 LINE",
"650 77 OFFCURVE",
"628 76 OFFCURVE",
"606 74 CURVE",
"603 104 OFFCURVE",
"586 153 OFFCURVE",
"578 173 CURVE SMOOTH",
"365 718 LINE",
"295 718 LINE",
"100 183 LINE SMOOTH",
"78 123 OFFCURVE",
"60 69 OFFCURVE",
"4 69 CURVE",
"4 0 LINE"
);
},
{
closed = 1;
nodes = (
"265 410 LINE SMOOTH",
"287 472 OFFCURVE",
"297 519 OFFCURVE",
"302 542 CURVE",
"303 542 LINE",
"309 505 OFFCURVE",
"324 453 OFFCURVE",
"341 405 CURVE SMOOTH",
"387 280 LINE",
"220 280 LINE"
);
},
{
closed = 1;
nodes = (
"471 800 LINE",
"341 924 LINE",
"326 924 LINE",
"189 800 LINE",
"212 763 LINE",
"330 834 LINE",
"445 762 LINE"
);
},
{
closed = 1;
nodes = (
"470 1101 LINE",
"453 1070 OFFCURVE",
"431 1051 OFFCURVE",
"408 1051 CURVE SMOOTH",
"360 1051 OFFCURVE",
"348 1089 OFFCURVE",
"286 1089 CURVE SMOOTH",
"241 1089 OFFCURVE",
"191 1047 OFFCURVE",
"169 986 CURVE",
"225 953 LINE",
"245 985 OFFCURVE",
"271 994 OFFCURVE",
"287 994 CURVE SMOOTH",
"327 994 OFFCURVE",
"354 955 OFFCURVE",
"408 955 CURVE SMOOTH",
"448 955 OFFCURVE",
"499 989 OFFCURVE",
"527 1072 CURVE"
);
}
);
};
components = (
{
name = A;
},
{
name = circumflexcomb_tildecomb.case;
transform = "{1, 0, 0, 1, 31, 213}";
}
);
layerId = "4C2B4986-1645-43C1-94B7-5E4C57EFF0D9";
width = 668;
}
);
unicode = 1EAA;
},
{
glyphname = Adieresis;
layers = (
{
background = {
anchors = (
{
name = bottom;
position = "{313, 0}";
},
{
name = ogonek;
position = "{563, 0}";
},
{
name = top;
position = "{309, 903}";
}
);
paths = (
{
closed = 1;
nodes = (
"181 0 LINE",
"181 44 LINE",
"155 43 OFFCURVE",
"129 41 OFFCURVE",
"103 40 CURVE",
"112 62 OFFCURVE",
"118 77 OFFCURVE",
"128 109 CURVE",
"163 216 LINE",
"423 222 LINE",
"458 128 LINE SMOOTH",
"472 91 OFFCURVE",
"484 35 OFFCURVE",
"409 33 CURVE",
"409 0 LINE",
"638 0 LINE",
"638 44 LINE",
"615 43 OFFCURVE",
"593 41 OFFCURVE",
"570 40 CURVE",
"572 70 OFFCURVE",
"555 122 OFFCURVE",
"544 150 CURVE SMOOTH",
"321 719 LINE",
"297 719 LINE",
"91 158 LINE SMOOTH",
"63 84 OFFCURVE",
"54 33 OFFCURVE",
"-6 33 CURVE",
"-6 0 LINE"
);
},
{
closed = 1;
nodes = (
"249 460 LINE",
"263 498 OFFCURVE",
"277 535 OFFCURVE",
"291 573 CURVE",
"293 573 LINE",
"308 532 OFFCURVE",
"323 491 OFFCURVE",
"338 450 CURVE",
"409 259 LINE",
"178 259 LINE"
);
},
{
closed = 1;
nodes = (
"248 776 OFFCURVE",
"274 804 OFFCURVE",
"274 839 CURVE SMOOTH",
"274 875 OFFCURVE",
"250 903 OFFCURVE",
"220 903 CURVE SMOOTH",
"191 903 OFFCURVE",
"165 875 OFFCURVE",
"165 839 CURVE SMOOTH",
"165 804 OFFCURVE",
"190 776 OFFCURVE",
"219 776 CURVE SMOOTH"
);
},
{
closed = 1;
nodes = (
"428 776 OFFCURVE",
"453 804 OFFCURVE",
"453 839 CURVE SMOOTH",
"453 875 OFFCURVE",
"430 903 OFFCURVE",
"400 903 CURVE SMOOTH",
"370 903 OFFCURVE",
"345 875 OFFCURVE",
"345 839 CURVE SMOOTH",
"345 804 OFFCURVE",
"370 776 OFFCURVE",
"399 776 CURVE SMOOTH"
);
}
);
};
components = (
{
name = A;
},
{
name = dieresiscomb.case;
transform = "{1, 0, 0, 1, 120, 0}";
}
);
layerId = UUID0;
width = 626;
},
{
background = {
anchors = (
{
name = bottom;
position = "{334, 0}";
},
{
name = ogonek;
position = "{601, 0}";
},
{
name = top;
position = "{329, 949}";
}
);
paths = (
{
closed = 1;
nodes = (
"218 0 LINE",
"218 80 LINE",
"204 80 OFFCURVE",
"168 79 OFFCURVE",
"147 77 CURVE",
"158 100 OFFCURVE",
"172 140 OFFCURVE",
"179 158 CURVE SMOOTH",
"195 205 LINE",
"412 209 LINE",
"432 154 LINE SMOOTH",
"451 104 OFFCURVE",
"450 66 OFFCURVE",
"395 66 CURVE",
"395 0 LINE",
"664 0 LINE",
"664 77 LINE",
"650 77 OFFCURVE",
"628 76 OFFCURVE",
"606 74 CURVE",
"603 104 OFFCURVE",
"586 153 OFFCURVE",
"578 173 CURVE SMOOTH",
"365 718 LINE",
"295 718 LINE",
"100 183 LINE SMOOTH",
"78 123 OFFCURVE",
"60 69 OFFCURVE",
"4 69 CURVE",
"4 0 LINE"
);
},
{
closed = 1;
nodes = (
"265 410 LINE SMOOTH",
"287 472 OFFCURVE",
"297 519 OFFCURVE",
"302 542 CURVE",
"303 542 LINE",
"309 505 OFFCURVE",
"324 453 OFFCURVE",
"341 405 CURVE SMOOTH",
"387 280 LINE",
"220 280 LINE"
);
},
{
closed = 1;
nodes = (
"278 797 OFFCURVE",
"309 830 OFFCURVE",
"309 872 CURVE SMOOTH",
"309 914 OFFCURVE",
"280 949 OFFCURVE",
"243 949 CURVE SMOOTH",
"207 949 OFFCURVE",
"175 914 OFFCURVE",
"175 872 CURVE SMOOTH",
"175 830 OFFCURVE",
"206 797 OFFCURVE",
"242 797 CURVE SMOOTH"
);
},
{
closed = 1;
nodes = (
"452 797 OFFCURVE",
"483 830 OFFCURVE",
"483 872 CURVE SMOOTH",
"483 914 OFFCURVE",
"455 949 OFFCURVE",
"417 949 CURVE SMOOTH",
"382 949 OFFCURVE",
"350 914 OFFCURVE",
"350 872 CURVE SMOOTH",
"350 830 OFFCURVE",
"381 797 OFFCURVE",
"416 797 CURVE SMOOTH"
);
}
);
};
components = (
{
name = A;
},
{
name = dieresiscomb.case;
transform = "{1, 0, 0, 1, 132, 0}";
}
);
layerId = "4C2B4986-1645-43C1-94B7-5E4C57EFF0D9";
width = 668;
}
);
leftKerningGroup = A;
rightKerningGroup = A;
unicode = 00C4;
},
{
glyphname = Adotbelow;
layers = (
{
background = {
anchors = (
{
name = bottom;
position = "{313, -184}";
},
{
name = ogonek;
position = "{563, 0}";
},
{
name = top;
position = "{309, 700}";
}
);
paths = (
{
closed = 1;
nodes = (
"181 0 LINE",
"181 44 LINE",
"155 43 OFFCURVE",
"129 41 OFFCURVE",
"103 40 CURVE",
"112 62 OFFCURVE",
"118 77 OFFCURVE",
"128 109 CURVE",
"163 216 LINE",
"423 222 LINE",
"458 128 LINE SMOOTH",
"472 91 OFFCURVE",
"484 35 OFFCURVE",
"409 33 CURVE",
"409 0 LINE",
"638 0 LINE",
"638 44 LINE",
"615 43 OFFCURVE",
"593 41 OFFCURVE",
"570 40 CURVE",
"572 70 OFFCURVE",
"555 122 OFFCURVE",
"544 150 CURVE SMOOTH",
"321 719 LINE",
"297 719 LINE",
"91 158 LINE SMOOTH",
"63 84 OFFCURVE",
"54 33 OFFCURVE",
"-6 33 CURVE",
"-6 0 LINE"
);
},
{
closed = 1;
nodes = (
"249 460 LINE",
"263 498 OFFCURVE",
"277 535 OFFCURVE",
"291 573 CURVE",
"293 573 LINE",
"308 532 OFFCURVE",
"323 491 OFFCURVE",
"338 450 CURVE",
"409 259 LINE",
"178 259 LINE"
);
},
{
closed = 1;
nodes = (
"338 -184 OFFCURVE",
"362 -161 OFFCURVE",
"362 -131 CURVE SMOOTH",
"362 -102 OFFCURVE",
"341 -78 OFFCURVE",
"314 -78 CURVE SMOOTH",
"288 -78 OFFCURVE",
"265 -102 OFFCURVE",
"265 -131 CURVE SMOOTH",
"265 -161 OFFCURVE",
"287 -184 OFFCURVE",
"313 -184 CURVE SMOOTH"
);
}
);
};
components = (
{
name = A;
},
{
name = dotbelowcomb;
transform = "{1, 0, 0, 1, 191, 0}";
}
);
layerId = UUID0;
width = 626;
},
{
background = {
anchors = (
{
name = bottom;
position = "{334, -227}";
},
{
name = ogonek;
position = "{601, 0}";
},
{
name = top;
position = "{329, 700}";
}
);
paths = (
{
closed = 1;
nodes = (
"218 0 LINE",
"218 80 LINE",
"204 80 OFFCURVE",
"168 79 OFFCURVE",
"147 77 CURVE",
"158 100 OFFCURVE",
"172 140 OFFCURVE",
"179 158 CURVE SMOOTH",
"195 205 LINE",
"412 209 LINE",
"432 154 LINE SMOOTH",
"451 104 OFFCURVE",
"450 66 OFFCURVE",
"395 66 CURVE",
"395 0 LINE",
"664 0 LINE",
"664 77 LINE",
"650 77 OFFCURVE",
"628 76 OFFCURVE",
"606 74 CURVE",
"603 104 OFFCURVE",
"586 153 OFFCURVE",
"578 173 CURVE SMOOTH",
"365 718 LINE",
"295 718 LINE",
"100 183 LINE SMOOTH",
"78 123 OFFCURVE",
"60 69 OFFCURVE",
"4 69 CURVE",
"4 0 LINE"
);
},
{
closed = 1;
nodes = (
"265 410 LINE SMOOTH",
"287 472 OFFCURVE",
"297 519 OFFCURVE",
"302 542 CURVE",
"303 542 LINE",
"309 505 OFFCURVE",
"324 453 OFFCURVE",
"341 405 CURVE SMOOTH",
"387 280 LINE",
"220 280 LINE"
);
},
{
closed = 1;
nodes = (
"371 -191 OFFCURVE",
"394 -162 OFFCURVE",
"394 -127 CURVE SMOOTH",
"394 -91 OFFCURVE",
"369 -62 OFFCURVE",
"335 -62 CURVE SMOOTH",
"302 -62 OFFCURVE",
"274 -91 OFFCURVE",
"274 -127 CURVE SMOOTH",
"274 -162 OFFCURVE",
"299 -191 OFFCURVE",
"336 -191 CURVE SMOOTH"
);
}
);
};
components = (
{
name = A;
},
{
name = dotbelowcomb;
transform = "{1, 0, 0, 1, 217, 0}";
}
);
layerId = "4C2B4986-1645-43C1-94B7-5E4C57EFF0D9";
width = 668;
}
);
unicode = 1EA0;
},
{
glyphname = Agrave;
layers = (
{
background = {
anchors = (
{
name = bottom;
position = "{313, 0}";
},
{
name = ogonek;
position = "{563, 0}";
},
{
name = top;
position = "{309, 700}";
}
);
paths = (
{
closed = 1;
nodes = (
"181 0 LINE",
"181 44 LINE",
"155 43 OFFCURVE",
"129 41 OFFCURVE",
"103 40 CURVE",
"112 62 OFFCURVE",
"118 77 OFFCURVE",
"128 109 CURVE",
"163 216 LINE",
"423 222 LINE",
"458 128 LINE SMOOTH",
"472 91 OFFCURVE",
"484 35 OFFCURVE",
"409 33 CURVE",
"409 0 LINE",
"638 0 LINE",
"638 44 LINE",
"615 43 OFFCURVE",
"593 41 OFFCURVE",
"570 40 CURVE",
"572 70 OFFCURVE",
"555 122 OFFCURVE",
"544 150 CURVE SMOOTH",
"321 719 LINE",
"297 719 LINE",
"91 158 LINE SMOOTH",
"63 84 OFFCURVE",
"54 33 OFFCURVE",
"-6 33 CURVE",
"-6 0 LINE"
);
},
{
closed = 1;
nodes = (
"249 460 LINE",
"263 498 OFFCURVE",
"277 535 OFFCURVE",
"291 573 CURVE",
"293 573 LINE",
"308 532 OFFCURVE",
"323 491 OFFCURVE",
"338 450 CURVE",
"409 259 LINE",
"178 259 LINE"
);
},
{
closed = 1;
nodes = (
"367 789 LINE",
"241 909 LINE SMOOTH",
"202 943 OFFCURVE",
"177 919 OFFCURVE",
"174 914 CURVE SMOOTH",
"168 905 OFFCURVE",
"155 877 OFFCURVE",
"200 849 CURVE SMOOTH",
"345 760 LINE"
);
}
);
};
components = (
{
name = A;
},
{
name = gravecomb.case;
transform = "{1, 0, 0, 1, 122, 0}";
}
);
layerId = UUID0;
width = 626;
},
{
background = {
anchors = (
{
name = bottom;
position = "{334, 0}";
},
{
name = ogonek;
position = "{601, 0}";
},
{
name = top;
position = "{329, 700}";
}
);
paths = (
{
closed = 1;
nodes = (
"218 0 LINE",
"218 80 LINE",
"204 80 OFFCURVE",
"168 79 OFFCURVE",
"147 77 CURVE",
"158 100 OFFCURVE",
"172 140 OFFCURVE",
"179 158 CURVE SMOOTH",
"195 205 LINE",
"412 209 LINE",
"432 154 LINE SMOOTH",
"451 104 OFFCURVE",
"450 66 OFFCURVE",
"395 66 CURVE",
"395 0 LINE",
"664 0 LINE",
"664 77 LINE",
"650 77 OFFCURVE",
"628 76 OFFCURVE",
"606 74 CURVE",
"603 104 OFFCURVE",
"586 153 OFFCURVE",
"578 173 CURVE SMOOTH",
"365 718 LINE",
"295 718 LINE",
"100 183 LINE SMOOTH",
"78 123 OFFCURVE",
"60 69 OFFCURVE",
"4 69 CURVE",
"4 0 LINE"
);
},
{
closed = 1;
nodes = (
"265 410 LINE SMOOTH",
"287 472 OFFCURVE",
"297 519 OFFCURVE",
"302 542 CURVE",
"303 542 LINE",
"309 505 OFFCURVE",
"324 453 OFFCURVE",
"341 405 CURVE SMOOTH",
"387 280 LINE",
"220 280 LINE"
);
},
{
closed = 1;
nodes = (
"388 799 LINE",
"277 917 LINE SMOOTH",
"249 945 OFFCURVE",
"205 952 OFFCURVE",
"180 919 CURVE SMOOTH",
"157 885 OFFCURVE",
"179 845 OFFCURVE",
"210 825 CURVE SMOOTH",
"352 750 LINE"
);
}
);
};
components = (
{
name = A;
},
{
name = gravecomb.case;
transform = "{1, 0, 0, 1, 137, 0}";
}
);
layerId = "4C2B4986-1645-43C1-94B7-5E4C57EFF0D9";
width = 668;
}
);
leftKerningGroup = A;
rightKerningGroup = A;
unicode = 00C0;
},
{
glyphname = Ahookabove;
layers = (
{
background = {
anchors = (
{
name = bottom;
position = "{313, 0}";
},
{
name = ogonek;
position = "{563, 0}";
},
{
name = top;
position = "{301, 970}";
}
);
paths = (
{
closed = 1;
nodes = (
"181 0 LINE",
"181 44 LINE",
"155 43 OFFCURVE",
"129 41 OFFCURVE",
"103 40 CURVE",
"112 62 OFFCURVE",
"118 77 OFFCURVE",
"128 109 CURVE",
"163 216 LINE",
"423 222 LINE",
"458 128 LINE SMOOTH",
"472 91 OFFCURVE",
"484 35 OFFCURVE",
"409 33 CURVE",
"409 0 LINE",
"638 0 LINE",
"638 44 LINE",
"615 43 OFFCURVE",
"593 41 OFFCURVE",
"570 40 CURVE",
"572 70 OFFCURVE",
"555 122 OFFCURVE",
"544 150 CURVE SMOOTH",
"321 719 LINE",
"297 719 LINE",
"91 158 LINE SMOOTH",
"63 84 OFFCURVE",
"54 33 OFFCURVE",
"-6 33 CURVE",
"-6 0 LINE"
);
},
{
closed = 1;
nodes = (
"249 460 LINE",
"263 498 OFFCURVE",
"277 535 OFFCURVE",
"291 573 CURVE",
"293 573 LINE",
"308 532 OFFCURVE",
"323 491 OFFCURVE",
"338 450 CURVE",
"409 259 LINE",
"178 259 LINE"
);
},
{
closed = 1;
nodes = (
"334 766 LINE",
"334 777 OFFCURVE",
"348 786 OFFCURVE",
"364 798 CURVE SMOOTH",
"388 817 OFFCURVE",
"405 833 OFFCURVE",
"405 867 CURVE SMOOTH",
"405 907 OFFCURVE",
"366 948 OFFCURVE",
"296 948 CURVE SMOOTH",
"229 948 OFFCURVE",
"192 912 OFFCURVE",
"192 878 CURVE SMOOTH",
"192 851 OFFCURVE",
"209 840 OFFCURVE",
"225 840 CURVE SMOOTH",
"241 840 OFFCURVE",
"256 850 OFFCURVE",
"256 866 CURVE SMOOTH",
"256 872 OFFCURVE",
"253 878 OFFCURVE",
"250 882 CURVE",
"252 896 OFFCURVE",
"273 912 OFFCURVE",
"297 912 CURVE SMOOTH",
"330 912 OFFCURVE",
"350 887 OFFCURVE",
"350 860 CURVE SMOOTH",
"350 846 OFFCURVE",
"344 830 OFFCURVE",
"331 819 CURVE SMOOTH",
"314 804 OFFCURVE",
"293 790 OFFCURVE",
"293 766 CURVE"
);
}
);
};
components = (
{
name = A;
},
{
name = hookabovecomb;
transform = "{1, 0, 0, 1, 75, 200}";
}
);
layerId = UUID0;
width = 626;
},
{
background = {
anchors = (
{
name = bottom;
position = "{334, 0}";
},
{
name = ogonek;
position = "{601, 0}";
},
{
name = top;
position = "{329, 970}";
}
);
paths = (
{
closed = 1;
nodes = (
"218 0 LINE",
"218 80 LINE",
"204 80 OFFCURVE",
"168 79 OFFCURVE",
"147 77 CURVE",
"158 100 OFFCURVE",
"172 140 OFFCURVE",
"179 158 CURVE SMOOTH",
"195 205 LINE",
"412 209 LINE",
"432 154 LINE SMOOTH",
"451 104 OFFCURVE",
"450 66 OFFCURVE",
"395 66 CURVE",
"395 0 LINE",
"664 0 LINE",
"664 77 LINE",
"650 77 OFFCURVE",
"628 76 OFFCURVE",
"606 74 CURVE",
"603 104 OFFCURVE",
"586 153 OFFCURVE",
"578 173 CURVE SMOOTH",
"365 718 LINE",
"295 718 LINE",
"100 183 LINE SMOOTH",
"78 123 OFFCURVE",
"60 69 OFFCURVE",
"4 69 CURVE",
"4 0 LINE"
);
},
{
closed = 1;
nodes = (
"265 410 LINE SMOOTH",
"287 472 OFFCURVE",
"297 519 OFFCURVE",
"302 542 CURVE",
"303 542 LINE",
"309 505 OFFCURVE",
"324 453 OFFCURVE",
"341 405 CURVE SMOOTH",
"387 280 LINE",
"220 280 LINE"
);
},
{
closed = 1;
nodes = (
"371 759 LINE",
"371 771 OFFCURVE",
"382 785 OFFCURVE",
"398 798 CURVE SMOOTH",
"419 811 OFFCURVE",
"440 828 OFFCURVE",
"440 864 CURVE SMOOTH",
"440 921 OFFCURVE",
"394 957 OFFCURVE",
"315 957 CURVE SMOOTH",
"244 957 OFFCURVE",
"203 908 OFFCURVE",
"203 863 CURVE SMOOTH",
"203 835 OFFCURVE",
"224 812 OFFCURVE",
"255 812 CURVE SMOOTH",
"278 812 OFFCURVE",
"290 828 OFFCURVE",
"290 843 CURVE SMOOTH",
"290 857 OFFCURVE",
"280 870 OFFCURVE",
"260 870 CURVE",
"262 879 OFFCURVE",
"277 897 OFFCURVE",
"315 897 CURVE SMOOTH",
"343 897 OFFCURVE",
"365 883 OFFCURVE",
"365 855 CURVE SMOOTH",
"365 838 OFFCURVE",
"357 826 OFFCURVE",
"348 816 CURVE SMOOTH",
"331 799 OFFCURVE",
"309 787 OFFCURVE",
"309 759 CURVE"
);
}
);
};
components = (
{
name = A;
},
{
name = hookabovecomb;
transform = "{1, 0, 0, 1, 37, 200}";
}
);
layerId = "4C2B4986-1645-43C1-94B7-5E4C57EFF0D9";
width = 668;
}
);
unicode = 1EA2;
},
{
glyphname = Amacron;
layers = (
{
background = {
anchors = (
{
name = bottom;
position = "{313, 0}";
},
{
name = ogonek;
position = "{563, 0}";
},
{
name = top;
position = "{309, 700}";
}
);
paths = (
{
closed = 1;
nodes = (
"181 0 LINE",
"181 44 LINE",
"155 43 OFFCURVE",
"129 41 OFFCURVE",
"103 40 CURVE",
"112 62 OFFCURVE",
"118 77 OFFCURVE",
"128 109 CURVE",
"163 216 LINE",
"423 222 LINE",
"458 128 LINE SMOOTH",
"472 91 OFFCURVE",
"484 35 OFFCURVE",
"409 33 CURVE",
"409 0 LINE",
"638 0 LINE",
"638 44 LINE",
"615 43 OFFCURVE",
"593 41 OFFCURVE",
"570 40 CURVE",
"572 70 OFFCURVE",
"555 122 OFFCURVE",
"544 150 CURVE SMOOTH",
"321 719 LINE",
"297 719 LINE",
"91 158 LINE SMOOTH",
"63 84 OFFCURVE",
"54 33 OFFCURVE",
"-6 33 CURVE",
"-6 0 LINE"
);
},
{
closed = 1;
nodes = (
"249 460 LINE",
"263 498 OFFCURVE",
"277 535 OFFCURVE",
"291 573 CURVE",
"293 573 LINE",
"308 532 OFFCURVE",
"323 491 OFFCURVE",
"338 450 CURVE",
"409 259 LINE",
"178 259 LINE"
);
},
{
closed = 1;
nodes = (
"441 844 LINE",
"441 900 LINE",
"176 900 LINE",
"176 840 LINE"
);
}
);
};
components = (
{
name = A;
},
{
name = macroncomb;
transform = "{1, 0, 0, 1, 131, 200}";
}
);
layerId = UUID0;
width = 626;
},
{
background = {
anchors = (
{
name = bottom;
position = "{334, 0}";
},
{
name = ogonek;
position = "{601, 0}";
},
{
name = top;
position = "{329, 700}";
}
);
paths = (
{
closed = 1;
nodes = (
"218 0 LINE",
"218 80 LINE",
"204 80 OFFCURVE",
"168 79 OFFCURVE",
"147 77 CURVE",
"158 100 OFFCURVE",
"172 140 OFFCURVE",
"179 158 CURVE SMOOTH",
"195 205 LINE",
"412 209 LINE",
"432 154 LINE SMOOTH",
"451 104 OFFCURVE",
"450 66 OFFCURVE",
"395 66 CURVE",
"395 0 LINE",
"664 0 LINE",
"664 77 LINE",
"650 77 OFFCURVE",
"628 76 OFFCURVE",
"606 74 CURVE",
"603 104 OFFCURVE",
"586 153 OFFCURVE",
"578 173 CURVE SMOOTH",
"365 718 LINE",
"295 718 LINE",
"100 183 LINE SMOOTH",
"78 123 OFFCURVE",
"60 69 OFFCURVE",
"4 69 CURVE",
"4 0 LINE"
);
},
{
closed = 1;
nodes = (
"265 410 LINE SMOOTH",
"287 472 OFFCURVE",
"297 519 OFFCURVE",
"302 542 CURVE",
"303 542 LINE",
"309 505 OFFCURVE",
"324 453 OFFCURVE",
"341 405 CURVE SMOOTH",
"387 280 LINE",
"220 280 LINE"
);
},
{
closed = 1;
nodes = (
"471 831 LINE",
"471 923 LINE",
"187 923 LINE",
"187 827 LINE"
);
}
);
};
components = (
{
name = A;
},
{
name = macroncomb;
transform = "{1, 0, 0, 1, 142, 200}";
}
);
layerId = "4C2B4986-1645-43C1-94B7-5E4C57EFF0D9";
width = 668;
}
);
leftKerningGroup = A;
rightKerningGroup = A;
unicode = 0100;
},
{
glyphname = Aogonek;
layers = (
{
background = {
anchors = (
{
name = bottom;
position = "{313, 0}";
},
{
name = ogonek;
position = "{563, 0}";
},
{
name = top;
position = "{309, 700}";
}
);
paths = (
{
closed = 1;
nodes = (
"181 0 LINE",
"181 44 LINE",
"155 43 OFFCURVE",
"129 41 OFFCURVE",
"103 40 CURVE",
"112 62 OFFCURVE",
"118 77 OFFCURVE",
"128 109 CURVE",
"163 216 LINE",
"423 222 LINE",
"458 128 LINE SMOOTH",
"472 91 OFFCURVE",
"484 35 OFFCURVE",
"409 33 CURVE",
"409 0 LINE",
"638 0 LINE",
"638 44 LINE",
"615 43 OFFCURVE",
"593 41 OFFCURVE",
"570 40 CURVE",
"572 70 OFFCURVE",
"555 122 OFFCURVE",
"544 150 CURVE SMOOTH",
"321 719 LINE",
"297 719 LINE",
"91 158 LINE SMOOTH",
"63 84 OFFCURVE",
"54 33 OFFCURVE",
"-6 33 CURVE",
"-6 0 LINE"
);
},
{
closed = 1;
nodes = (
"249 460 LINE",
"263 498 OFFCURVE",
"277 535 OFFCURVE",
"291 573 CURVE",
"293 573 LINE",
"308 532 OFFCURVE",
"323 491 OFFCURVE",
"338 450 CURVE",
"409 259 LINE",
"178 259 LINE"
);
},
{
closed = 1;
nodes = (
"505 -259 OFFCURVE",
"550 -228 OFFCURVE",
"576 -196 CURVE",
"559 -178 LINE",
"540 -194 OFFCURVE",
"518 -206 OFFCURVE",
"494 -206 CURVE SMOOTH",
"461 -206 OFFCURVE",
"432 -179 OFFCURVE",
"432 -137 CURVE SMOOTH",
"432 -71 OFFCURVE",
"493 -25 OFFCURVE",
"564 0 CURVE",
"564 26 LINE",
"462 -3 OFFCURVE",
"351 -71 OFFCURVE",
"351 -157 CURVE SMOOTH",
"351 -217 OFFCURVE",
"393 -259 OFFCURVE",
"457 -259 CURVE SMOOTH"
);
}
);
};
components = (
{
name = A;
},
{
name = ogonekcomb;
transform = "{1, 0, 0, 1, 306, 0}";
}
);
layerId = UUID0;
width = 626;
},
{
background = {
anchors = (
{
name = bottom;
position = "{334, 0}";
},
{
name = ogonek;
position = "{601, 0}";
},
{
name = top;
position = "{329, 700}";
}
);
paths = (
{
closed = 1;
nodes = (
"218 0 LINE",
"218 80 LINE",
"204 80 OFFCURVE",
"168 79 OFFCURVE",
"147 77 CURVE",
"158 100 OFFCURVE",
"172 140 OFFCURVE",
"179 158 CURVE SMOOTH",
"195 205 LINE",
"412 209 LINE",
"432 154 LINE SMOOTH",
"451 104 OFFCURVE",
"450 66 OFFCURVE",
"395 66 CURVE",
"395 0 LINE",
"664 0 LINE",
"664 77 LINE",
"650 77 OFFCURVE",
"628 76 OFFCURVE",
"606 74 CURVE",
"603 104 OFFCURVE",
"586 153 OFFCURVE",
"578 173 CURVE SMOOTH",
"365 718 LINE",
"295 718 LINE",
"100 183 LINE SMOOTH",
"78 123 OFFCURVE",
"60 69 OFFCURVE",
"4 69 CURVE",
"4 0 LINE"
);
},
{
closed = 1;
nodes = (
"265 410 LINE SMOOTH",
"287 472 OFFCURVE",
"297 519 OFFCURVE",
"302 542 CURVE",
"303 542 LINE",
"309 505 OFFCURVE",
"324 453 OFFCURVE",
"341 405 CURVE SMOOTH",
"387 280 LINE",
"220 280 LINE"
);
},
{
closed = 1;
nodes = (
"530 -266 OFFCURVE",
"579 -235 OFFCURVE",
"614 -189 CURVE",
"579 -146 LINE",
"558 -165 OFFCURVE",
"536 -175 OFFCURVE",
"517 -175 CURVE SMOOTH",
"490 -175 OFFCURVE",
"474 -159 OFFCURVE",
"473 -135 CURVE SMOOTH",
"471 -79 OFFCURVE",
"537 -27 OFFCURVE",
"600 -1 CURVE",
"600 45 LINE",
"485 11 OFFCURVE",
"374 -70 OFFCURVE",
"374 -163 CURVE SMOOTH",
"374 -231 OFFCURVE",
"418 -266 OFFCURVE",
"482 -266 CURVE SMOOTH"
);
}
);
};
components = (
{
name = A;
},
{
name = ogonekcomb;
transform = "{1, 0, 0, 1, 330, 0}";
}
);
layerId = "4C2B4986-1645-43C1-94B7-5E4C57EFF0D9";
width = 668;
}
);
leftKerningGroup = A;
rightKerningGroup = A;
unicode = 0104;
},
{
glyphname = Aring;
layers = (
{
background = {
anchors = (
{
name = bottom;
position = "{313, 0}";
},
{
name = ogonek;
position = "{563, 0}";
},
{
name = top;
position = "{309, 936}";
}
);
paths = (
{
closed = 1;
nodes = (
"181 0 LINE",
"181 44 LINE",
"155 43 OFFCURVE",
"129 41 OFFCURVE",
"103 40 CURVE",
"112 62 OFFCURVE",
"118 77 OFFCURVE",
"128 109 CURVE",
"163 216 LINE",
"423 222 LINE",
"458 128 LINE SMOOTH",
"472 91 OFFCURVE",
"484 35 OFFCURVE",
"409 33 CURVE",
"409 0 LINE",
"638 0 LINE",
"638 44 LINE",
"615 43 OFFCURVE",
"593 41 OFFCURVE",
"570 40 CURVE",
"572 70 OFFCURVE",
"555 122 OFFCURVE",
"544 150 CURVE SMOOTH",
"321 719 LINE",
"297 719 LINE",
"91 158 LINE SMOOTH",
"63 84 OFFCURVE",
"54 33 OFFCURVE",
"-6 33 CURVE",
"-6 0 LINE"
);
},
{
closed = 1;
nodes = (
"249 460 LINE",
"263 498 OFFCURVE",
"277 535 OFFCURVE",
"291 573 CURVE",
"293 573 LINE",
"308 532 OFFCURVE",
"323 491 OFFCURVE",
"338 450 CURVE",
"409 259 LINE",
"178 259 LINE"
);
},
{
closed = 1;
nodes = (
"366 715 OFFCURVE",
"425 760 OFFCURVE",
"423 832 CURVE SMOOTH",
"420 904 OFFCURVE",
"362 936 OFFCURVE",
"308 936 CURVE SMOOTH",
"251 936 OFFCURVE",
"193 889 OFFCURVE",
"195 820 CURVE SMOOTH",
"198 747 OFFCURVE",
"254 715 OFFCURVE",
"310 715 CURVE SMOOTH"
);
},
{
closed = 1;
nodes = (
"277 749 OFFCURVE",
"253 781 OFFCURVE",
"253 830 CURVE SMOOTH",
"253 872 OFFCURVE",
"274 900 OFFCURVE",
"305 902 CURVE SMOOTH",
"339 904 OFFCURVE",
"365 875 OFFCURVE",
"365 818 CURVE SMOOTH",
"365 777 OFFCURVE",
"341 751 OFFCURVE",
"314 750 CURVE SMOOTH"
);
}
);
};
components = (
{
name = A;
},
{
name = ringcomb.case;
transform = "{1, 0, 0, 1, 149, 0}";
}
);
layerId = UUID0;
width = 626;
},
{
background = {
anchors = (
{
name = bottom;
position = "{334, 0}";
},
{
name = ogonek;
position = "{601, 0}";
},
{
name = top;
position = "{329, 1006}";
}
);
paths = (
{
closed = 1;
nodes = (
"218 0 LINE",
"218 80 LINE",
"204 80 OFFCURVE",
"168 79 OFFCURVE",
"147 77 CURVE",
"158 100 OFFCURVE",
"172 140 OFFCURVE",
"179 158 CURVE SMOOTH",
"195 205 LINE",
"412 209 LINE",
"432 154 LINE SMOOTH",
"451 104 OFFCURVE",
"450 66 OFFCURVE",
"395 66 CURVE",
"395 0 LINE",
"664 0 LINE",
"664 77 LINE",
"650 77 OFFCURVE",
"628 76 OFFCURVE",
"606 74 CURVE",
"603 104 OFFCURVE",
"586 153 OFFCURVE",
"578 173 CURVE SMOOTH",
"365 718 LINE",
"295 718 LINE",
"100 183 LINE SMOOTH",
"78 123 OFFCURVE",
"60 69 OFFCURVE",
"4 69 CURVE",
"4 0 LINE"
);
},
{
closed = 1;
nodes = (
"265 410 LINE SMOOTH",
"287 472 OFFCURVE",
"297 519 OFFCURVE",
"302 542 CURVE",
"303 542 LINE",
"309 505 OFFCURVE",
"324 453 OFFCURVE",
"341 405 CURVE SMOOTH",
"387 280 LINE",
"220 280 LINE"
);
},
{
closed = 1;
nodes = (
"394 751 OFFCURVE",
"465 801 OFFCURVE",
"463 885 CURVE SMOOTH",
"459 968 OFFCURVE",
"390 1006 OFFCURVE",
"329 1006 CURVE SMOOTH",
"263 1006 OFFCURVE",
"193 952 OFFCURVE",
"196 872 CURVE SMOOTH",
"199 788 OFFCURVE",
"266 751 OFFCURVE",
"330 751 CURVE SMOOTH"
);
},
{
closed = 1;
nodes = (
"306 803 OFFCURVE",
"285 832 OFFCURVE",
"285 885 CURVE SMOOTH",
"285 926 OFFCURVE",
"301 951 OFFCURVE",
"325 953 CURVE SMOOTH",
"354 956 OFFCURVE",
"374 925 OFFCURVE",
"374 867 CURVE SMOOTH",
"374 826 OFFCURVE",
"358 806 OFFCURVE",
"336 805 CURVE SMOOTH"
);
}
);
};
components = (
{
name = A;
},
{
name = ringcomb.case;
transform = "{1, 0, 0, 1, 152, 0}";
}
);
layerId = "4C2B4986-1645-43C1-94B7-5E4C57EFF0D9";
width = 668;
}
);
leftKerningGroup = A;
rightKerningGroup = A;
unicode = 00C5;
},
{
glyphname = Atilde;
layers = (
{
background = {
anchors = (
{
name = bottom;
position = "{313, 0}";
},
{
name = ogonek;
position = "{563, 0}";
},
{
name = top;
position = "{309, 910}";
}
);
paths = (
{
closed = 1;
nodes = (
"181 0 LINE",
"181 44 LINE",
"155 43 OFFCURVE",
"129 41 OFFCURVE",
"103 40 CURVE",
"112 62 OFFCURVE",
"118 77 OFFCURVE",
"128 109 CURVE",
"163 216 LINE",
"423 222 LINE",
"458 128 LINE SMOOTH",
"472 91 OFFCURVE",
"484 35 OFFCURVE",
"409 33 CURVE",
"409 0 LINE",
"638 0 LINE",
"638 44 LINE",
"615 43 OFFCURVE",
"593 41 OFFCURVE",
"570 40 CURVE",
"572 70 OFFCURVE",
"555 122 OFFCURVE",
"544 150 CURVE SMOOTH",
"321 719 LINE",
"297 719 LINE",
"91 158 LINE SMOOTH",
"63 84 OFFCURVE",
"54 33 OFFCURVE",
"-6 33 CURVE",
"-6 0 LINE"
);
},
{
closed = 1;
nodes = (
"249 460 LINE",
"263 498 OFFCURVE",
"277 535 OFFCURVE",
"291 573 CURVE",
"293 573 LINE",
"308 532 OFFCURVE",
"323 491 OFFCURVE",
"338 450 CURVE",
"409 259 LINE",
"178 259 LINE"
);
},
{
closed = 1;
nodes = (
"470 905 LINE",
"450 870 OFFCURVE",
"425 840 OFFCURVE",
"389 840 CURVE SMOOTH",
"335 840 OFFCURVE",
"308 912 OFFCURVE",
"229 910 CURVE SMOOTH",
"187 909 OFFCURVE",
"139 865 OFFCURVE",
"116 807 CURVE",
"150 788 LINE",
"175 825 OFFCURVE",
"195 848 OFFCURVE",
"224 848 CURVE SMOOTH",
"271 848 OFFCURVE",
"306 777 OFFCURVE",
"383 777 CURVE SMOOTH",
"427 777 OFFCURVE",
"474 807 OFFCURVE",
"502 889 CURVE"
);
}
);
};
components = (
{
name = A;
},
{
name = tildecomb.case;
transform = "{1, 0, 0, 1, 71, 0}";
}
);
layerId = UUID0;
width = 626;
},
{
background = {
anchors = (
{
name = bottom;
position = "{334, 0}";
},
{
name = ogonek;
position = "{601, 0}";
},
{
name = top;
position = "{329, 954}";
}
);
paths = (
{
closed = 1;
nodes = (
"218 0 LINE",
"218 80 LINE",
"204 80 OFFCURVE",
"168 79 OFFCURVE",
"147 77 CURVE",
"158 100 OFFCURVE",
"172 140 OFFCURVE",
"179 158 CURVE SMOOTH",
"195 205 LINE",
"412 209 LINE",
"432 154 LINE SMOOTH",
"451 104 OFFCURVE",
"450 66 OFFCURVE",
"395 66 CURVE",
"395 0 LINE",
"664 0 LINE",
"664 77 LINE",
"650 77 OFFCURVE",
"628 76 OFFCURVE",
"606 74 CURVE",
"603 104 OFFCURVE",
"586 153 OFFCURVE",
"578 173 CURVE SMOOTH",
"365 718 LINE",
"295 718 LINE",
"100 183 LINE SMOOTH",
"78 123 OFFCURVE",
"60 69 OFFCURVE",
"4 69 CURVE",
"4 0 LINE"
);
},
{
closed = 1;
nodes = (
"265 410 LINE SMOOTH",
"287 472 OFFCURVE",
"297 519 OFFCURVE",
"302 542 CURVE",
"303 542 LINE",
"309 505 OFFCURVE",
"324 453 OFFCURVE",
"341 405 CURVE SMOOTH",
"387 280 LINE",
"220 280 LINE"
);
},
{
closed = 1;
nodes = (
"482 954 LINE",
"463 916 OFFCURVE",
"427 889 OFFCURVE",
"401 889 CURVE SMOOTH",
"350 889 OFFCURVE",
"320 938 OFFCURVE",
"254 938 CURVE SMOOTH",
"206 938 OFFCURVE",
"148 905 OFFCURVE",
"118 831 CURVE",
"174 794 LINE",
"200 834 OFFCURVE",
"233 846 OFFCURVE",
"258 846 CURVE SMOOTH",
"313 846 OFFCURVE",
"344 796 OFFCURVE",
"406 796 CURVE SMOOTH",
"447 796 OFFCURVE",
"503 819 OFFCURVE",
"539 922 CURVE"
);
}
);
};
components = (
{
name = A;
},
{
name = tildecomb.case;
transform = "{1, 0, 0, 1, 73, 0}";
}
);
layerId = "4C2B4986-1645-43C1-94B7-5E4C57EFF0D9";
width = 668;
}
);
leftKerningGroup = A;
rightKerningGroup = A;
unicode = 00C3;
},
{
glyphname = AE;
layers = (
{
background = {
paths = (
{
closed = 1;
nodes = (
"166 0 LINE",
"166 44 LINE",
"90 40 LINE",
"113 74 OFFCURVE",
"136 109 OFFCURVE",
"159 143 CURVE",
"208 216 LINE",
"451 221 LINE",
"451 130 LINE SMOOTH",
"451 56 OFFCURVE",
"437 40 OFFCURVE",
"382 36 CURVE",
"382 0 LINE",
"898 0 LINE",
"904 195 LINE",
"870 195 LINE",
"870 79 OFFCURVE",
"817 36 OFFCURVE",
"732 37 CURVE SMOOTH",
"535 40 LINE",
"537 57 OFFCURVE",
"538 82 OFFCURVE",
"538 118 CURVE SMOOTH",
"538 344 LINE",
"611 347 LINE SMOOTH",
"696 350 OFFCURVE",
"730 347 OFFCURVE",
"730 259 CURVE",
"763 259 LINE",
"763 469 LINE",
"719 469 LINE",
"726 383 LINE",
"538 384 LINE",
"538 544 LINE SMOOTH",
"538 625 OFFCURVE",
"539 661 OFFCURVE",
"614 663 CURVE SMOOTH",
"700 665 LINE SMOOTH",
"775 667 OFFCURVE",
"835 643 OFFCURVE",
"835 525 CURVE",
"868 525 LINE",
"863 700 LINE",
"362 700 LINE",
"362 656 LINE",
"452 660 LINE",
"91 125 LINE SMOOTH",
"64 85 OFFCURVE",
"32 33 OFFCURVE",
"-21 33 CURVE",
"-21 0 LINE"
);
},
{
closed = 1;
nodes = (
"451 582 LINE",
"451 259 LINE",
"236 259 LINE"
);
}
);
};
guideLines = (
{
angle = 90;
position = "{451, 400}";
}
);
layerId = UUID0;
paths = (
{
closed = 1;
nodes = (
"166 0 LINE",
"166 44 LINE",
"90 40 LINE",
"113 74 OFFCURVE",
"136 109 OFFCURVE",
"159 143 CURVE",
"208 216 LINE",
"451 221 LINE",
"451 130 LINE SMOOTH",
"451 56 OFFCURVE",
"437 40 OFFCURVE",
"382 36 CURVE",
"382 0 LINE",
"898 0 LINE",
"904 195 LINE",
"870 195 LINE",
"870 79 OFFCURVE",
"817 36 OFFCURVE",
"732 37 CURVE SMOOTH",
"535 40 LINE",
"537 57 OFFCURVE",
"538 82 OFFCURVE",
"538 118 CURVE SMOOTH",
"538 344 LINE",
"611 347 LINE SMOOTH",
"696 350 OFFCURVE",
"730 347 OFFCURVE",
"730 259 CURVE",
"763 259 LINE",
"763 469 LINE",
"719 469 LINE",
"726 383 LINE",
"538 384 LINE",
"538 544 LINE SMOOTH",
"538 625 OFFCURVE",
"539 661 OFFCURVE",
"614 663 CURVE SMOOTH",
"700 665 LINE SMOOTH",
"775 667 OFFCURVE",
"835 643 OFFCURVE",
"835 525 CURVE",
"868 525 LINE",
"863 700 LINE",
"362 700 LINE",
"362 656 LINE",
"452 660 LINE",
"91 125 LINE SMOOTH",
"64 85 OFFCURVE",
"32 33 OFFCURVE",
"-21 33 CURVE",
"-21 0 LINE"
);
},
{
closed = 1;
nodes = (
"451 582 LINE",
"451 259 LINE",
"236 259 LINE"
);
}
);
width = 949;
},
{
background = {
paths = (
{
closed = 1;
nodes = (
"218 0 LINE",
"218 77 LINE",
"138 75 LINE",
"159 91 OFFCURVE",
"180 120 OFFCURVE",
"201 151 CURVE SMOOTH",
"236 202 LINE",
"432 207 LINE",
"432 153 LINE SMOOTH",
"432 72 OFFCURVE",
"406 68 OFFCURVE",
"361 66 CURVE",
"361 0 LINE",
"889 0 LINE",
"895 220 LINE",
"829 220 LINE",
"829 112 OFFCURVE",
"766 76 OFFCURVE",
"707 76 CURVE SMOOTH",
"573 76 LINE",
"575 93 OFFCURVE",
"577 128 OFFCURVE",
"577 164 CURVE SMOOTH",
"577 328 LINE",
"603 329 LINE SMOOTH",
"657 330 OFFCURVE",
"701 325 OFFCURVE",
"701 241 CURVE",
"767 241 LINE",
"767 484 LINE",
"690 484 LINE",
"694 397 LINE",
"577 397 LINE",
"577 547 LINE SMOOTH",
"577 625 OFFCURVE",
"602 633 OFFCURVE",
"644 634 CURVE SMOOTH",
"680 635 LINE SMOOTH",
"734 637 OFFCURVE",
"801 615 OFFCURVE",
"801 506 CURVE",
"867 506 LINE",
"861 700 LINE",
"361 700 LINE",
"361 623 LINE",
"436 626 LINE",
"113 171 LINE SMOOTH",
"80 124 OFFCURVE",
"41 66 OFFCURVE",
"-6 66 CURVE",
"-6 0 LINE"
);
},
{
closed = 1;
nodes = (
"432 500 LINE",
"432 276 LINE",
"285 276 LINE"
);
}
);
};
guideLines = (
{
angle = 90;
position = "{432, 341}";
}
);
layerId = "4C2B4986-1645-43C1-94B7-5E4C57EFF0D9";
paths = (
{
closed = 1;
nodes = (
"218 0 LINE",
"218 77 LINE",
"138 75 LINE",
"159 91 OFFCURVE",
"180 120 OFFCURVE",
"201 151 CURVE SMOOTH",
"236 202 LINE",
"432 207 LINE",
"432 153 LINE SMOOTH",
"432 72 OFFCURVE",
"406 68 OFFCURVE",
"361 66 CURVE",
"361 0 LINE",
"889 0 LINE",
"895 220 LINE",
"829 220 LINE",
"829 112 OFFCURVE",
"766 76 OFFCURVE",
"707 76 CURVE SMOOTH",
"573 76 LINE",
"575 93 OFFCURVE",
"577 128 OFFCURVE",
"577 164 CURVE SMOOTH",
"577 328 LINE",
"603 329 LINE SMOOTH",
"657 330 OFFCURVE",
"701 325 OFFCURVE",
"701 241 CURVE",
"767 241 LINE",
"767 484 LINE",
"690 484 LINE",
"694 397 LINE",
"577 397 LINE",
"577 547 LINE SMOOTH",
"577 625 OFFCURVE",
"602 633 OFFCURVE",
"644 634 CURVE SMOOTH",
"680 635 LINE SMOOTH",
"734 637 OFFCURVE",
"801 615 OFFCURVE",
"801 506 CURVE",
"867 506 LINE",
"861 700 LINE",
"361 700 LINE",
"361 623 LINE",
"436 626 LINE",
"113 171 LINE SMOOTH",
"80 124 OFFCURVE",
"41 66 OFFCURVE",
"-6 66 CURVE",
"-6 0 LINE"
);
},
{
closed = 1;
nodes = (
"432 500 LINE",
"432 276 LINE",
"285 276 LINE"
);
}
);
width = 935;
}
);
leftKerningGroup = A;
rightKerningGroup = E;
unicode = 00C6;
},
{
glyphname = B;
layers = (
{
background = {
paths = (
{
closed = 1;
nodes = (
"347 0 LINE SMOOTH",
"482 0 OFFCURVE",
"583 73 OFFCURVE",
"583 196 CURVE SMOOTH",
"583 299 OFFCURVE",
"508 374 OFFCURVE",
"361 374 CURVE",
"361 376 LINE",
"471 396 OFFCURVE",
"525 466 OFFCURVE",
"526 531 CURVE SMOOTH",
"528 649 OFFCURVE",
"436 702 OFFCURVE",
"281 702 CURVE SMOOTH",
"201 702 OFFCURVE",
"128 701 OFFCURVE",
"55 700 CURVE",
"55 656 LINE",
"79 657 OFFCURVE",
"103 659 OFFCURVE",
"127 660 CURVE",
"125 643 OFFCURVE",
"124 617 OFFCURVE",
"124 581 CURVE SMOOTH",
"124 161 LINE SMOOTH",
"124 86 OFFCURVE",
"130 35 OFFCURVE",
"55 33 CURVE",
"55 0 LINE"
);
},
{
closed = 1;
nodes = (
"210 57 OFFCURVE",
"211 82 OFFCURVE",
"211 118 CURVE SMOOTH",
"211 344 LINE",
"243 346 OFFCURVE",
"274 347 OFFCURVE",
"314 347 CURVE SMOOTH",
"405 347 OFFCURVE",
"486 312 OFFCURVE",
"486 190 CURVE SMOOTH",
"486 90 OFFCURVE",
"417 38 OFFCURVE",
"314 38 CURVE SMOOTH",
"301 38 OFFCURVE",
"239 37 OFFCURVE",
"208 40 CURVE"
);
},
{
closed = 1;
nodes = (
"211 569 LINE SMOOTH",
"211 642 OFFCURVE",
"221 666 OFFCURVE",
"286 666 CURVE SMOOTH",
"352 666 OFFCURVE",
"433 644 OFFCURVE",
"435 536 CURVE SMOOTH",
"436 462 OFFCURVE",
"398 387 OFFCURVE",
"284 385 CURVE SMOOTH",
"211 383 LINE"
);
}
);
};
layerId = UUID0;
paths = (
{
closed = 1;
nodes = (
"347 0 LINE SMOOTH",
"482 0 OFFCURVE",
"583 73 OFFCURVE",
"583 196 CURVE SMOOTH",
"583 299 OFFCURVE",
"508 374 OFFCURVE",
"361 374 CURVE",
"361 376 LINE",
"471 396 OFFCURVE",
"525 466 OFFCURVE",
"526 531 CURVE SMOOTH",
"528 649 OFFCURVE",
"436 702 OFFCURVE",
"281 702 CURVE SMOOTH",
"201 702 OFFCURVE",
"128 701 OFFCURVE",
"55 700 CURVE",
"55 656 LINE",
"79 657 OFFCURVE",
"103 659 OFFCURVE",
"127 660 CURVE",
"125 643 OFFCURVE",
"124 617 OFFCURVE",
"124 581 CURVE SMOOTH",
"124 161 LINE SMOOTH",
"124 86 OFFCURVE",
"130 35 OFFCURVE",
"55 33 CURVE",
"55 0 LINE"
);
},
{
closed = 1;
nodes = (
"210 57 OFFCURVE",
"211 82 OFFCURVE",
"211 118 CURVE SMOOTH",
"211 344 LINE",
"243 346 OFFCURVE",
"274 347 OFFCURVE",
"314 347 CURVE SMOOTH",
"405 347 OFFCURVE",
"486 312 OFFCURVE",
"486 190 CURVE SMOOTH",
"486 90 OFFCURVE",
"417 38 OFFCURVE",
"314 38 CURVE SMOOTH",
"301 38 OFFCURVE",
"239 37 OFFCURVE",
"208 40 CURVE"
);
},
{
closed = 1;
nodes = (
"211 569 LINE SMOOTH",
"211 642 OFFCURVE",
"221 666 OFFCURVE",
"286 666 CURVE SMOOTH",
"352 666 OFFCURVE",
"433 644 OFFCURVE",
"435 536 CURVE SMOOTH",
"436 462 OFFCURVE",
"398 387 OFFCURVE",
"284 385 CURVE SMOOTH",
"211 383 LINE"
);
}
);
width = 622;
},
{
background = {
paths = (
{
closed = 1;
nodes = (
"390 0 LINE SMOOTH",
"530 0 OFFCURVE",
"633 69 OFFCURVE",
"633 199 CURVE SMOOTH",
"633 282 OFFCURVE",
"572 357 OFFCURVE",
"439 378 CURVE",
"439 379 LINE",
"533 404 OFFCURVE",
"579 462 OFFCURVE",
"583 520 CURVE SMOOTH",
"589 642 OFFCURVE",
"487 703 OFFCURVE",
"327 702 CURVE SMOOTH",
"235 701 OFFCURVE",
"142 701 OFFCURVE",
"50 700 CURVE",
"50 623 LINE",
"64 624 OFFCURVE",
"104 625 OFFCURVE",
"125 626 CURVE",
"123 609 OFFCURVE",
"121 572 OFFCURVE",
"121 536 CURVE SMOOTH",
"121 153 LINE SMOOTH",
"121 72 OFFCURVE",
"95 68 OFFCURVE",
"50 66 CURVE",
"50 0 LINE"
);
},
{
closed = 1;
nodes = (
"264 88 OFFCURVE",
"266 123 OFFCURVE",
"266 159 CURVE SMOOTH",
"266 322 LINE",
"292 323 OFFCURVE",
"313 323 OFFCURVE",
"347 323 CURVE SMOOTH",
"411 323 OFFCURVE",
"476 294 OFFCURVE",
"476 202 CURVE SMOOTH",
"476 128 OFFCURVE",
"440 76 OFFCURVE",
"359 72 CURVE SMOOTH",
"328 71 OFFCURVE",
"297 71 OFFCURVE",
"262 71 CURVE"
);
},
{
closed = 1;
nodes = (
"266 548 LINE SMOOTH",
"266 625 OFFCURVE",
"292 631 OFFCURVE",
"324 632 CURVE SMOOTH",
"375 633 OFFCURVE",
"430 607 OFFCURVE",
"430 528 CURVE SMOOTH",
"430 455 OFFCURVE",
"402 396 OFFCURVE",
"318 394 CURVE SMOOTH",
"266 393 LINE"
);
}
);
};
layerId = "4C2B4986-1645-43C1-94B7-5E4C57EFF0D9";
paths = (
{
closed = 1;
nodes = (
"390 0 LINE SMOOTH",
"530 0 OFFCURVE",
"633 69 OFFCURVE",
"633 199 CURVE SMOOTH",
"633 282 OFFCURVE",
"572 357 OFFCURVE",
"439 378 CURVE",
"439 379 LINE",
"533 404 OFFCURVE",
"579 462 OFFCURVE",
"583 520 CURVE SMOOTH",
"589 642 OFFCURVE",
"487 703 OFFCURVE",
"327 702 CURVE SMOOTH",
"235 701 OFFCURVE",
"142 701 OFFCURVE",
"50 700 CURVE",
"50 623 LINE",
"64 624 OFFCURVE",
"104 625 OFFCURVE",
"125 626 CURVE",
"123 609 OFFCURVE",
"121 572 OFFCURVE",
"121 536 CURVE SMOOTH",
"121 153 LINE SMOOTH",
"121 72 OFFCURVE",
"95 68 OFFCURVE",
"50 66 CURVE",
"50 0 LINE"
);
},
{
closed = 1;
nodes = (
"264 88 OFFCURVE",
"266 123 OFFCURVE",
"266 159 CURVE SMOOTH",
"266 322 LINE",
"292 323 OFFCURVE",
"313 323 OFFCURVE",
"347 323 CURVE SMOOTH",
"411 323 OFFCURVE",
"476 294 OFFCURVE",
"476 202 CURVE SMOOTH",
"476 128 OFFCURVE",
"440 76 OFFCURVE",
"359 72 CURVE SMOOTH",
"328 71 OFFCURVE",
"297 71 OFFCURVE",
"262 71 CURVE"
);
},
{
closed = 1;
nodes = (
"266 548 LINE SMOOTH",
"266 625 OFFCURVE",
"292 631 OFFCURVE",
"324 632 CURVE SMOOTH",
"375 633 OFFCURVE",
"430 607 OFFCURVE",
"430 528 CURVE SMOOTH",
"430 455 OFFCURVE",
"402 396 OFFCURVE",
"318 394 CURVE SMOOTH",
"266 393 LINE"
);
}
);
width = 661;
}
);
leftKerningGroup = I;
unicode = 0042;
},
{
glyphname = C;
layers = (
{
anchors = (
{
name = bottom;
position = "{365, 0}";
},
{
name = top;
position = "{389, 700}";
}
);
background = {
anchors = (
{
name = bottom;
position = "{365, 0}";
},
{
name = top;
position = "{389, 700}";
}
);
paths = (
{
closed = 1;
nodes = (
"644 477 LINE",
"644 709 LINE",
"590 709 LINE",
"595 655 LINE",
"533 696 OFFCURVE",
"468 716 OFFCURVE",
"393 716 CURVE SMOOTH",
"160 716 OFFCURVE",
"46 527 OFFCURVE",
"46 339 CURVE SMOOTH",
"46 140 OFFCURVE",
"185 -16 OFFCURVE",
"386 -16 CURVE SMOOTH",
"468 -16 OFFCURVE",
"583 11 OFFCURVE",
"669 130 CURVE",
"643 151 LINE",
"589 76 OFFCURVE",
"499 36 OFFCURVE",
"412 36 CURVE SMOOTH",
"264 36 OFFCURVE",
"144 165 OFFCURVE",
"144 354 CURVE SMOOTH",
"144 550 OFFCURVE",
"258 675 OFFCURVE",
"400 675 CURVE SMOOTH",
"516 675 OFFCURVE",
"594 602 OFFCURVE",
"608 477 CURVE"
);
}
);
};
layerId = UUID0;
paths = (
{
closed = 1;
nodes = (
"644 477 LINE",
"644 709 LINE",
"590 709 LINE",
"595 655 LINE",
"533 696 OFFCURVE",
"468 716 OFFCURVE",
"393 716 CURVE SMOOTH",
"160 716 OFFCURVE",
"46 527 OFFCURVE",
"46 339 CURVE SMOOTH",
"46 140 OFFCURVE",
"185 -16 OFFCURVE",
"386 -16 CURVE SMOOTH",
"468 -16 OFFCURVE",
"583 11 OFFCURVE",
"669 130 CURVE",
"643 151 LINE",
"589 76 OFFCURVE",
"499 36 OFFCURVE",
"412 36 CURVE SMOOTH",
"264 36 OFFCURVE",
"144 165 OFFCURVE",
"144 354 CURVE SMOOTH",
"144 550 OFFCURVE",
"258 675 OFFCURVE",
"400 675 CURVE SMOOTH",
"516 675 OFFCURVE",
"594 602 OFFCURVE",
"608 477 CURVE"
);
}
);
width = 699;
},
{
anchors = (
{
name = bottom;
position = "{326, 0}";
},
{
name = top;
position = "{403, 700}";
}
);
background = {
anchors = (
{
name = bottom;
position = "{326, 0}";
},
{
name = top;
position = "{403, 700}";
}
);
paths = (
{
closed = 1;
nodes = (
"631 476 LINE",
"631 709 LINE",
"554 709 LINE",
"558 667 LINE",
"503 699 OFFCURVE",
"437 716 OFFCURVE",
"385 716 CURVE SMOOTH",
"152 716 OFFCURVE",
"35 522 OFFCURVE",
"35 340 CURVE SMOOTH",
"35 141 OFFCURVE",
"172 -16 OFFCURVE",
"378 -16 CURVE SMOOTH",
"460 -16 OFFCURVE",
"581 9 OFFCURVE",
"679 144 CURVE",
"631 188 LINE",
"575 111 OFFCURVE",
"486 65 OFFCURVE",
"402 65 CURVE SMOOTH",
"268 65 OFFCURVE",
"192 188 OFFCURVE",
"192 360 CURVE SMOOTH",
"192 504 OFFCURVE",
"258 644 OFFCURVE",
"398 644 CURVE SMOOTH",
"491 643 OFFCURVE",
"548 587 OFFCURVE",
"566 476 CURVE"
);
}
);
};
layerId = "4C2B4986-1645-43C1-94B7-5E4C57EFF0D9";
paths = (
{
closed = 1;
nodes = (
"631 476 LINE",
"631 709 LINE",
"554 709 LINE",
"558 667 LINE",
"503 699 OFFCURVE",
"437 716 OFFCURVE",
"385 716 CURVE SMOOTH",
"152 716 OFFCURVE",
"35 522 OFFCURVE",
"35 340 CURVE SMOOTH",
"35 141 OFFCURVE",
"172 -16 OFFCURVE",
"378 -16 CURVE SMOOTH",
"460 -16 OFFCURVE",
"581 9 OFFCURVE",
"679 144 CURVE",
"631 188 LINE",
"575 111 OFFCURVE",
"486 65 OFFCURVE",
"402 65 CURVE SMOOTH",
"268 65 OFFCURVE",
"192 188 OFFCURVE",
"192 360 CURVE SMOOTH",
"192 504 OFFCURVE",
"258 644 OFFCURVE",
"398 644 CURVE SMOOTH",
"491 643 OFFCURVE",
"548 587 OFFCURVE",
"566 476 CURVE"
);
}
);
width = 688;
}
);
leftKerningGroup = O;
rightKerningGroup = C;
unicode = 0043;
},
{
glyphname = Cacute;
layers = (
{
background = {
anchors = (
{
name = bottom;
position = "{365, 0}";
},
{
name = top;
position = "{389, 700}";
}
);
paths = (
{
closed = 1;
nodes = (
"644 477 LINE",
"644 709 LINE",
"590 709 LINE",
"595 655 LINE",
"533 696 OFFCURVE",
"468 716 OFFCURVE",
"393 716 CURVE SMOOTH",
"160 716 OFFCURVE",
"46 527 OFFCURVE",
"46 339 CURVE SMOOTH",
"46 140 OFFCURVE",
"185 -16 OFFCURVE",
"386 -16 CURVE SMOOTH",
"468 -16 OFFCURVE",
"583 11 OFFCURVE",
"669 130 CURVE",
"643 151 LINE",
"589 76 OFFCURVE",
"499 36 OFFCURVE",
"412 36 CURVE SMOOTH",
"264 36 OFFCURVE",
"144 165 OFFCURVE",
"144 354 CURVE SMOOTH",
"144 550 OFFCURVE",
"258 675 OFFCURVE",
"400 675 CURVE SMOOTH",
"516 675 OFFCURVE",
"594 602 OFFCURVE",
"608 477 CURVE"
);
},
{
closed = 1;
nodes = (
"499 849 LINE SMOOTH",
"544 877 OFFCURVE",
"531 905 OFFCURVE",
"525 914 CURVE SMOOTH",
"522 919 OFFCURVE",
"497 943 OFFCURVE",
"458 909 CURVE SMOOTH",
"332 789 LINE",
"354 760 LINE"
);
}
);
};
components = (
{
name = C;
},
{
name = acutecomb.case;
transform = "{1, 0, 0, 1, 299, 0}";
}
);
layerId = UUID0;
width = 699;
},
{
background = {
anchors = (
{
name = bottom;
position = "{326, 0}";
},
{
name = top;
position = "{403, 700}";
}
);
paths = (
{
closed = 1;
nodes = (
"631 476 LINE",
"631 709 LINE",
"554 709 LINE",
"558 667 LINE",
"503 699 OFFCURVE",
"437 716 OFFCURVE",
"385 716 CURVE SMOOTH",
"152 716 OFFCURVE",
"35 522 OFFCURVE",
"35 340 CURVE SMOOTH",
"35 141 OFFCURVE",
"172 -16 OFFCURVE",
"378 -16 CURVE SMOOTH",
"460 -16 OFFCURVE",
"581 9 OFFCURVE",
"679 144 CURVE",
"631 188 LINE",
"575 111 OFFCURVE",
"486 65 OFFCURVE",
"402 65 CURVE SMOOTH",
"268 65 OFFCURVE",
"192 188 OFFCURVE",
"192 360 CURVE SMOOTH",
"192 504 OFFCURVE",
"258 644 OFFCURVE",
"398 644 CURVE SMOOTH",
"491 643 OFFCURVE",
"548 587 OFFCURVE",
"566 476 CURVE"
);
},
{
closed = 1;
nodes = (
"505 825 LINE SMOOTH",
"536 845 OFFCURVE",
"558 885 OFFCURVE",
"535 919 CURVE SMOOTH",
"510 952 OFFCURVE",
"466 945 OFFCURVE",
"438 917 CURVE SMOOTH",
"327 799 LINE",
"363 750 LINE"
);
}
);
};
components = (
{
name = C;
},
{
name = acutecomb.case;
transform = "{1, 0, 0, 1, 300, 0}";
}
);
layerId = "4C2B4986-1645-43C1-94B7-5E4C57EFF0D9";
width = 688;
}
);
leftKerningGroup = O;
rightKerningGroup = C;
unicode = 0106;
},
{
glyphname = Ccaron;
layers = (
{
background = {
anchors = (
{
name = bottom;
position = "{365, 0}";
},
{
name = top;
position = "{389, 957}";
}
);
paths = (
{
closed = 1;
nodes = (
"644 477 LINE",
"644 709 LINE",
"590 709 LINE",
"595 655 LINE",
"533 696 OFFCURVE",
"468 716 OFFCURVE",
"393 716 CURVE SMOOTH",
"160 716 OFFCURVE",
"46 527 OFFCURVE",
"46 339 CURVE SMOOTH",
"46 140 OFFCURVE",
"185 -16 OFFCURVE",
"386 -16 CURVE SMOOTH",
"468 -16 OFFCURVE",
"583 11 OFFCURVE",
"669 130 CURVE",
"643 151 LINE",
"589 76 OFFCURVE",
"499 36 OFFCURVE",
"412 36 CURVE SMOOTH",
"264 36 OFFCURVE",
"144 165 OFFCURVE",
"144 354 CURVE SMOOTH",
"144 550 OFFCURVE",
"258 675 OFFCURVE",
"400 675 CURVE SMOOTH",
"516 675 OFFCURVE",
"594 602 OFFCURVE",
"608 477 CURVE"
);
},
{
closed = 1;
nodes = (
"385 780 LINE",
"579 925 LINE",
"559 957 LINE",
"389 867 LINE",
"221 955 LINE",
"199 921 LINE",
"383 780 LINE"
);
}
);
};
components = (
{
name = C;
},
{
name = caroncomb.case;
transform = "{1, 0, 0, 1, 154, 0}";
}
);
layerId = UUID0;
width = 699;
},
{
background = {
anchors = (
{
name = bottom;
position = "{326, 0}";
},
{
name = top;
position = "{403, 963}";
}
);
paths = (
{
closed = 1;
nodes = (
"631 476 LINE",
"631 709 LINE",
"554 709 LINE",
"558 667 LINE",
"503 699 OFFCURVE",
"437 716 OFFCURVE",
"385 716 CURVE SMOOTH",
"152 716 OFFCURVE",
"35 522 OFFCURVE",
"35 340 CURVE SMOOTH",
"35 141 OFFCURVE",
"172 -16 OFFCURVE",
"378 -16 CURVE SMOOTH",
"460 -16 OFFCURVE",
"581 9 OFFCURVE",
"679 144 CURVE",
"631 188 LINE",
"575 111 OFFCURVE",
"486 65 OFFCURVE",
"402 65 CURVE SMOOTH",
"268 65 OFFCURVE",
"192 188 OFFCURVE",
"192 360 CURVE SMOOTH",
"192 504 OFFCURVE",
"258 644 OFFCURVE",
"398 644 CURVE SMOOTH",
"491 643 OFFCURVE",
"548 587 OFFCURVE",
"566 476 CURVE"
);
},
{
closed = 1;
nodes = (
"408 765 LINE",
"612 918 LINE",
"586 963 LINE",
"403 874 LINE",
"225 961 LINE",
"194 915 LINE",
"389 765 LINE"
);
}
);
};
components = (
{
name = C;
},
{
name = caroncomb.case;
transform = "{1, 0, 0, 1, 173, 0}";
}
);
layerId = "4C2B4986-1645-43C1-94B7-5E4C57EFF0D9";
width = 688;
}
);
leftKerningGroup = O;
rightKerningGroup = C;
unicode = 010C;
},
{
glyphname = Ccedilla;
layers = (
{
background = {
anchors = (
{
name = bottom;
position = "{434, -260}";
},
{
name = top;
position = "{389, 700}";
}
);
paths = (
{
closed = 1;
nodes = (
"644 477 LINE",
"644 709 LINE",
"590 709 LINE",
"595 655 LINE",
"533 696 OFFCURVE",
"468 716 OFFCURVE",
"393 716 CURVE SMOOTH",
"160 716 OFFCURVE",
"46 527 OFFCURVE",
"46 339 CURVE SMOOTH",
"46 140 OFFCURVE",
"185 -16 OFFCURVE",
"386 -16 CURVE SMOOTH",
"468 -16 OFFCURVE",
"583 11 OFFCURVE",
"669 130 CURVE",
"643 151 LINE",
"589 76 OFFCURVE",
"499 36 OFFCURVE",
"412 36 CURVE SMOOTH",
"264 36 OFFCURVE",
"144 165 OFFCURVE",
"144 354 CURVE SMOOTH",
"144 550 OFFCURVE",
"258 675 OFFCURVE",
"400 675 CURVE SMOOTH",
"516 675 OFFCURVE",
"594 602 OFFCURVE",
"608 477 CURVE"
);
},
{
closed = 1;
nodes = (
"402 -250 OFFCURVE",
"540 -213 OFFCURVE",
"540 -132 CURVE SMOOTH",
"540 -92 OFFCURVE",
"514 -61 OFFCURVE",
"463 -61 CURVE SMOOTH",
"447 -61 OFFCURVE",
"417 -65 OFFCURVE",
"398 -77 CURVE",
"425 8 LINE",
"367 8 LINE",
"338 -106 LINE",
"374 -123 LINE",
"404 -104 OFFCURVE",
"450 -100 OFFCURVE",
"450 -141 CURVE SMOOTH",
"450 -180 OFFCURVE",
"396 -210 OFFCURVE",
"328 -222 CURVE",
"334 -260 LINE"
);
}
);
};
components = (
{
name = C;
},
{
name = cedillacomb.case;
transform = "{1, 0, 0, 1, 283, 0}";
}
);
layerId = UUID0;
width = 699;
},
{
background = {
anchors = (
{
name = bottom;
position = "{406, -275}";
},
{
name = top;
position = "{403, 700}";
}
);
paths = (
{
closed = 1;
nodes = (
"631 476 LINE",
"631 709 LINE",
"554 709 LINE",
"558 667 LINE",
"503 699 OFFCURVE",
"437 716 OFFCURVE",
"385 716 CURVE SMOOTH",
"152 716 OFFCURVE",
"35 522 OFFCURVE",
"35 340 CURVE SMOOTH",
"35 141 OFFCURVE",
"172 -16 OFFCURVE",
"378 -16 CURVE SMOOTH",
"460 -16 OFFCURVE",
"581 9 OFFCURVE",
"679 144 CURVE",
"631 188 LINE",
"575 111 OFFCURVE",
"486 65 OFFCURVE",
"402 65 CURVE SMOOTH",
"268 65 OFFCURVE",
"192 188 OFFCURVE",
"192 360 CURVE SMOOTH",
"192 504 OFFCURVE",
"258 644 OFFCURVE",
"398 644 CURVE SMOOTH",
"491 643 OFFCURVE",
"548 587 OFFCURVE",
"566 476 CURVE"
);
},
{
closed = 1;
nodes = (
"372 -264 OFFCURVE",
"525 -219 OFFCURVE",
"525 -125 CURVE SMOOTH",
"525 -78 OFFCURVE",
"491 -53 OFFCURVE",
"449 -52 CURVE SMOOTH",
"431 -51 OFFCURVE",
"397 -59 OFFCURVE",
"381 -67 CURVE",
"409 10 LINE",
"328 10 LINE",
"298 -121 LINE",
"339 -136 LINE",
"359 -120 OFFCURVE",
"407 -109 OFFCURVE",
"407 -146 CURVE SMOOTH",
"407 -187 OFFCURVE",
"319 -214 OFFCURVE",
"287 -220 CURVE",
"295 -275 LINE"
);
}
);
};
components = (
{
name = C;
},
{
name = cedillacomb.case;
transform = "{1, 0, 0, 1, 242, 0}";
}
);
layerId = "4C2B4986-1645-43C1-94B7-5E4C57EFF0D9";
width = 688;
}
);
leftKerningGroup = O;
rightKerningGroup = C;
unicode = 00C7;
},
{
glyphname = Ccircumflex;
layers = (
{
background = {
anchors = (
{
name = bottom;
position = "{365, 0}";
},
{
name = top;
position = "{394, 931}";
}
);
paths = (
{
closed = 1;
nodes = (
"644 477 LINE",
"644 709 LINE",
"590 709 LINE",
"595 655 LINE",
"533 696 OFFCURVE",
"468 716 OFFCURVE",
"393 716 CURVE SMOOTH",
"160 716 OFFCURVE",
"46 527 OFFCURVE",
"46 339 CURVE SMOOTH",
"46 140 OFFCURVE",
"185 -16 OFFCURVE",
"386 -16 CURVE SMOOTH",
"468 -16 OFFCURVE",
"583 11 OFFCURVE",
"669 130 CURVE",
"643 151 LINE",
"589 76 OFFCURVE",
"499 36 OFFCURVE",
"412 36 CURVE SMOOTH",
"264 36 OFFCURVE",
"144 165 OFFCURVE",
"144 354 CURVE SMOOTH",
"144 550 OFFCURVE",
"258 675 OFFCURVE",
"400 675 CURVE SMOOTH",
"516 675 OFFCURVE",
"594 602 OFFCURVE",
"608 477 CURVE"
);
},
{
closed = 1;
nodes = (
"542 790 LINE",
"395 931 LINE",
"393 931 LINE",
"238 789 LINE",
"263 760 LINE",
"390 844 LINE",
"519 760 LINE"
);
}
);
};
components = (
{
name = C;
},
{
name = circumflexcomb.case;
transform = "{1, 0, 0, 1, 154, 0}";
}
);
layerId = UUID0;
width = 699;
},
{
background = {
anchors = (
{
name = bottom;
position = "{326, 0}";
},
{
name = top;
position = "{407, 971}";
}
);
paths = (
{
closed = 1;
nodes = (
"631 476 LINE",
"631 709 LINE",
"554 709 LINE",
"558 667 LINE",
"503 699 OFFCURVE",
"437 716 OFFCURVE",
"385 716 CURVE SMOOTH",
"152 716 OFFCURVE",
"35 522 OFFCURVE",
"35 340 CURVE SMOOTH",
"35 141 OFFCURVE",
"172 -16 OFFCURVE",
"378 -16 CURVE SMOOTH",
"460 -16 OFFCURVE",
"581 9 OFFCURVE",
"679 144 CURVE",
"631 188 LINE",
"575 111 OFFCURVE",
"486 65 OFFCURVE",
"402 65 CURVE SMOOTH",
"268 65 OFFCURVE",
"192 188 OFFCURVE",
"192 360 CURVE SMOOTH",
"192 504 OFFCURVE",
"258 644 OFFCURVE",
"398 644 CURVE SMOOTH",
"491 643 OFFCURVE",
"548 587 OFFCURVE",
"566 476 CURVE"
);
},
{
closed = 1;
nodes = (
"575 821 LINE",
"418 971 LINE",
"399 971 LINE",
"234 821 LINE",
"261 776 LINE",
"404 861 LINE",
"543 774 LINE"
);
}
);
};
components = (
{
name = C;
},
{
name = circumflexcomb.case;
transform = "{1, 0, 0, 1, 149, 0}";
}
);
layerId = "4C2B4986-1645-43C1-94B7-5E4C57EFF0D9";
width = 688;
}
);
leftKerningGroup = O;
rightKerningGroup = C;
unicode = 0108;
},
{
glyphname = Cdotaccent;
layers = (
{
background = {
anchors = (
{
name = bottom;
position = "{365, 0}";
},
{
name = top;
position = "{389, 927.96}";
}
);
paths = (
{
closed = 1;
nodes = (
"644 477 LINE",
"644 709 LINE",
"590 709 LINE",
"595 655 LINE",
"533 696 OFFCURVE",
"468 716 OFFCURVE",
"393 716 CURVE SMOOTH",
"160 716 OFFCURVE",
"46 527 OFFCURVE",
"46 339 CURVE SMOOTH",
"46 140 OFFCURVE",
"185 -16 OFFCURVE",
"386 -16 CURVE SMOOTH",
"468 -16 OFFCURVE",
"583 11 OFFCURVE",
"669 130 CURVE",
"643 151 LINE",
"589 76 OFFCURVE",
"499 36 OFFCURVE",
"412 36 CURVE SMOOTH",
"264 36 OFFCURVE",
"144 165 OFFCURVE",
"144 354 CURVE SMOOTH",
"144 550 OFFCURVE",
"258 675 OFFCURVE",
"400 675 CURVE SMOOTH",
"516 675 OFFCURVE",
"594 602 OFFCURVE",
"608 477 CURVE"
);
},
{
closed = 1;
nodes = (
"418 809 OFFCURVE",
"444 835 OFFCURVE",
"444 868 CURVE SMOOTH",
"444 901 OFFCURVE",
"421 928 OFFCURVE",
"390 928 CURVE SMOOTH",
"362 928 OFFCURVE",
"336 901 OFFCURVE",
"336 868 CURVE SMOOTH",
"336 835 OFFCURVE",
"361 809 OFFCURVE",
"389 809 CURVE SMOOTH"
);
}
);
};
components = (
{
name = C;
},
{
name = dotaccentcomb;
transform = "{1, 0, 0, 1, 289, 200}";
}
);
layerId = UUID0;
width = 699;
},
{
background = {
anchors = (
{
name = bottom;
position = "{326, 0}";
},
{
name = top;
position = "{403, 953}";
}
);
paths = (
{
closed = 1;
nodes = (
"631 476 LINE",
"631 709 LINE",
"554 709 LINE",
"558 667 LINE",
"503 699 OFFCURVE",
"437 716 OFFCURVE",
"385 716 CURVE SMOOTH",
"152 716 OFFCURVE",
"35 522 OFFCURVE",
"35 340 CURVE SMOOTH",
"35 141 OFFCURVE",
"172 -16 OFFCURVE",
"378 -16 CURVE SMOOTH",
"460 -16 OFFCURVE",
"581 9 OFFCURVE",
"679 144 CURVE",
"631 188 LINE",
"575 111 OFFCURVE",
"486 65 OFFCURVE",
"402 65 CURVE SMOOTH",
"268 65 OFFCURVE",
"192 188 OFFCURVE",
"192 360 CURVE SMOOTH",
"192 504 OFFCURVE",
"258 644 OFFCURVE",
"398 644 CURVE SMOOTH",
"491 643 OFFCURVE",
"548 587 OFFCURVE",
"566 476 CURVE"
);
},
{
closed = 1;
nodes = (
"450 789 OFFCURVE",
"479 826 OFFCURVE",
"479 871 CURVE SMOOTH",
"479 916 OFFCURVE",
"447 953 OFFCURVE",
"404 953 CURVE SMOOTH",
"363 953 OFFCURVE",
"327 916 OFFCURVE",
"327 871 CURVE SMOOTH",
"327 826 OFFCURVE",
"359 789 OFFCURVE",
"405 789 CURVE SMOOTH"
);
}
);
};
components = (
{
name = C;
},
{
name = dotaccentcomb;
transform = "{1, 0, 0, 1, 283, 200}";
}
);
layerId = "4C2B4986-1645-43C1-94B7-5E4C57EFF0D9";
width = 688;
}
);
unicode = 010A;
},
{
glyphname = D;
layers = (
{
anchors = (
{
name = center;
position = "{373, 350}";
},
{
name = top;
position = "{346, 700}";
}
);
background = {
anchors = (
{
name = center;
position = "{373, 350}";
},
{
name = top;
position = "{346, 700}";
}
);
paths = (
{
closed = 1;
nodes = (
"55 0 LINE",
"318 0 LINE SMOOTH",
"569 0 OFFCURVE",
"699 165 OFFCURVE",
"699 349 CURVE SMOOTH",
"699 590 OFFCURVE",
"532 702 OFFCURVE",
"291 701 CURVE SMOOTH",
"55 700 LINE",
"55 656 LINE",
"79 657 OFFCURVE",
"103 659 OFFCURVE",
"127 660 CURVE",
"125 640 OFFCURVE",
"124 615 OFFCURVE",
"124 588 CURVE SMOOTH",
"124 156 LINE SMOOTH",
"124 85 OFFCURVE",
"130 36 OFFCURVE",
"55 33 CURVE"
);
},
{
closed = 1;
nodes = (
"211 544 LINE SMOOTH",
"211 615 OFFCURVE",
"205 664 OFFCURVE",
"280 664 CURVE SMOOTH",
"500 664 OFFCURVE",
"601 542 OFFCURVE",
"601 353 CURVE SMOOTH",
"601 174 OFFCURVE",
"487 38 OFFCURVE",
"315 38 CURVE SMOOTH",
"307 38 OFFCURVE",
"261 37 OFFCURVE",
"208 40 CURVE",
"210 57 OFFCURVE",
"211 82 OFFCURVE",
"211 118 CURVE SMOOTH"
);
}
);
};
layerId = UUID0;
paths = (
{
closed = 1;
nodes = (
"55 0 LINE",
"318 0 LINE SMOOTH",
"569 0 OFFCURVE",
"699 165 OFFCURVE",
"699 349 CURVE SMOOTH",
"699 590 OFFCURVE",
"532 702 OFFCURVE",
"291 701 CURVE SMOOTH",
"55 700 LINE",
"55 656 LINE",
"79 657 OFFCURVE",
"103 659 OFFCURVE",
"127 660 CURVE",
"125 640 OFFCURVE",
"124 615 OFFCURVE",
"124 588 CURVE SMOOTH",
"124 156 LINE SMOOTH",
"124 85 OFFCURVE",
"130 36 OFFCURVE",
"55 33 CURVE"
);
},
{
closed = 1;
nodes = (
"211 544 LINE SMOOTH",
"211 615 OFFCURVE",
"205 664 OFFCURVE",
"280 664 CURVE SMOOTH",
"500 664 OFFCURVE",
"601 542 OFFCURVE",
"601 353 CURVE SMOOTH",
"601 174 OFFCURVE",
"487 38 OFFCURVE",
"315 38 CURVE SMOOTH",
"307 38 OFFCURVE",
"261 37 OFFCURVE",
"208 40 CURVE",
"210 57 OFFCURVE",
"211 82 OFFCURVE",
"211 118 CURVE SMOOTH"
);
}
);
width = 745;
},
{
anchors = (
{
name = center;
position = "{380, 350}";
},
{
name = top;
position = "{360, 700}";
}
);
background = {
anchors = (
{
name = center;
position = "{380, 350}";
},
{
name = top;
position = "{360, 700}";
}
);
paths = (
{
closed = 1;
nodes = (
"50 0 LINE",
"336 0 LINE SMOOTH",
"616 0 OFFCURVE",
"724 194 OFFCURVE",
"724 357 CURVE SMOOTH",
"724 523 OFFCURVE",
"605 702 OFFCURVE",
"341 701 CURVE SMOOTH",
"50 700 LINE",
"50 623 LINE",
"64 624 OFFCURVE",
"104 625 OFFCURVE",
"125 626 CURVE",
"123 609 OFFCURVE",
"121 572 OFFCURVE",
"121 536 CURVE SMOOTH",
"121 153 LINE SMOOTH",
"121 72 OFFCURVE",
"95 68 OFFCURVE",
"50 66 CURVE"
);
},
{
closed = 1;
nodes = (
"266 549 LINE SMOOTH",
"266 626 OFFCURVE",
"290 636 OFFCURVE",
"339 634 CURVE SMOOTH",
"478 630 OFFCURVE",
"566 540 OFFCURVE",
"566 336 CURVE SMOOTH",
"566 203 OFFCURVE",
"503 73 OFFCURVE",
"357 73 CURVE SMOOTH",
"333 73 OFFCURVE",
"281 76 OFFCURVE",
"262 74 CURVE",
"264 91 OFFCURVE",
"266 128 OFFCURVE",
"266 164 CURVE SMOOTH"
);
}
);
};
layerId = "4C2B4986-1645-43C1-94B7-5E4C57EFF0D9";
paths = (
{
closed = 1;
nodes = (
"50 0 LINE",
"336 0 LINE SMOOTH",
"616 0 OFFCURVE",
"724 194 OFFCURVE",
"724 357 CURVE SMOOTH",
"724 523 OFFCURVE",
"605 702 OFFCURVE",
"341 701 CURVE SMOOTH",
"50 700 LINE",
"50 623 LINE",
"64 624 OFFCURVE",
"104 625 OFFCURVE",
"125 626 CURVE",
"123 609 OFFCURVE",
"121 572 OFFCURVE",
"121 536 CURVE SMOOTH",
"121 153 LINE SMOOTH",
"121 72 OFFCURVE",
"95 68 OFFCURVE",
"50 66 CURVE"
);
},
{
closed = 1;
nodes = (
"266 549 LINE SMOOTH",
"266 626 OFFCURVE",
"290 636 OFFCURVE",
"339 634 CURVE SMOOTH",
"478 630 OFFCURVE",
"566 540 OFFCURVE",
"566 336 CURVE SMOOTH",
"566 203 OFFCURVE",
"503 73 OFFCURVE",
"357 73 CURVE SMOOTH",
"333 73 OFFCURVE",
"281 76 OFFCURVE",
"262 74 CURVE",
"264 91 OFFCURVE",
"266 128 OFFCURVE",
"266 164 CURVE SMOOTH"
);
}
);
width = 759;
}
);
leftKerningGroup = I;
rightKerningGroup = D;
unicode = 0044;
},
{
glyphname = Dcaron;
layers = (
{
background = {
anchors = (
{
name = center;
position = "{373, 350}";
},
{
name = top;
position = "{346, 957}";
}
);
paths = (
{
closed = 1;
nodes = (
"55 0 LINE",
"318 0 LINE SMOOTH",
"569 0 OFFCURVE",
"699 165 OFFCURVE",
"699 349 CURVE SMOOTH",
"699 590 OFFCURVE",
"532 702 OFFCURVE",
"291 701 CURVE SMOOTH",
"55 700 LINE",
"55 656 LINE",
"79 657 OFFCURVE",
"103 659 OFFCURVE",
"127 660 CURVE",
"125 640 OFFCURVE",
"124 615 OFFCURVE",
"124 588 CURVE SMOOTH",
"124 156 LINE SMOOTH",
"124 85 OFFCURVE",
"130 36 OFFCURVE",
"55 33 CURVE"
);
},
{
closed = 1;
nodes = (
"211 544 LINE SMOOTH",
"211 615 OFFCURVE",
"205 664 OFFCURVE",
"280 664 CURVE SMOOTH",
"500 664 OFFCURVE",
"601 542 OFFCURVE",
"601 353 CURVE SMOOTH",
"601 174 OFFCURVE",
"487 38 OFFCURVE",
"315 38 CURVE SMOOTH",
"307 38 OFFCURVE",
"261 37 OFFCURVE",
"208 40 CURVE",
"210 57 OFFCURVE",
"211 82 OFFCURVE",
"211 118 CURVE SMOOTH"
);
},
{
closed = 1;
nodes = (
"342 780 LINE",
"536 925 LINE",
"516 957 LINE",
"346 867 LINE",
"178 955 LINE",
"156 921 LINE",
"340 780 LINE"
);
}
);
};
components = (
{
name = D;
},
{
name = caroncomb.case;
transform = "{1, 0, 0, 1, 111, 0}";
}
);
layerId = UUID0;
width = 745;
},
{
background = {
anchors = (
{
name = center;
position = "{380, 350}";
},
{
name = top;
position = "{360, 963}";
}
);
paths = (
{
closed = 1;
nodes = (
"50 0 LINE",
"336 0 LINE SMOOTH",
"616 0 OFFCURVE",
"724 194 OFFCURVE",
"724 357 CURVE SMOOTH",
"724 523 OFFCURVE",
"605 702 OFFCURVE",
"341 701 CURVE SMOOTH",
"50 700 LINE",
"50 623 LINE",
"64 624 OFFCURVE",
"104 625 OFFCURVE",
"125 626 CURVE",
"123 609 OFFCURVE",
"121 572 OFFCURVE",
"121 536 CURVE SMOOTH",
"121 153 LINE SMOOTH",
"121 72 OFFCURVE",
"95 68 OFFCURVE",
"50 66 CURVE"
);
},
{
closed = 1;
nodes = (
"266 549 LINE SMOOTH",
"266 626 OFFCURVE",
"290 636 OFFCURVE",
"339 634 CURVE SMOOTH",
"478 630 OFFCURVE",
"566 540 OFFCURVE",
"566 336 CURVE SMOOTH",
"566 203 OFFCURVE",
"503 73 OFFCURVE",
"357 73 CURVE SMOOTH",
"333 73 OFFCURVE",
"281 76 OFFCURVE",
"262 74 CURVE",
"264 91 OFFCURVE",
"266 128 OFFCURVE",
"266 164 CURVE SMOOTH"
);
},
{
closed = 1;
nodes = (
"365 765 LINE",
"569 918 LINE",
"543 963 LINE",
"360 874 LINE",
"182 961 LINE",
"151 915 LINE",
"346 765 LINE"
);
}
);
};
components = (
{
name = D;
},
{
name = caroncomb.case;
transform = "{1, 0, 0, 1, 130, 0}";
}
);
layerId = "4C2B4986-1645-43C1-94B7-5E4C57EFF0D9";
width = 759;
}
);
leftKerningGroup = I;
rightKerningGroup = D;
unicode = 010E;
},
{
glyphname = Dcroat;
layers = (
{
background = {
anchors = (
{
name = center;
position = "{374, 350}";
},
{
name = top;
position = "{347, 700}";
}
);
paths = (
{
closed = 1;
nodes = (
"393 335 LINE",
"393 377 LINE",
"19 377 LINE",
"19 335 LINE"
);
},
{
closed = 1;
nodes = (
"56 0 LINE",
"319 0 LINE SMOOTH",
"570 0 OFFCURVE",
"700 165 OFFCURVE",
"700 349 CURVE SMOOTH",
"700 590 OFFCURVE",
"533 702 OFFCURVE",
"292 701 CURVE SMOOTH",
"56 700 LINE",
"56 656 LINE",
"80 657 OFFCURVE",
"104 659 OFFCURVE",
"128 660 CURVE",
"126 640 OFFCURVE",
"125 615 OFFCURVE",
"125 588 CURVE SMOOTH",
"125 156 LINE SMOOTH",
"125 85 OFFCURVE",
"131 36 OFFCURVE",
"56 33 CURVE"
);
},
{
closed = 1;
nodes = (
"212 544 LINE SMOOTH",
"212 615 OFFCURVE",
"206 664 OFFCURVE",
"281 664 CURVE SMOOTH",
"501 664 OFFCURVE",
"602 542 OFFCURVE",
"602 353 CURVE SMOOTH",
"602 174 OFFCURVE",
"488 38 OFFCURVE",
"316 38 CURVE SMOOTH",
"308 38 OFFCURVE",
"262 37 OFFCURVE",
"209 40 CURVE",
"211 57 OFFCURVE",
"212 82 OFFCURVE",
"212 118 CURVE SMOOTH"
);
}
);
};
components = (
{
name = Eth;
}
);
layerId = UUID0;
width = 745;
},
{
background = {
anchors = (
{
name = center;
position = "{381, 350}";
},
{
name = top;
position = "{361, 700}";
}
);
paths = (
{
closed = 1;
nodes = (
"421 316 LINE",
"421 391 LINE",
"30 391 LINE",
"30 312 LINE"
);
},
{
closed = 1;
nodes = (
"51 0 LINE",
"337 0 LINE SMOOTH",
"617 0 OFFCURVE",
"725 194 OFFCURVE",
"725 357 CURVE SMOOTH",
"725 523 OFFCURVE",
"606 702 OFFCURVE",
"342 701 CURVE SMOOTH",
"51 700 LINE",
"51 623 LINE",
"65 624 OFFCURVE",
"105 625 OFFCURVE",
"126 626 CURVE",
"124 609 OFFCURVE",
"122 572 OFFCURVE",
"122 536 CURVE SMOOTH",
"122 153 LINE SMOOTH",
"122 72 OFFCURVE",
"96 68 OFFCURVE",
"51 66 CURVE"
);
},
{
closed = 1;
nodes = (
"267 549 LINE SMOOTH",
"267 626 OFFCURVE",
"291 636 OFFCURVE",
"340 634 CURVE SMOOTH",
"479 630 OFFCURVE",
"567 540 OFFCURVE",
"567 336 CURVE SMOOTH",
"567 203 OFFCURVE",
"504 73 OFFCURVE",
"358 73 CURVE SMOOTH",
"334 73 OFFCURVE",
"282 76 OFFCURVE",
"263 74 CURVE",
"265 91 OFFCURVE",
"267 128 OFFCURVE",
"267 164 CURVE SMOOTH"
);
}
);
};
components = (
{
name = Eth;
}
);
layerId = "4C2B4986-1645-43C1-94B7-5E4C57EFF0D9";
width = 758;
}
);
leftKerningGroup = I;
rightKerningGroup = D;
unicode = 0110;
},
{
glyphname = Eth;
layers = (
{
background = {
anchors = (
{
name = center;
position = "{374, 350}";
},
{
name = top;
position = "{347, 700}";
}
);
paths = (
{
closed = 1;
nodes = (
"393 335 LINE",
"393 377 LINE",
"19 377 LINE",
"19 335 LINE"
);
},
{
closed = 1;
nodes = (
"56 0 LINE",
"319 0 LINE SMOOTH",
"570 0 OFFCURVE",
"700 165 OFFCURVE",
"700 349 CURVE SMOOTH",
"700 590 OFFCURVE",
"533 702 OFFCURVE",
"292 701 CURVE SMOOTH",
"56 700 LINE",
"56 656 LINE",
"80 657 OFFCURVE",
"104 659 OFFCURVE",
"128 660 CURVE",
"126 640 OFFCURVE",
"125 615 OFFCURVE",
"125 588 CURVE SMOOTH",
"125 156 LINE SMOOTH",
"125 85 OFFCURVE",
"131 36 OFFCURVE",
"56 33 CURVE"
);
},
{
closed = 1;
nodes = (
"212 544 LINE SMOOTH",
"212 615 OFFCURVE",
"206 664 OFFCURVE",
"281 664 CURVE SMOOTH",
"501 664 OFFCURVE",
"602 542 OFFCURVE",
"602 353 CURVE SMOOTH",
"602 174 OFFCURVE",
"488 38 OFFCURVE",
"316 38 CURVE SMOOTH",
"308 38 OFFCURVE",
"262 37 OFFCURVE",
"209 40 CURVE",
"211 57 OFFCURVE",
"212 82 OFFCURVE",
"212 118 CURVE SMOOTH"
);
}
);
};
components = (
{
name = D;
}
);
layerId = UUID0;
paths = (
{
closed = 1;
nodes = (
"393 335 LINE",
"393 377 LINE",
"19 377 LINE",
"19 335 LINE"
);
}
);
width = 745;
},
{
background = {
anchors = (
{
name = center;
position = "{381, 350}";
},
{
name = top;
position = "{361, 700}";
}
);
paths = (
{
closed = 1;
nodes = (
"421 316 LINE",
"421 391 LINE",
"30 391 LINE",
"30 312 LINE"
);
},
{
closed = 1;
nodes = (
"51 0 LINE",
"337 0 LINE SMOOTH",
"617 0 OFFCURVE",
"725 194 OFFCURVE",
"725 357 CURVE SMOOTH",
"725 523 OFFCURVE",
"606 702 OFFCURVE",
"342 701 CURVE SMOOTH",
"51 700 LINE",
"51 623 LINE",
"65 624 OFFCURVE",
"105 625 OFFCURVE",
"126 626 CURVE",
"124 609 OFFCURVE",
"122 572 OFFCURVE",
"122 536 CURVE SMOOTH",
"122 153 LINE SMOOTH",
"122 72 OFFCURVE",
"96 68 OFFCURVE",
"51 66 CURVE"
);
},
{
closed = 1;
nodes = (
"267 549 LINE SMOOTH",
"267 626 OFFCURVE",
"291 636 OFFCURVE",
"340 634 CURVE SMOOTH",
"479 630 OFFCURVE",
"567 540 OFFCURVE",
"567 336 CURVE SMOOTH",
"567 203 OFFCURVE",
"504 73 OFFCURVE",
"358 73 CURVE SMOOTH",
"334 73 OFFCURVE",
"282 76 OFFCURVE",
"263 74 CURVE",
"265 91 OFFCURVE",
"267 128 OFFCURVE",
"267 164 CURVE SMOOTH"
);
}
);
};
components = (
{
name = D;
}
);
layerId = "4C2B4986-1645-43C1-94B7-5E4C57EFF0D9";
paths = (
{
closed = 1;
nodes = (
"421 316 LINE",
"421 391 LINE",
"30 391 LINE",
"30 312 LINE"
);
}
);
width = 758;
}
);
leftKerningGroup = I;
rightKerningGroup = D;
unicode = 00D0;
},
{
glyphname = E;
layers = (
{
anchors = (
{
name = bottom;
position = "{346, 0}";
},
{
name = ogonek;
position = "{560, 5}";
},
{
name = top;
position = "{327, 700}";
},
{
name = topleft;
position = "{20, 700}";
}
);
background = {
anchors = (
{
name = bottom;
position = "{346, 0}";
},
{
name = ogonek;
position = "{560, 5}";
},
{
name = top;
position = "{327, 700}";
},
{
name = topleft;
position = "{20, 700}";
}
);
paths = (
{
closed = 1;
nodes = (
"436 259 LINE",
"436 469 LINE",
"392 469 LINE",
"399 383 LINE",
"211 384 LINE",
"211 544 LINE SMOOTH",
"211 625 OFFCURVE",
"212 661 OFFCURVE",
"287 663 CURVE SMOOTH",
"373 665 LINE SMOOTH",
"448 667 OFFCURVE",
"508 643 OFFCURVE",
"508 525 CURVE",
"541 525 LINE",
"536 700 LINE",
"55 700 LINE",
"55 656 LINE",
"79 657 OFFCURVE",
"103 659 OFFCURVE",
"127 660 CURVE",
"125 640 OFFCURVE",
"124 615 OFFCURVE",
"124 588 CURVE SMOOTH",
"124 156 LINE SMOOTH",
"124 85 OFFCURVE",
"130 36 OFFCURVE",
"55 33 CURVE",
"55 0 LINE",
"571 0 LINE",
"577 195 LINE",
"543 195 LINE",
"543 76 OFFCURVE",
"486 41 OFFCURVE",
"399 40 CURVE SMOOTH",
"208 37 LINE",
"210 54 OFFCURVE",
"211 79 OFFCURVE",
"211 115 CURVE SMOOTH",
"211 344 LINE",
"284 347 LINE SMOOTH",
"369 350 OFFCURVE",
"403 347 OFFCURVE",
"403 259 CURVE"
);
}
);
};
layerId = UUID0;
paths = (
{
closed = 1;
nodes = (
"436 259 LINE",
"436 469 LINE",
"392 469 LINE",
"399 383 LINE",
"211 384 LINE",
"211 544 LINE SMOOTH",
"211 625 OFFCURVE",
"212 661 OFFCURVE",
"287 663 CURVE SMOOTH",
"373 665 LINE SMOOTH",
"448 667 OFFCURVE",
"508 643 OFFCURVE",
"508 525 CURVE",
"541 525 LINE",
"536 700 LINE",
"55 700 LINE",
"55 656 LINE",
"79 657 OFFCURVE",
"103 659 OFFCURVE",
"127 660 CURVE",
"125 640 OFFCURVE",
"124 615 OFFCURVE",
"124 588 CURVE SMOOTH",
"124 156 LINE SMOOTH",
"124 85 OFFCURVE",
"130 36 OFFCURVE",
"55 33 CURVE",
"55 0 LINE",
"571 0 LINE",
"577 195 LINE",
"543 195 LINE",
"543 76 OFFCURVE",
"486 41 OFFCURVE",
"399 40 CURVE SMOOTH",
"208 37 LINE",
"210 54 OFFCURVE",
"211 79 OFFCURVE",
"211 115 CURVE SMOOTH",
"211 344 LINE",
"284 347 LINE SMOOTH",
"369 350 OFFCURVE",
"403 347 OFFCURVE",
"403 259 CURVE"
);
}
);
width = 622;
},
{
anchors = (
{
name = bottom;
position = "{333, 0}";
},
{
name = ogonek;
position = "{562, 5}";
},
{
name = top;
position = "{324, 700}";
},
{
name = topleft;
position = "{20, 700}";
}
);
background = {
anchors = (
{
name = bottom;
position = "{333, 0}";
},
{
name = ogonek;
position = "{562, 5}";
},
{
name = top;
position = "{324, 700}";
},
{
name = topleft;
position = "{20, 700}";
}
);
paths = (
{
closed = 1;
nodes = (
"456 241 LINE",
"456 484 LINE",
"379 484 LINE",
"383 397 LINE",
"266 397 LINE",
"266 547 LINE SMOOTH",
"266 625 OFFCURVE",
"291 633 OFFCURVE",
"333 634 CURVE SMOOTH",
"369 635 LINE SMOOTH",
"423 637 OFFCURVE",
"490 615 OFFCURVE",
"490 506 CURVE",
"556 506 LINE",
"550 700 LINE",
"50 700 LINE",
"50 623 LINE",
"64 624 OFFCURVE",
"104 625 OFFCURVE",
"125 626 CURVE",
"123 609 OFFCURVE",
"121 572 OFFCURVE",
"121 536 CURVE SMOOTH",
"121 153 LINE SMOOTH",
"121 72 OFFCURVE",
"95 68 OFFCURVE",
"50 66 CURVE",
"50 0 LINE",
"578 0 LINE",
"583 220 LINE",
"518 220 LINE",
"518 112 OFFCURVE",
"455 76 OFFCURVE",
"396 76 CURVE SMOOTH",
"262 76 LINE",
"264 93 OFFCURVE",
"266 128 OFFCURVE",
"266 164 CURVE SMOOTH",
"266 328 LINE",
"292 329 LINE SMOOTH",
"346 331 OFFCURVE",
"390 325 OFFCURVE",
"390 241 CURVE"
);
}
);
};
layerId = "4C2B4986-1645-43C1-94B7-5E4C57EFF0D9";
paths = (
{
closed = 1;
nodes = (
"456 241 LINE",
"456 484 LINE",
"379 484 LINE",
"383 397 LINE",
"266 397 LINE",
"266 547 LINE SMOOTH",
"266 625 OFFCURVE",
"291 633 OFFCURVE",
"333 634 CURVE SMOOTH",
"369 635 LINE SMOOTH",
"423 637 OFFCURVE",
"490 615 OFFCURVE",
"490 506 CURVE",
"556 506 LINE",
"550 700 LINE",
"50 700 LINE",
"50 623 LINE",
"64 624 OFFCURVE",
"104 625 OFFCURVE",
"125 626 CURVE",
"123 609 OFFCURVE",
"121 572 OFFCURVE",
"121 536 CURVE SMOOTH",
"121 153 LINE SMOOTH",
"121 72 OFFCURVE",
"95 68 OFFCURVE",
"50 66 CURVE",
"50 0 LINE",
"578 0 LINE",
"583 220 LINE",
"518 220 LINE",
"518 112 OFFCURVE",
"455 76 OFFCURVE",
"396 76 CURVE SMOOTH",
"262 76 LINE",
"264 93 OFFCURVE",
"266 128 OFFCURVE",
"266 164 CURVE SMOOTH",
"266 328 LINE",
"292 329 LINE SMOOTH",
"346 331 OFFCURVE",
"390 325 OFFCURVE",
"390 241 CURVE"
);
}
);
width = 624;
}
);
leftKerningGroup = I;
rightKerningGroup = E;
unicode = 0045;
},
{
glyphname = Eacute;
layers = (
{
background = {
anchors = (
{
name = bottom;
position = "{346, 0}";
},
{
name = ogonek;
position = "{560, 5}";
},
{
name = top;
position = "{327, 700}";
},
{
name = topleft;
position = "{20, 700}";
}
);
paths = (
{
closed = 1;
nodes = (
"436 259 LINE",
"436 469 LINE",
"392 469 LINE",
"399 383 LINE",
"211 384 LINE",
"211 544 LINE SMOOTH",
"211 625 OFFCURVE",
"212 661 OFFCURVE",
"287 663 CURVE SMOOTH",
"373 665 LINE SMOOTH",
"448 667 OFFCURVE",
"508 643 OFFCURVE",
"508 525 CURVE",
"541 525 LINE",
"536 700 LINE",
"55 700 LINE",
"55 656 LINE",
"79 657 OFFCURVE",
"103 659 OFFCURVE",
"127 660 CURVE",
"125 640 OFFCURVE",
"124 615 OFFCURVE",
"124 588 CURVE SMOOTH",
"124 156 LINE SMOOTH",
"124 85 OFFCURVE",
"130 36 OFFCURVE",
"55 33 CURVE",
"55 0 LINE",
"571 0 LINE",
"577 195 LINE",
"543 195 LINE",
"543 76 OFFCURVE",
"486 41 OFFCURVE",
"399 40 CURVE SMOOTH",
"208 37 LINE",
"210 54 OFFCURVE",
"211 79 OFFCURVE",
"211 115 CURVE SMOOTH",
"211 344 LINE",
"284 347 LINE SMOOTH",
"369 350 OFFCURVE",
"403 347 OFFCURVE",
"403 259 CURVE"
);
},
{
closed = 1;
nodes = (
"437 849 LINE SMOOTH",
"482 877 OFFCURVE",
"469 905 OFFCURVE",
"463 914 CURVE SMOOTH",
"460 919 OFFCURVE",
"435 943 OFFCURVE",
"396 909 CURVE SMOOTH",
"270 789 LINE",
"292 760 LINE"
);
}
);
};
components = (
{
name = E;
},
{
name = acutecomb.case;
transform = "{1, 0, 0, 1, 237, 0}";
}
);
layerId = UUID0;
width = 622;
},
{
background = {
anchors = (
{
name = bottom;
position = "{333, 0}";
},
{
name = ogonek;
position = "{562, 5}";
},
{
name = top;
position = "{324, 700}";
},
{
name = topleft;
position = "{20, 700}";
}
);
paths = (
{
closed = 1;
nodes = (
"456 241 LINE",
"456 484 LINE",
"379 484 LINE",
"383 397 LINE",
"266 397 LINE",
"266 547 LINE SMOOTH",
"266 625 OFFCURVE",
"291 633 OFFCURVE",
"333 634 CURVE SMOOTH",
"369 635 LINE SMOOTH",
"423 637 OFFCURVE",
"490 615 OFFCURVE",
"490 506 CURVE",
"556 506 LINE",
"550 700 LINE",
"50 700 LINE",
"50 623 LINE",
"64 624 OFFCURVE",
"104 625 OFFCURVE",
"125 626 CURVE",
"123 609 OFFCURVE",
"121 572 OFFCURVE",
"121 536 CURVE SMOOTH",
"121 153 LINE SMOOTH",
"121 72 OFFCURVE",
"95 68 OFFCURVE",
"50 66 CURVE",
"50 0 LINE",
"578 0 LINE",
"583 220 LINE",
"518 220 LINE",
"518 112 OFFCURVE",
"455 76 OFFCURVE",
"396 76 CURVE SMOOTH",
"262 76 LINE",
"264 93 OFFCURVE",
"266 128 OFFCURVE",
"266 164 CURVE SMOOTH",
"266 328 LINE",
"292 329 LINE SMOOTH",
"346 331 OFFCURVE",
"390 325 OFFCURVE",
"390 241 CURVE"
);
},
{
closed = 1;
nodes = (
"426 825 LINE SMOOTH",
"457 845 OFFCURVE",
"479 885 OFFCURVE",
"456 919 CURVE SMOOTH",
"431 952 OFFCURVE",
"387 945 OFFCURVE",
"359 917 CURVE SMOOTH",
"248 799 LINE",
"284 750 LINE"
);
}
);
};
components = (
{
name = E;
},
{
name = acutecomb.case;
transform = "{1, 0, 0, 1, 221, 0}";
}
);
layerId = "4C2B4986-1645-43C1-94B7-5E4C57EFF0D9";
width = 624;
}
);
leftKerningGroup = I;
rightKerningGroup = E;
unicode = 00C9;
},
{
glyphname = Ebreve;
layers = (
{
background = {
anchors = (
{
name = bottom;
position = "{346, 0}";
},
{
name = ogonek;
position = "{560, 5}";
},
{
name = top;
position = "{327, 700}";
},
{
name = topleft;
position = "{20, 700}";
}
);
paths = (
{
closed = 1;
nodes = (
"436 259 LINE",
"436 469 LINE",
"392 469 LINE",
"399 383 LINE",
"211 384 LINE",
"211 544 LINE SMOOTH",
"211 625 OFFCURVE",
"212 661 OFFCURVE",
"287 663 CURVE SMOOTH",
"373 665 LINE SMOOTH",
"448 667 OFFCURVE",
"508 643 OFFCURVE",
"508 525 CURVE",
"541 525 LINE",
"536 700 LINE",
"55 700 LINE",
"55 656 LINE",
"79 657 OFFCURVE",
"103 659 OFFCURVE",
"127 660 CURVE",
"125 640 OFFCURVE",
"124 615 OFFCURVE",
"124 588 CURVE SMOOTH",
"124 156 LINE SMOOTH",
"124 85 OFFCURVE",
"130 36 OFFCURVE",
"55 33 CURVE",
"55 0 LINE",
"571 0 LINE",
"577 195 LINE",
"543 195 LINE",
"543 76 OFFCURVE",
"486 41 OFFCURVE",
"399 40 CURVE SMOOTH",
"208 37 LINE",
"210 54 OFFCURVE",
"211 79 OFFCURVE",
"211 115 CURVE SMOOTH",
"211 344 LINE",
"284 347 LINE SMOOTH",
"369 350 OFFCURVE",
"403 347 OFFCURVE",
"403 259 CURVE"
);
},
{
closed = 1;
nodes = (
"388 809 OFFCURVE",
"443 845 OFFCURVE",
"474 912 CURVE",
"447 924 LINE",
"426 896 OFFCURVE",
"378 870 OFFCURVE",
"327 870 CURVE SMOOTH",
"276 870 OFFCURVE",
"228 896 OFFCURVE",
"207 924 CURVE",
"181 912 LINE",
"211 845 OFFCURVE",
"266 809 OFFCURVE",
"327 809 CURVE SMOOTH"
);
}
);
};
components = (
{
name = E;
},
{
name = brevecomb.case;
transform = "{1, 0, 0, 1, 144, 0}";
}
);
layerId = UUID0;
width = 622;
},
{
background = {
anchors = (
{
name = bottom;
position = "{333, 0}";
},
{
name = ogonek;
position = "{562, 5}";
},
{
name = top;
position = "{324, 700}";
},
{
name = topleft;
position = "{20, 700}";
}
);
paths = (
{
closed = 1;
nodes = (
"456 241 LINE",
"456 484 LINE",
"379 484 LINE",
"383 397 LINE",
"266 397 LINE",
"266 547 LINE SMOOTH",
"266 625 OFFCURVE",
"291 633 OFFCURVE",
"333 634 CURVE SMOOTH",
"369 635 LINE SMOOTH",
"423 637 OFFCURVE",
"490 615 OFFCURVE",
"490 506 CURVE",
"556 506 LINE",
"550 700 LINE",
"50 700 LINE",
"50 623 LINE",
"64 624 OFFCURVE",
"104 625 OFFCURVE",
"125 626 CURVE",
"123 609 OFFCURVE",
"121 572 OFFCURVE",
"121 536 CURVE SMOOTH",
"121 153 LINE SMOOTH",
"121 72 OFFCURVE",
"95 68 OFFCURVE",
"50 66 CURVE",
"50 0 LINE",
"578 0 LINE",
"583 220 LINE",
"518 220 LINE",
"518 112 OFFCURVE",
"455 76 OFFCURVE",
"396 76 CURVE SMOOTH",
"262 76 LINE",
"264 93 OFFCURVE",
"266 128 OFFCURVE",
"266 164 CURVE SMOOTH",
"266 328 LINE",
"292 329 LINE SMOOTH",
"346 331 OFFCURVE",
"390 325 OFFCURVE",
"390 241 CURVE"
);
},
{
closed = 1;
nodes = (
"390 782 OFFCURVE",
"464 813 OFFCURVE",
"496 903 CURVE",
"454 924 LINE",
"426 896 OFFCURVE",
"389 869 OFFCURVE",
"326 869 CURVE SMOOTH",
"263 869 OFFCURVE",
"225 896 OFFCURVE",
"197 924 CURVE",
"155 903 LINE",
"187 813 OFFCURVE",
"262 782 OFFCURVE",
"326 782 CURVE SMOOTH"
);
}
);
};
components = (
{
name = E;
},
{
name = brevecomb.case;
transform = "{1, 0, 0, 1, 121, 0}";
}
);
layerId = "4C2B4986-1645-43C1-94B7-5E4C57EFF0D9";
width = 624;
}
);
unicode = 0114;
},
{
glyphname = Ecaron;
layers = (
{
background = {
anchors = (
{
name = bottom;
position = "{346, 0}";
},
{
name = ogonek;
position = "{560, 5}";
},
{
name = top;
position = "{327, 957}";
},
{
name = topleft;
position = "{20, 700}";
}
);
paths = (
{
closed = 1;
nodes = (
"436 259 LINE",
"436 469 LINE",
"392 469 LINE",
"399 383 LINE",
"211 384 LINE",
"211 544 LINE SMOOTH",
"211 625 OFFCURVE",
"212 661 OFFCURVE",
"287 663 CURVE SMOOTH",
"373 665 LINE SMOOTH",
"448 667 OFFCURVE",
"508 643 OFFCURVE",
"508 525 CURVE",
"541 525 LINE",
"536 700 LINE",
"55 700 LINE",
"55 656 LINE",
"79 657 OFFCURVE",
"103 659 OFFCURVE",
"127 660 CURVE",
"125 640 OFFCURVE",
"124 615 OFFCURVE",
"124 588 CURVE SMOOTH",
"124 156 LINE SMOOTH",
"124 85 OFFCURVE",
"130 36 OFFCURVE",
"55 33 CURVE",
"55 0 LINE",
"571 0 LINE",
"577 195 LINE",
"543 195 LINE",
"543 76 OFFCURVE",
"486 41 OFFCURVE",
"399 40 CURVE SMOOTH",
"208 37 LINE",
"210 54 OFFCURVE",
"211 79 OFFCURVE",
"211 115 CURVE SMOOTH",
"211 344 LINE",
"284 347 LINE SMOOTH",
"369 350 OFFCURVE",
"403 347 OFFCURVE",
"403 259 CURVE"
);
},
{
closed = 1;
nodes = (
"323 780 LINE",
"517 925 LINE",
"497 957 LINE",
"327 867 LINE",
"159 955 LINE",
"137 921 LINE",
"321 780 LINE"
);
}
);
};
components = (
{
name = E;
},
{
name = caroncomb.case;
transform = "{1, 0, 0, 1, 92, 0}";
}
);
layerId = UUID0;
width = 622;
},
{
background = {
anchors = (
{
name = bottom;
position = "{333, 0}";
},
{
name = ogonek;
position = "{562, 5}";
},
{
name = top;
position = "{324, 963}";
},
{
name = topleft;
position = "{20, 700}";
}
);
paths = (
{
closed = 1;
nodes = (
"456 241 LINE",
"456 484 LINE",
"379 484 LINE",
"383 397 LINE",
"266 397 LINE",
"266 547 LINE SMOOTH",
"266 625 OFFCURVE",
"291 633 OFFCURVE",
"333 634 CURVE SMOOTH",
"369 635 LINE SMOOTH",
"423 637 OFFCURVE",
"490 615 OFFCURVE",
"490 506 CURVE",
"556 506 LINE",
"550 700 LINE",
"50 700 LINE",
"50 623 LINE",
"64 624 OFFCURVE",
"104 625 OFFCURVE",
"125 626 CURVE",
"123 609 OFFCURVE",
"121 572 OFFCURVE",
"121 536 CURVE SMOOTH",
"121 153 LINE SMOOTH",
"121 72 OFFCURVE",
"95 68 OFFCURVE",
"50 66 CURVE",
"50 0 LINE",
"578 0 LINE",
"583 220 LINE",
"518 220 LINE",
"518 112 OFFCURVE",
"455 76 OFFCURVE",
"396 76 CURVE SMOOTH",
"262 76 LINE",
"264 93 OFFCURVE",
"266 128 OFFCURVE",
"266 164 CURVE SMOOTH",
"266 328 LINE",
"292 329 LINE SMOOTH",
"346 331 OFFCURVE",
"390 325 OFFCURVE",
"390 241 CURVE"
);
},
{
closed = 1;
nodes = (
"329 765 LINE",
"533 918 LINE",
"507 963 LINE",
"324 874 LINE",
"146 961 LINE",
"115 915 LINE",
"310 765 LINE"
);
}
);
};
components = (
{
name = E;
},
{
name = caroncomb.case;
transform = "{1, 0, 0, 1, 94, 0}";
}
);
layerId = "4C2B4986-1645-43C1-94B7-5E4C57EFF0D9";
width = 624;
}
);
leftKerningGroup = I;
rightKerningGroup = E;
unicode = 011A;
},
{
glyphname = Ecircumflex;
layers = (
{
background = {
anchors = (
{
name = bottom;
position = "{346, 0}";
},
{
name = ogonek;
position = "{560, 5}";
},
{
name = top;
position = "{332, 931}";
},
{
name = topleft;
position = "{20, 700}";
}
);
paths = (
{
closed = 1;
nodes = (
"436 259 LINE",
"436 469 LINE",
"392 469 LINE",
"399 383 LINE",
"211 384 LINE",
"211 544 LINE SMOOTH",
"211 625 OFFCURVE",
"212 661 OFFCURVE",
"287 663 CURVE SMOOTH",
"373 665 LINE SMOOTH",
"448 667 OFFCURVE",
"508 643 OFFCURVE",
"508 525 CURVE",
"541 525 LINE",
"536 700 LINE",
"55 700 LINE",
"55 656 LINE",
"79 657 OFFCURVE",
"103 659 OFFCURVE",
"127 660 CURVE",
"125 640 OFFCURVE",
"124 615 OFFCURVE",
"124 588 CURVE SMOOTH",
"124 156 LINE SMOOTH",
"124 85 OFFCURVE",
"130 36 OFFCURVE",
"55 33 CURVE",
"55 0 LINE",
"571 0 LINE",
"577 195 LINE",
"543 195 LINE",
"543 76 OFFCURVE",
"486 41 OFFCURVE",
"399 40 CURVE SMOOTH",
"208 37 LINE",
"210 54 OFFCURVE",
"211 79 OFFCURVE",
"211 115 CURVE SMOOTH",
"211 344 LINE",
"284 347 LINE SMOOTH",
"369 350 OFFCURVE",
"403 347 OFFCURVE",
"403 259 CURVE"
);
},
{
closed = 1;
nodes = (
"480 790 LINE",
"333 931 LINE",
"331 931 LINE",
"176 789 LINE",
"201 760 LINE",
"328 844 LINE",
"457 760 LINE"
);
}
);
};
components = (
{
name = E;
},
{
name = circumflexcomb.case;
transform = "{1, 0, 0, 1, 92, 0}";
}
);
layerId = UUID0;
width = 622;
},
{
background = {
anchors = (
{
name = bottom;
position = "{333, 0}";
},
{
name = ogonek;
position = "{562, 5}";
},
{
name = top;
position = "{328, 971}";
},
{
name = topleft;
position = "{20, 700}";
}
);
paths = (
{
closed = 1;
nodes = (
"456 241 LINE",
"456 484 LINE",
"379 484 LINE",
"383 397 LINE",
"266 397 LINE",
"266 547 LINE SMOOTH",
"266 625 OFFCURVE",
"291 633 OFFCURVE",
"333 634 CURVE SMOOTH",
"369 635 LINE SMOOTH",
"423 637 OFFCURVE",
"490 615 OFFCURVE",
"490 506 CURVE",
"556 506 LINE",
"550 700 LINE",
"50 700 LINE",
"50 623 LINE",
"64 624 OFFCURVE",
"104 625 OFFCURVE",
"125 626 CURVE",
"123 609 OFFCURVE",
"121 572 OFFCURVE",
"121 536 CURVE SMOOTH",
"121 153 LINE SMOOTH",
"121 72 OFFCURVE",
"95 68 OFFCURVE",
"50 66 CURVE",
"50 0 LINE",
"578 0 LINE",
"583 220 LINE",
"518 220 LINE",
"518 112 OFFCURVE",
"455 76 OFFCURVE",
"396 76 CURVE SMOOTH",
"262 76 LINE",
"264 93 OFFCURVE",
"266 128 OFFCURVE",
"266 164 CURVE SMOOTH",
"266 328 LINE",
"292 329 LINE SMOOTH",
"346 331 OFFCURVE",
"390 325 OFFCURVE",
"390 241 CURVE"
);
},
{
closed = 1;
nodes = (
"496 821 LINE",
"339 971 LINE",
"320 971 LINE",
"155 821 LINE",
"182 776 LINE",
"325 861 LINE",
"464 774 LINE"
);
}
);
};
components = (
{
name = E;
},
{
name = circumflexcomb.case;
transform = "{1, 0, 0, 1, 70, 0}";
}
);
layerId = "4C2B4986-1645-43C1-94B7-5E4C57EFF0D9";
width = 624;
}
);
leftKerningGroup = I;
rightKerningGroup = E;
unicode = 00CA;
},
{
glyphname = Ecircumflexacute;
layers = (
{
background = {
anchors = (
{
name = bottom;
position = "{346, 0}";
},
{
name = ogonek;
position = "{560, 5}";
},
{
name = top;
position = "{327, 700}";
},
{
name = topleft;
position = "{20, 700}";
}
);
paths = (
{
closed = 1;
nodes = (
"436 259 LINE",
"436 469 LINE",
"392 469 LINE",
"399 383 LINE",
"211 384 LINE",
"211 544 LINE SMOOTH",
"211 625 OFFCURVE",
"212 661 OFFCURVE",
"287 663 CURVE SMOOTH",
"373 665 LINE SMOOTH",
"448 667 OFFCURVE",
"508 643 OFFCURVE",
"508 525 CURVE",
"541 525 LINE",
"536 700 LINE",
"55 700 LINE",
"55 656 LINE",
"79 657 OFFCURVE",
"103 659 OFFCURVE",
"127 660 CURVE",
"125 640 OFFCURVE",
"124 615 OFFCURVE",
"124 588 CURVE SMOOTH",
"124 156 LINE SMOOTH",
"124 85 OFFCURVE",
"130 36 OFFCURVE",
"55 33 CURVE",
"55 0 LINE",
"571 0 LINE",
"577 195 LINE",
"543 195 LINE",
"543 76 OFFCURVE",
"486 41 OFFCURVE",
"399 40 CURVE SMOOTH",
"208 37 LINE",
"210 54 OFFCURVE",
"211 79 OFFCURVE",
"211 115 CURVE SMOOTH",
"211 344 LINE",
"284 347 LINE SMOOTH",
"369 350 OFFCURVE",
"403 347 OFFCURVE",
"403 259 CURVE"
);
},
{
closed = 1;
nodes = (
"454 775 LINE",
"332 891 LINE",
"331 891 LINE",
"202 774 LINE",
"223 750 LINE",
"328 819 LINE",
"435 750 LINE"
);
},
{
closed = 1;
nodes = (
"590 930 LINE SMOOTH",
"626 968 OFFCURVE",
"607 994 OFFCURVE",
"599 1001 CURVE SMOOTH",
"594 1005 OFFCURVE",
"564 1025 OFFCURVE",
"534 982 CURVE SMOOTH",
"450 847 LINE",
"478 824 LINE"
);
}
);
};
components = (
{
name = E;
},
{
name = circumflexcomb_acutecomb.case;
transform = "{1, 0, 0, 1, 127, 191}";
}
);
layerId = UUID0;
width = 622;
},
{
background = {
anchors = (
{
name = bottom;
position = "{333, 0}";
},
{
name = ogonek;
position = "{562, 5}";
},
{
name = top;
position = "{324, 700}";
},
{
name = topleft;
position = "{20, 700}";
}
);
paths = (
{
closed = 1;
nodes = (
"456 241 LINE",
"456 484 LINE",
"379 484 LINE",
"383 397 LINE",
"266 397 LINE",
"266 547 LINE SMOOTH",
"266 625 OFFCURVE",
"291 633 OFFCURVE",
"333 634 CURVE SMOOTH",
"369 635 LINE SMOOTH",
"423 637 OFFCURVE",
"490 615 OFFCURVE",
"490 506 CURVE",
"556 506 LINE",
"550 700 LINE",
"50 700 LINE",
"50 623 LINE",
"64 624 OFFCURVE",
"104 625 OFFCURVE",
"125 626 CURVE",
"123 609 OFFCURVE",
"121 572 OFFCURVE",
"121 536 CURVE SMOOTH",
"121 153 LINE SMOOTH",
"121 72 OFFCURVE",
"95 68 OFFCURVE",
"50 66 CURVE",
"50 0 LINE",
"578 0 LINE",
"583 220 LINE",
"518 220 LINE",
"518 112 OFFCURVE",
"455 76 OFFCURVE",
"396 76 CURVE SMOOTH",
"262 76 LINE",
"264 93 OFFCURVE",
"266 128 OFFCURVE",
"266 164 CURVE SMOOTH",
"266 328 LINE",
"292 329 LINE SMOOTH",
"346 331 OFFCURVE",
"390 325 OFFCURVE",
"390 241 CURVE"
);
},
{
closed = 1;
nodes = (
"466 800 LINE",
"336 924 LINE",
"321 924 LINE",
"184 800 LINE",
"207 763 LINE",
"325 834 LINE",
"440 762 LINE"
);
},
{
closed = 1;
nodes = (
"620 956 LINE SMOOTH",
"647 981 OFFCURVE",
"660 1026 OFFCURVE",
"629 1055 CURVE SMOOTH",
"597 1080 OFFCURVE",
"556 1064 OFFCURVE",
"535 1031 CURVE SMOOTH",
"453 891 LINE",
"499 850 LINE"
);
}
);
};
components = (
{
name = E;
},
{
name = circumflexcomb_acutecomb.case;
transform = "{1, 0, 0, 1, 104, 212}";
}
);
layerId = "4C2B4986-1645-43C1-94B7-5E4C57EFF0D9";
width = 624;
}
);
unicode = 1EBE;
},
{
glyphname = Ecircumflexdotbelow;
layers = (
{
background = {
anchors = (
{
name = bottom;
position = "{346, -184}";
},
{
name = ogonek;
position = "{560, 5}";
},
{
name = top;
position = "{327, 931}";
},
{
name = topleft;
position = "{20, 700}";
}
);
paths = (
{
closed = 1;
nodes = (
"436 259 LINE",
"436 469 LINE",
"392 469 LINE",
"399 383 LINE",
"211 384 LINE",
"211 544 LINE SMOOTH",
"211 625 OFFCURVE",
"212 661 OFFCURVE",
"287 663 CURVE SMOOTH",
"373 665 LINE SMOOTH",
"448 667 OFFCURVE",
"508 643 OFFCURVE",
"508 525 CURVE",
"541 525 LINE",
"536 700 LINE",
"55 700 LINE",
"55 656 LINE",
"79 657 OFFCURVE",
"103 659 OFFCURVE",
"127 660 CURVE",
"125 640 OFFCURVE",
"124 615 OFFCURVE",
"124 588 CURVE SMOOTH",
"124 156 LINE SMOOTH",
"124 85 OFFCURVE",
"130 36 OFFCURVE",
"55 33 CURVE",
"55 0 LINE",
"571 0 LINE",
"577 195 LINE",
"543 195 LINE",
"543 76 OFFCURVE",
"486 41 OFFCURVE",
"399 40 CURVE SMOOTH",
"208 37 LINE",
"210 54 OFFCURVE",
"211 79 OFFCURVE",
"211 115 CURVE SMOOTH",
"211 344 LINE",
"284 347 LINE SMOOTH",
"369 350 OFFCURVE",
"403 347 OFFCURVE",
"403 259 CURVE"
);
},
{
closed = 1;
nodes = (
"371 -184 OFFCURVE",
"395 -161 OFFCURVE",
"395 -131 CURVE SMOOTH",
"395 -102 OFFCURVE",
"374 -78 OFFCURVE",
"347 -78 CURVE SMOOTH",
"321 -78 OFFCURVE",
"298 -102 OFFCURVE",
"298 -131 CURVE SMOOTH",
"298 -161 OFFCURVE",
"320 -184 OFFCURVE",
"346 -184 CURVE SMOOTH"
);
},
{
closed = 1;
nodes = (
"480 790 LINE",
"333 931 LINE",
"331 931 LINE",
"176 789 LINE",
"201 760 LINE",
"328 844 LINE",
"457 760 LINE"
);
}
);
};
components = (
{
name = E;
},
{
name = dotbelowcomb;
transform = "{1, 0, 0, 1, 224, 0}";
},
{
name = circumflexcomb.case;
transform = "{1, 0, 0, 1, 92, 0}";
}
);
layerId = UUID0;
width = 622;
},
{
background = {
anchors = (
{
name = bottom;
position = "{333, -227}";
},
{
name = ogonek;
position = "{562, 5}";
},
{
name = top;
position = "{324, 971}";
},
{
name = topleft;
position = "{20, 700}";
}
);
paths = (
{
closed = 1;
nodes = (
"456 241 LINE",
"456 484 LINE",
"379 484 LINE",
"383 397 LINE",
"266 397 LINE",
"266 547 LINE SMOOTH",
"266 625 OFFCURVE",
"291 633 OFFCURVE",
"333 634 CURVE SMOOTH",
"369 635 LINE SMOOTH",
"423 637 OFFCURVE",
"490 615 OFFCURVE",
"490 506 CURVE",
"556 506 LINE",
"550 700 LINE",
"50 700 LINE",
"50 623 LINE",
"64 624 OFFCURVE",
"104 625 OFFCURVE",
"125 626 CURVE",
"123 609 OFFCURVE",
"121 572 OFFCURVE",
"121 536 CURVE SMOOTH",
"121 153 LINE SMOOTH",
"121 72 OFFCURVE",
"95 68 OFFCURVE",
"50 66 CURVE",
"50 0 LINE",
"578 0 LINE",
"583 220 LINE",
"518 220 LINE",
"518 112 OFFCURVE",
"455 76 OFFCURVE",
"396 76 CURVE SMOOTH",
"262 76 LINE",
"264 93 OFFCURVE",
"266 128 OFFCURVE",
"266 164 CURVE SMOOTH",
"266 328 LINE",
"292 329 LINE SMOOTH",
"346 331 OFFCURVE",
"390 325 OFFCURVE",
"390 241 CURVE"
);
},
{
closed = 1;
nodes = (
"370 -191 OFFCURVE",
"393 -162 OFFCURVE",
"393 -127 CURVE SMOOTH",
"393 -91 OFFCURVE",
"368 -62 OFFCURVE",
"334 -62 CURVE SMOOTH",
"301 -62 OFFCURVE",
"273 -91 OFFCURVE",
"273 -127 CURVE SMOOTH",
"273 -162 OFFCURVE",
"298 -191 OFFCURVE",
"335 -191 CURVE SMOOTH"
);
},
{
closed = 1;
nodes = (
"496 821 LINE",
"339 971 LINE",
"320 971 LINE",
"155 821 LINE",
"182 776 LINE",
"325 861 LINE",
"464 774 LINE"
);
}
);
};
components = (
{
name = E;
},
{
name = dotbelowcomb;
transform = "{1, 0, 0, 1, 216, 0}";
},
{
name = circumflexcomb.case;
transform = "{1, 0, 0, 1, 70, 0}";
}
);
layerId = "4C2B4986-1645-43C1-94B7-5E4C57EFF0D9";
width = 624;
}
);
unicode = 1EC6;
},
{
glyphname = Ecircumflexgrave;
layers = (
{
background = {
anchors = (
{
name = bottom;
position = "{346, 0}";
},
{
name = ogonek;
position = "{560, 5}";
},
{
name = top;
position = "{327, 700}";
},
{
name = topleft;
position = "{20, 700}";
}
);
paths = (
{
closed = 1;
nodes = (
"436 259 LINE",
"436 469 LINE",
"392 469 LINE",
"399 383 LINE",
"211 384 LINE",
"211 544 LINE SMOOTH",
"211 625 OFFCURVE",
"212 661 OFFCURVE",
"287 663 CURVE SMOOTH",
"373 665 LINE SMOOTH",
"448 667 OFFCURVE",
"508 643 OFFCURVE",
"508 525 CURVE",
"541 525 LINE",
"536 700 LINE",
"55 700 LINE",
"55 656 LINE",
"79 657 OFFCURVE",
"103 659 OFFCURVE",
"127 660 CURVE",
"125 640 OFFCURVE",
"124 615 OFFCURVE",
"124 588 CURVE SMOOTH",
"124 156 LINE SMOOTH",
"124 85 OFFCURVE",
"130 36 OFFCURVE",
"55 33 CURVE",
"55 0 LINE",
"571 0 LINE",
"577 195 LINE",
"543 195 LINE",
"543 76 OFFCURVE",
"486 41 OFFCURVE",
"399 40 CURVE SMOOTH",
"208 37 LINE",
"210 54 OFFCURVE",
"211 79 OFFCURVE",
"211 115 CURVE SMOOTH",
"211 344 LINE",
"284 347 LINE SMOOTH",
"369 350 OFFCURVE",
"403 347 OFFCURVE",
"403 259 CURVE"
);
},
{
closed = 1;
nodes = (
"454 775 LINE",
"332 891 LINE",
"331 891 LINE",
"202 774 LINE",
"223 750 LINE",
"328 819 LINE",
"435 750 LINE"
);
},
{
closed = 1;
nodes = (
"484 878 LINE",
"400 1013 LINE SMOOTH",
"370 1056 OFFCURVE",
"340 1036 OFFCURVE",
"335 1032 CURVE SMOOTH",
"327 1025 OFFCURVE",
"308 999 OFFCURVE",
"344 961 CURVE SMOOTH",
"456 855 LINE"
);
}
);
};
components = (
{
name = E;
},
{
name = circumflexcomb_gravecomb.case;
transform = "{1, 0, 0, 1, 110, 191}";
}
);
layerId = UUID0;
width = 622;
},
{
background = {
anchors = (
{
name = bottom;
position = "{333, 0}";
},
{
name = ogonek;
position = "{562, 5}";
},
{
name = top;
position = "{324, 700}";
},
{
name = topleft;
position = "{20, 700}";
}
);
paths = (
{
closed = 1;
nodes = (
"456 241 LINE",
"456 484 LINE",
"379 484 LINE",
"383 397 LINE",
"266 397 LINE",
"266 547 LINE SMOOTH",
"266 625 OFFCURVE",
"291 633 OFFCURVE",
"333 634 CURVE SMOOTH",
"369 635 LINE SMOOTH",
"423 637 OFFCURVE",
"490 615 OFFCURVE",
"490 506 CURVE",
"556 506 LINE",
"550 700 LINE",
"50 700 LINE",
"50 623 LINE",
"64 624 OFFCURVE",
"104 625 OFFCURVE",
"125 626 CURVE",
"123 609 OFFCURVE",
"121 572 OFFCURVE",
"121 536 CURVE SMOOTH",
"121 153 LINE SMOOTH",
"121 72 OFFCURVE",
"95 68 OFFCURVE",
"50 66 CURVE",
"50 0 LINE",
"578 0 LINE",
"583 220 LINE",
"518 220 LINE",
"518 112 OFFCURVE",
"455 76 OFFCURVE",
"396 76 CURVE SMOOTH",
"262 76 LINE",
"264 93 OFFCURVE",
"266 128 OFFCURVE",
"266 164 CURVE SMOOTH",
"266 328 LINE",
"292 329 LINE SMOOTH",
"346 331 OFFCURVE",
"390 325 OFFCURVE",
"390 241 CURVE"
);
},
{
closed = 1;
nodes = (
"466 800 LINE",
"336 924 LINE",
"321 924 LINE",
"184 800 LINE",
"207 763 LINE",
"325 834 LINE",
"440 762 LINE"
);
},
{
closed = 1;
nodes = (
"523 934 LINE",
"441 1074 LINE SMOOTH",
"420 1107 OFFCURVE",
"379 1123 OFFCURVE",
"348 1098 CURVE SMOOTH",
"316 1069 OFFCURVE",
"329 1024 OFFCURVE",
"356 999 CURVE SMOOTH",
"477 893 LINE"
);
}
);
};
components = (
{
name = E;
},
{
name = circumflexcomb_gravecomb.case;
transform = "{1, 0, 0, 1, 99, 212}";
}
);
layerId = "4C2B4986-1645-43C1-94B7-5E4C57EFF0D9";
width = 624;
}
);
unicode = 1EC0;
},
{
glyphname = Ecircumflexhookabove;
layers = (
{
background = {
anchors = (
{
name = bottom;
position = "{346, 0}";
},
{
name = ogonek;
position = "{560, 5}";
},
{
name = top;
position = "{327, 700}";
},
{
name = topleft;
position = "{20, 700}";
}
);
paths = (
{
closed = 1;
nodes = (
"436 259 LINE",
"436 469 LINE",
"392 469 LINE",
"399 383 LINE",
"211 384 LINE",
"211 544 LINE SMOOTH",
"211 625 OFFCURVE",
"212 661 OFFCURVE",
"287 663 CURVE SMOOTH",
"373 665 LINE SMOOTH",
"448 667 OFFCURVE",
"508 643 OFFCURVE",
"508 525 CURVE",
"541 525 LINE",
"536 700 LINE",
"55 700 LINE",
"55 656 LINE",
"79 657 OFFCURVE",
"103 659 OFFCURVE",
"127 660 CURVE",
"125 640 OFFCURVE",
"124 615 OFFCURVE",
"124 588 CURVE SMOOTH",
"124 156 LINE SMOOTH",
"124 85 OFFCURVE",
"130 36 OFFCURVE",
"55 33 CURVE",
"55 0 LINE",
"571 0 LINE",
"577 195 LINE",
"543 195 LINE",
"543 76 OFFCURVE",
"486 41 OFFCURVE",
"399 40 CURVE SMOOTH",
"208 37 LINE",
"210 54 OFFCURVE",
"211 79 OFFCURVE",
"211 115 CURVE SMOOTH",
"211 344 LINE",
"284 347 LINE SMOOTH",
"369 350 OFFCURVE",
"403 347 OFFCURVE",
"403 259 CURVE"
);
},
{
closed = 1;
nodes = (
"454 775 LINE",
"332 891 LINE",
"331 891 LINE",
"202 774 LINE",
"223 750 LINE",
"328 819 LINE",
"435 750 LINE"
);
},
{
closed = 1;
nodes = (
"483 847 LINE",
"483 858 OFFCURVE",
"497 867 OFFCURVE",
"513 879 CURVE SMOOTH",
"537 897 OFFCURVE",
"554 914 OFFCURVE",
"554 948 CURVE SMOOTH",
"554 988 OFFCURVE",
"515 1029 OFFCURVE",
"445 1029 CURVE SMOOTH",
"378 1029 OFFCURVE",
"341 993 OFFCURVE",
"341 959 CURVE SMOOTH",
"341 932 OFFCURVE",
"358 921 OFFCURVE",
"374 921 CURVE SMOOTH",
"390 921 OFFCURVE",
"405 931 OFFCURVE",
"405 947 CURVE SMOOTH",
"405 953 OFFCURVE",
"402 959 OFFCURVE",
"399 963 CURVE",
"401 977 OFFCURVE",
"422 993 OFFCURVE",
"446 993 CURVE SMOOTH",
"479 993 OFFCURVE",
"499 968 OFFCURVE",
"499 941 CURVE SMOOTH",
"499 927 OFFCURVE",
"493 911 OFFCURVE",
"480 900 CURVE SMOOTH",
"463 885 OFFCURVE",
"442 871 OFFCURVE",
"442 847 CURVE"
);
}
);
};
components = (
{
name = E;
},
{
name = circumflexcomb_hookabovecomb.case;
transform = "{1, 0, 0, 1, 88, 191}";
}
);
layerId = UUID0;
width = 622;
},
{
background = {
anchors = (
{
name = bottom;
position = "{333, 0}";
},
{
name = ogonek;
position = "{562, 5}";
},
{
name = top;
position = "{324, 700}";
},
{
name = topleft;
position = "{20, 700}";
}
);
paths = (
{
closed = 1;
nodes = (
"456 241 LINE",
"456 484 LINE",
"379 484 LINE",
"383 397 LINE",
"266 397 LINE",
"266 547 LINE SMOOTH",
"266 625 OFFCURVE",
"291 633 OFFCURVE",
"333 634 CURVE SMOOTH",
"369 635 LINE SMOOTH",
"423 637 OFFCURVE",
"490 615 OFFCURVE",
"490 506 CURVE",
"556 506 LINE",
"550 700 LINE",
"50 700 LINE",
"50 623 LINE",
"64 624 OFFCURVE",
"104 625 OFFCURVE",
"125 626 CURVE",
"123 609 OFFCURVE",
"121 572 OFFCURVE",
"121 536 CURVE SMOOTH",
"121 153 LINE SMOOTH",
"121 72 OFFCURVE",
"95 68 OFFCURVE",
"50 66 CURVE",
"50 0 LINE",
"578 0 LINE",
"583 220 LINE",
"518 220 LINE",
"518 112 OFFCURVE",
"455 76 OFFCURVE",
"396 76 CURVE SMOOTH",
"262 76 LINE",
"264 93 OFFCURVE",
"266 128 OFFCURVE",
"266 164 CURVE SMOOTH",
"266 328 LINE",
"292 329 LINE SMOOTH",
"346 331 OFFCURVE",
"390 325 OFFCURVE",
"390 241 CURVE"
);
},
{
closed = 1;
nodes = (
"466 800 LINE",
"336 924 LINE",
"321 924 LINE",
"184 800 LINE",
"207 763 LINE",
"325 834 LINE",
"440 762 LINE"
);
},
{
closed = 1;
nodes = (
"510 899 LINE",
"510 911 OFFCURVE",
"521 925 OFFCURVE",
"537 938 CURVE SMOOTH",
"556 954 OFFCURVE",
"579 968 OFFCURVE",
"579 1004 CURVE SMOOTH",
"579 1061 OFFCURVE",
"533 1097 OFFCURVE",
"454 1097 CURVE SMOOTH",
"383 1097 OFFCURVE",
"342 1048 OFFCURVE",
"342 1003 CURVE SMOOTH",
"342 975 OFFCURVE",
"363 952 OFFCURVE",
"394 952 CURVE SMOOTH",
"417 952 OFFCURVE",
"429 968 OFFCURVE",
"429 983 CURVE SMOOTH",
"429 997 OFFCURVE",
"419 1010 OFFCURVE",
"399 1010 CURVE",
"401 1019 OFFCURVE",
"416 1037 OFFCURVE",
"454 1037 CURVE SMOOTH",
"482 1037 OFFCURVE",
"504 1023 OFFCURVE",
"504 995 CURVE SMOOTH",
"504 978 OFFCURVE",
"496 966 OFFCURVE",
"487 956 CURVE SMOOTH",
"471 938 OFFCURVE",
"448 927 OFFCURVE",
"448 899 CURVE"
);
}
);
};
components = (
{
name = E;
},
{
name = circumflexcomb_hookabovecomb.case;
transform = "{1, 0, 0, 1, 64, 211}";
}
);
layerId = "4C2B4986-1645-43C1-94B7-5E4C57EFF0D9";
width = 624;
}
);
unicode = 1EC2;
},
{
glyphname = Ecircumflextilde;
layers = (
{
background = {
anchors = (
{
name = bottom;
position = "{346, 0}";
},
{
name = ogonek;
position = "{560, 5}";
},
{
name = top;
position = "{327, 700}";
},
{
name = topleft;
position = "{20, 700}";
}
);
paths = (
{
closed = 1;
nodes = (
"436 259 LINE",
"436 469 LINE",
"392 469 LINE",
"399 383 LINE",
"211 384 LINE",
"211 544 LINE SMOOTH",
"211 625 OFFCURVE",
"212 661 OFFCURVE",
"287 663 CURVE SMOOTH",
"373 665 LINE SMOOTH",
"448 667 OFFCURVE",
"508 643 OFFCURVE",
"508 525 CURVE",
"541 525 LINE",
"536 700 LINE",
"55 700 LINE",
"55 656 LINE",
"79 657 OFFCURVE",
"103 659 OFFCURVE",
"127 660 CURVE",
"125 640 OFFCURVE",
"124 615 OFFCURVE",
"124 588 CURVE SMOOTH",
"124 156 LINE SMOOTH",
"124 85 OFFCURVE",
"130 36 OFFCURVE",
"55 33 CURVE",
"55 0 LINE",
"571 0 LINE",
"577 195 LINE",
"543 195 LINE",
"543 76 OFFCURVE",
"486 41 OFFCURVE",
"399 40 CURVE SMOOTH",
"208 37 LINE",
"210 54 OFFCURVE",
"211 79 OFFCURVE",
"211 115 CURVE SMOOTH",
"211 344 LINE",
"284 347 LINE SMOOTH",
"369 350 OFFCURVE",
"403 347 OFFCURVE",
"403 259 CURVE"
);
},
{
closed = 1;
nodes = (
"454 775 LINE",
"332 891 LINE",
"331 891 LINE",
"202 774 LINE",
"223 750 LINE",
"328 819 LINE",
"435 750 LINE"
);
},
{
closed = 1;
nodes = (
"485 1014 LINE",
"469 985 OFFCURVE",
"441 966 OFFCURVE",
"412 966 CURVE SMOOTH",
"368 966 OFFCURVE",
"343 1021 OFFCURVE",
"280 1019 CURVE SMOOTH",
"243 1018 OFFCURVE",
"195 980 OFFCURVE",
"178 933 CURVE",
"208 916 LINE",
"227 946 OFFCURVE",
"257 958 OFFCURVE",
"281 958 CURVE SMOOTH",
"318 958 OFFCURVE",
"350 904 OFFCURVE",
"412 904 CURVE SMOOTH",
"447 904 OFFCURVE",
"492 933 OFFCURVE",
"514 999 CURVE"
);
}
);
};
components = (
{
name = E;
},
{
name = circumflexcomb_tildecomb.case;
transform = "{1, 0, 0, 1, 110, 192}";
}
);
layerId = UUID0;
width = 622;
},
{
background = {
anchors = (
{
name = bottom;
position = "{333, 0}";
},
{
name = ogonek;
position = "{562, 5}";
},
{
name = top;
position = "{324, 700}";
},
{
name = topleft;
position = "{20, 700}";
}
);
paths = (
{
closed = 1;
nodes = (
"456 241 LINE",
"456 484 LINE",
"379 484 LINE",
"383 397 LINE",
"266 397 LINE",
"266 547 LINE SMOOTH",
"266 625 OFFCURVE",
"291 633 OFFCURVE",
"333 634 CURVE SMOOTH",
"369 635 LINE SMOOTH",
"423 637 OFFCURVE",
"490 615 OFFCURVE",
"490 506 CURVE",
"556 506 LINE",
"550 700 LINE",
"50 700 LINE",
"50 623 LINE",
"64 624 OFFCURVE",
"104 625 OFFCURVE",
"125 626 CURVE",
"123 609 OFFCURVE",
"121 572 OFFCURVE",
"121 536 CURVE SMOOTH",
"121 153 LINE SMOOTH",
"121 72 OFFCURVE",
"95 68 OFFCURVE",
"50 66 CURVE",
"50 0 LINE",
"578 0 LINE",
"583 220 LINE",
"518 220 LINE",
"518 112 OFFCURVE",
"455 76 OFFCURVE",
"396 76 CURVE SMOOTH",
"262 76 LINE",
"264 93 OFFCURVE",
"266 128 OFFCURVE",
"266 164 CURVE SMOOTH",
"266 328 LINE",
"292 329 LINE SMOOTH",
"346 331 OFFCURVE",
"390 325 OFFCURVE",
"390 241 CURVE"
);
},
{
closed = 1;
nodes = (
"466 800 LINE",
"336 924 LINE",
"321 924 LINE",
"184 800 LINE",
"207 763 LINE",
"325 834 LINE",
"440 762 LINE"
);
},
{
closed = 1;
nodes = (
"465 1101 LINE",
"448 1070 OFFCURVE",
"426 1051 OFFCURVE",
"403 1051 CURVE SMOOTH",
"355 1051 OFFCURVE",
"343 1089 OFFCURVE",
"281 1089 CURVE SMOOTH",
"236 1089 OFFCURVE",
"186 1047 OFFCURVE",
"164 986 CURVE",
"220 953 LINE",
"240 985 OFFCURVE",
"266 994 OFFCURVE",
"282 994 CURVE SMOOTH",
"322 994 OFFCURVE",
"349 955 OFFCURVE",
"403 955 CURVE SMOOTH",
"443 955 OFFCURVE",
"494 989 OFFCURVE",
"522 1072 CURVE"
);
}
);
};
components = (
{
name = E;
},
{
name = circumflexcomb_tildecomb.case;
transform = "{1, 0, 0, 1, 26, 213}";
}
);
layerId = "4C2B4986-1645-43C1-94B7-5E4C57EFF0D9";
width = 624;
}
);
unicode = 1EC4;
},
{
glyphname = Edieresis;
layers = (
{
background = {
anchors = (
{
name = bottom;
position = "{346, 0}";
},
{
name = ogonek;
position = "{560, 5}";
},
{
name = top;
position = "{327, 903}";
},
{
name = topleft;
position = "{20, 700}";
}
);
paths = (
{
closed = 1;
nodes = (
"436 259 LINE",
"436 469 LINE",
"392 469 LINE",
"399 383 LINE",
"211 384 LINE",
"211 544 LINE SMOOTH",
"211 625 OFFCURVE",
"212 661 OFFCURVE",
"287 663 CURVE SMOOTH",
"373 665 LINE SMOOTH",
"448 667 OFFCURVE",
"508 643 OFFCURVE",
"508 525 CURVE",
"541 525 LINE",
"536 700 LINE",
"55 700 LINE",
"55 656 LINE",
"79 657 OFFCURVE",
"103 659 OFFCURVE",
"127 660 CURVE",
"125 640 OFFCURVE",
"124 615 OFFCURVE",
"124 588 CURVE SMOOTH",
"124 156 LINE SMOOTH",
"124 85 OFFCURVE",
"130 36 OFFCURVE",
"55 33 CURVE",
"55 0 LINE",
"571 0 LINE",
"577 195 LINE",
"543 195 LINE",
"543 76 OFFCURVE",
"486 41 OFFCURVE",
"399 40 CURVE SMOOTH",
"208 37 LINE",
"210 54 OFFCURVE",
"211 79 OFFCURVE",
"211 115 CURVE SMOOTH",
"211 344 LINE",
"284 347 LINE SMOOTH",
"369 350 OFFCURVE",
"403 347 OFFCURVE",
"403 259 CURVE"
);
},
{
closed = 1;
nodes = (
"266 776 OFFCURVE",
"292 804 OFFCURVE",
"292 839 CURVE SMOOTH",
"292 875 OFFCURVE",
"268 903 OFFCURVE",
"238 903 CURVE SMOOTH",
"209 903 OFFCURVE",
"183 875 OFFCURVE",
"183 839 CURVE SMOOTH",
"183 804 OFFCURVE",
"208 776 OFFCURVE",
"237 776 CURVE SMOOTH"
);
},
{
closed = 1;
nodes = (
"446 776 OFFCURVE",
"471 804 OFFCURVE",
"471 839 CURVE SMOOTH",
"471 875 OFFCURVE",
"448 903 OFFCURVE",
"418 903 CURVE SMOOTH",
"388 903 OFFCURVE",
"363 875 OFFCURVE",
"363 839 CURVE SMOOTH",
"363 804 OFFCURVE",
"388 776 OFFCURVE",
"417 776 CURVE SMOOTH"
);
}
);
};
components = (
{
name = E;
},
{
name = dieresiscomb.case;
transform = "{1, 0, 0, 1, 138, 0}";
}
);
layerId = UUID0;
width = 622;
},
{
background = {
anchors = (
{
name = bottom;
position = "{333, 0}";
},
{
name = ogonek;
position = "{562, 5}";
},
{
name = top;
position = "{324, 949}";
},
{
name = topleft;
position = "{20, 700}";
}
);
paths = (
{
closed = 1;
nodes = (
"456 241 LINE",
"456 484 LINE",
"379 484 LINE",
"383 397 LINE",
"266 397 LINE",
"266 547 LINE SMOOTH",
"266 625 OFFCURVE",
"291 633 OFFCURVE",
"333 634 CURVE SMOOTH",
"369 635 LINE SMOOTH",
"423 637 OFFCURVE",
"490 615 OFFCURVE",
"490 506 CURVE",
"556 506 LINE",
"550 700 LINE",
"50 700 LINE",
"50 623 LINE",
"64 624 OFFCURVE",
"104 625 OFFCURVE",
"125 626 CURVE",
"123 609 OFFCURVE",
"121 572 OFFCURVE",
"121 536 CURVE SMOOTH",
"121 153 LINE SMOOTH",
"121 72 OFFCURVE",
"95 68 OFFCURVE",
"50 66 CURVE",
"50 0 LINE",
"578 0 LINE",
"583 220 LINE",
"518 220 LINE",
"518 112 OFFCURVE",
"455 76 OFFCURVE",
"396 76 CURVE SMOOTH",
"262 76 LINE",
"264 93 OFFCURVE",
"266 128 OFFCURVE",
"266 164 CURVE SMOOTH",
"266 328 LINE",
"292 329 LINE SMOOTH",
"346 331 OFFCURVE",
"390 325 OFFCURVE",
"390 241 CURVE"
);
},
{
closed = 1;
nodes = (
"273 797 OFFCURVE",
"304 830 OFFCURVE",
"304 872 CURVE SMOOTH",
"304 914 OFFCURVE",
"275 949 OFFCURVE",
"238 949 CURVE SMOOTH",
"202 949 OFFCURVE",
"170 914 OFFCURVE",
"170 872 CURVE SMOOTH",
"170 830 OFFCURVE",
"201 797 OFFCURVE",
"237 797 CURVE SMOOTH"
);
},
{
closed = 1;
nodes = (
"447 797 OFFCURVE",
"478 830 OFFCURVE",
"478 872 CURVE SMOOTH",
"478 914 OFFCURVE",
"450 949 OFFCURVE",
"412 949 CURVE SMOOTH",
"377 949 OFFCURVE",
"345 914 OFFCURVE",
"345 872 CURVE SMOOTH",
"345 830 OFFCURVE",
"376 797 OFFCURVE",
"411 797 CURVE SMOOTH"
);
}
);
};
components = (
{
name = E;
},
{
name = dieresiscomb.case;
transform = "{1, 0, 0, 1, 127, 0}";
}
);
layerId = "4C2B4986-1645-43C1-94B7-5E4C57EFF0D9";
width = 624;
}
);
leftKerningGroup = I;
rightKerningGroup = E;
unicode = 00CB;
},
{
glyphname = Edotaccent;
layers = (
{
background = {
anchors = (
{
name = bottom;
position = "{346, 0}";
},
{
name = ogonek;
position = "{560, 5}";
},
{
name = top;
position = "{327, 700}";
},
{
name = topleft;
position = "{20, 700}";
}
);
paths = (
{
closed = 1;
nodes = (
"436 259 LINE",
"436 469 LINE",
"392 469 LINE",
"399 383 LINE",
"211 384 LINE",
"211 544 LINE SMOOTH",
"211 625 OFFCURVE",
"212 661 OFFCURVE",
"287 663 CURVE SMOOTH",
"373 665 LINE SMOOTH",
"448 667 OFFCURVE",
"508 643 OFFCURVE",
"508 525 CURVE",
"541 525 LINE",
"536 700 LINE",
"55 700 LINE",
"55 656 LINE",
"79 657 OFFCURVE",
"103 659 OFFCURVE",
"127 660 CURVE",
"125 640 OFFCURVE",
"124 615 OFFCURVE",
"124 588 CURVE SMOOTH",
"124 156 LINE SMOOTH",
"124 85 OFFCURVE",
"130 36 OFFCURVE",
"55 33 CURVE",
"55 0 LINE",
"571 0 LINE",
"577 195 LINE",
"543 195 LINE",
"543 76 OFFCURVE",
"486 41 OFFCURVE",
"399 40 CURVE SMOOTH",
"208 37 LINE",
"210 54 OFFCURVE",
"211 79 OFFCURVE",
"211 115 CURVE SMOOTH",
"211 344 LINE",
"284 347 LINE SMOOTH",
"369 350 OFFCURVE",
"403 347 OFFCURVE",
"403 259 CURVE"
);
},
{
closed = 1;
nodes = (
"356 809 OFFCURVE",
"382 835 OFFCURVE",
"382 868 CURVE SMOOTH",
"382 901 OFFCURVE",
"359 928 OFFCURVE",
"328 928 CURVE SMOOTH",
"300 928 OFFCURVE",
"274 901 OFFCURVE",
"274 868 CURVE SMOOTH",
"274 835 OFFCURVE",
"299 809 OFFCURVE",
"327 809 CURVE SMOOTH"
);
}
);
};
components = (
{
name = E;
},
{
name = dotaccentcomb;
transform = "{1, 0, 0, 1, 227, 200}";
}
);
layerId = UUID0;
width = 622;
},
{
background = {
anchors = (
{
name = bottom;
position = "{333, 0}";
},
{
name = ogonek;
position = "{562, 5}";
},
{
name = top;
position = "{324, 700}";
},
{
name = topleft;
position = "{20, 700}";
}
);
paths = (
{
closed = 1;
nodes = (
"456 241 LINE",
"456 484 LINE",
"379 484 LINE",
"383 397 LINE",
"266 397 LINE",
"266 547 LINE SMOOTH",
"266 625 OFFCURVE",
"291 633 OFFCURVE",
"333 634 CURVE SMOOTH",
"369 635 LINE SMOOTH",
"423 637 OFFCURVE",
"490 615 OFFCURVE",
"490 506 CURVE",
"556 506 LINE",
"550 700 LINE",
"50 700 LINE",
"50 623 LINE",
"64 624 OFFCURVE",
"104 625 OFFCURVE",
"125 626 CURVE",
"123 609 OFFCURVE",
"121 572 OFFCURVE",
"121 536 CURVE SMOOTH",
"121 153 LINE SMOOTH",
"121 72 OFFCURVE",
"95 68 OFFCURVE",
"50 66 CURVE",
"50 0 LINE",
"578 0 LINE",
"583 220 LINE",
"518 220 LINE",
"518 112 OFFCURVE",
"455 76 OFFCURVE",
"396 76 CURVE SMOOTH",
"262 76 LINE",
"264 93 OFFCURVE",
"266 128 OFFCURVE",
"266 164 CURVE SMOOTH",
"266 328 LINE",
"292 329 LINE SMOOTH",
"346 331 OFFCURVE",
"390 325 OFFCURVE",
"390 241 CURVE"
);
},
{
closed = 1;
nodes = (
"371 789 OFFCURVE",
"400 826 OFFCURVE",
"400 871 CURVE SMOOTH",
"400 916 OFFCURVE",
"368 953 OFFCURVE",
"325 953 CURVE SMOOTH",
"284 953 OFFCURVE",
"248 916 OFFCURVE",
"248 871 CURVE SMOOTH",
"248 826 OFFCURVE",
"280 789 OFFCURVE",
"326 789 CURVE SMOOTH"
);
}
);
};
components = (
{
name = E;
},
{
name = dotaccentcomb;
transform = "{1, 0, 0, 1, 204, 200}";
}
);
layerId = "4C2B4986-1645-43C1-94B7-5E4C57EFF0D9";
width = 624;
}
);
leftKerningGroup = I;
rightKerningGroup = E;
unicode = 0116;
},
{
glyphname = Edotbelow;
layers = (
{
background = {
anchors = (
{
name = bottom;
position = "{346, -184}";
},
{
name = ogonek;
position = "{560, 5}";
},
{
name = top;
position = "{327, 700}";
},
{
name = topleft;
position = "{20, 700}";
}
);
paths = (
{
closed = 1;
nodes = (
"436 259 LINE",
"436 469 LINE",
"392 469 LINE",
"399 383 LINE",
"211 384 LINE",
"211 544 LINE SMOOTH",
"211 625 OFFCURVE",
"212 661 OFFCURVE",
"287 663 CURVE SMOOTH",
"373 665 LINE SMOOTH",
"448 667 OFFCURVE",
"508 643 OFFCURVE",
"508 525 CURVE",
"541 525 LINE",
"536 700 LINE",
"55 700 LINE",
"55 656 LINE",
"79 657 OFFCURVE",
"103 659 OFFCURVE",
"127 660 CURVE",
"125 640 OFFCURVE",
"124 615 OFFCURVE",
"124 588 CURVE SMOOTH",
"124 156 LINE SMOOTH",
"124 85 OFFCURVE",
"130 36 OFFCURVE",
"55 33 CURVE",
"55 0 LINE",
"571 0 LINE",
"577 195 LINE",
"543 195 LINE",
"543 76 OFFCURVE",
"486 41 OFFCURVE",
"399 40 CURVE SMOOTH",
"208 37 LINE",
"210 54 OFFCURVE",
"211 79 OFFCURVE",
"211 115 CURVE SMOOTH",
"211 344 LINE",
"284 347 LINE SMOOTH",
"369 350 OFFCURVE",
"403 347 OFFCURVE",
"403 259 CURVE"
);
},
{
closed = 1;
nodes = (
"371 -184 OFFCURVE",
"395 -161 OFFCURVE",
"395 -131 CURVE SMOOTH",
"395 -102 OFFCURVE",
"374 -78 OFFCURVE",
"347 -78 CURVE SMOOTH",
"321 -78 OFFCURVE",
"298 -102 OFFCURVE",
"298 -131 CURVE SMOOTH",
"298 -161 OFFCURVE",
"320 -184 OFFCURVE",
"346 -184 CURVE SMOOTH"
);
}
);
};
components = (
{
name = E;
},
{
name = dotbelowcomb;
transform = "{1, 0, 0, 1, 224, 0}";
}
);
layerId = UUID0;
width = 622;
},
{
background = {
anchors = (
{
name = bottom;
position = "{333, -227}";
},
{
name = ogonek;
position = "{562, 5}";
},
{
name = top;
position = "{324, 700}";
},
{
name = topleft;
position = "{20, 700}";
}
);
paths = (
{
closed = 1;
nodes = (
"456 241 LINE",
"456 484 LINE",
"379 484 LINE",
"383 397 LINE",
"266 397 LINE",
"266 547 LINE SMOOTH",
"266 625 OFFCURVE",
"291 633 OFFCURVE",
"333 634 CURVE SMOOTH",
"369 635 LINE SMOOTH",
"423 637 OFFCURVE",
"490 615 OFFCURVE",
"490 506 CURVE",
"556 506 LINE",
"550 700 LINE",
"50 700 LINE",
"50 623 LINE",
"64 624 OFFCURVE",
"104 625 OFFCURVE",
"125 626 CURVE",
"123 609 OFFCURVE",
"121 572 OFFCURVE",
"121 536 CURVE SMOOTH",
"121 153 LINE SMOOTH",
"121 72 OFFCURVE",
"95 68 OFFCURVE",
"50 66 CURVE",
"50 0 LINE",
"578 0 LINE",
"583 220 LINE",
"518 220 LINE",
"518 112 OFFCURVE",
"455 76 OFFCURVE",
"396 76 CURVE SMOOTH",
"262 76 LINE",
"264 93 OFFCURVE",
"266 128 OFFCURVE",
"266 164 CURVE SMOOTH",
"266 328 LINE",
"292 329 LINE SMOOTH",
"346 331 OFFCURVE",
"390 325 OFFCURVE",
"390 241 CURVE"
);
},
{
closed = 1;
nodes = (
"370 -191 OFFCURVE",
"393 -162 OFFCURVE",
"393 -127 CURVE SMOOTH",
"393 -91 OFFCURVE",
"368 -62 OFFCURVE",
"334 -62 CURVE SMOOTH",
"301 -62 OFFCURVE",
"273 -91 OFFCURVE",
"273 -127 CURVE SMOOTH",
"273 -162 OFFCURVE",
"298 -191 OFFCURVE",
"335 -191 CURVE SMOOTH"
);
}
);
};
components = (
{
name = E;
},
{
name = dotbelowcomb;
transform = "{1, 0, 0, 1, 216, 0}";
}
);
layerId = "4C2B4986-1645-43C1-94B7-5E4C57EFF0D9";
width = 624;
}
);
unicode = 1EB8;
},
{
glyphname = Egrave;
layers = (
{
background = {
anchors = (
{
name = bottom;
position = "{346, 0}";
},
{
name = ogonek;
position = "{560, 5}";
},
{
name = top;
position = "{327, 700}";
},
{
name = topleft;
position = "{20, 700}";
}
);
paths = (
{
closed = 1;
nodes = (
"436 259 LINE",
"436 469 LINE",
"392 469 LINE",
"399 383 LINE",
"211 384 LINE",
"211 544 LINE SMOOTH",
"211 625 OFFCURVE",
"212 661 OFFCURVE",
"287 663 CURVE SMOOTH",
"373 665 LINE SMOOTH",
"448 667 OFFCURVE",
"508 643 OFFCURVE",
"508 525 CURVE",
"541 525 LINE",
"536 700 LINE",
"55 700 LINE",
"55 656 LINE",
"79 657 OFFCURVE",
"103 659 OFFCURVE",
"127 660 CURVE",
"125 640 OFFCURVE",
"124 615 OFFCURVE",
"124 588 CURVE SMOOTH",
"124 156 LINE SMOOTH",
"124 85 OFFCURVE",
"130 36 OFFCURVE",
"55 33 CURVE",
"55 0 LINE",
"571 0 LINE",
"577 195 LINE",
"543 195 LINE",
"543 76 OFFCURVE",
"486 41 OFFCURVE",
"399 40 CURVE SMOOTH",
"208 37 LINE",
"210 54 OFFCURVE",
"211 79 OFFCURVE",
"211 115 CURVE SMOOTH",
"211 344 LINE",
"284 347 LINE SMOOTH",
"369 350 OFFCURVE",
"403 347 OFFCURVE",
"403 259 CURVE"
);
},
{
closed = 1;
nodes = (
"385 789 LINE",
"259 909 LINE SMOOTH",
"220 943 OFFCURVE",
"195 919 OFFCURVE",
"192 914 CURVE SMOOTH",
"186 905 OFFCURVE",
"173 877 OFFCURVE",
"218 849 CURVE SMOOTH",
"363 760 LINE"
);
}
);
};
components = (
{
name = E;
},
{
name = gravecomb.case;
transform = "{1, 0, 0, 1, 140, 0}";
}
);
layerId = UUID0;
width = 622;
},
{
background = {
anchors = (
{
name = bottom;
position = "{333, 0}";
},
{
name = ogonek;
position = "{562, 5}";
},
{
name = top;
position = "{324, 700}";
},
{
name = topleft;
position = "{20, 700}";
}
);
paths = (
{
closed = 1;
nodes = (
"456 241 LINE",
"456 484 LINE",
"379 484 LINE",
"383 397 LINE",
"266 397 LINE",
"266 547 LINE SMOOTH",
"266 625 OFFCURVE",
"291 633 OFFCURVE",
"333 634 CURVE SMOOTH",
"369 635 LINE SMOOTH",
"423 637 OFFCURVE",
"490 615 OFFCURVE",
"490 506 CURVE",
"556 506 LINE",
"550 700 LINE",
"50 700 LINE",
"50 623 LINE",
"64 624 OFFCURVE",
"104 625 OFFCURVE",
"125 626 CURVE",
"123 609 OFFCURVE",
"121 572 OFFCURVE",
"121 536 CURVE SMOOTH",
"121 153 LINE SMOOTH",
"121 72 OFFCURVE",
"95 68 OFFCURVE",
"50 66 CURVE",
"50 0 LINE",
"578 0 LINE",
"583 220 LINE",
"518 220 LINE",
"518 112 OFFCURVE",
"455 76 OFFCURVE",
"396 76 CURVE SMOOTH",
"262 76 LINE",
"264 93 OFFCURVE",
"266 128 OFFCURVE",
"266 164 CURVE SMOOTH",
"266 328 LINE",
"292 329 LINE SMOOTH",
"346 331 OFFCURVE",
"390 325 OFFCURVE",
"390 241 CURVE"
);
},
{
closed = 1;
nodes = (
"383 799 LINE",
"272 917 LINE SMOOTH",
"244 945 OFFCURVE",
"200 952 OFFCURVE",
"175 919 CURVE SMOOTH",
"152 885 OFFCURVE",
"174 845 OFFCURVE",
"205 825 CURVE SMOOTH",
"347 750 LINE"
);
}
);
};
components = (
{
name = E;
},
{
name = gravecomb.case;
transform = "{1, 0, 0, 1, 132, 0}";
}
);
layerId = "4C2B4986-1645-43C1-94B7-5E4C57EFF0D9";
width = 624;
}
);
leftKerningGroup = I;
rightKerningGroup = E;
unicode = 00C8;
},
{
glyphname = Ehookabove;
layers = (
{
background = {
anchors = (
{
name = bottom;
position = "{346, 0}";
},
{
name = ogonek;
position = "{560, 5}";
},
{
name = top;
position = "{319, 970}";
},
{
name = topleft;
position = "{20, 700}";
}
);
paths = (
{
closed = 1;
nodes = (
"436 259 LINE",
"436 469 LINE",
"392 469 LINE",
"399 383 LINE",
"211 384 LINE",
"211 544 LINE SMOOTH",
"211 625 OFFCURVE",
"212 661 OFFCURVE",
"287 663 CURVE SMOOTH",
"373 665 LINE SMOOTH",
"448 667 OFFCURVE",
"508 643 OFFCURVE",
"508 525 CURVE",
"541 525 LINE",
"536 700 LINE",
"55 700 LINE",
"55 656 LINE",
"79 657 OFFCURVE",
"103 659 OFFCURVE",
"127 660 CURVE",
"125 640 OFFCURVE",
"124 615 OFFCURVE",
"124 588 CURVE SMOOTH",
"124 156 LINE SMOOTH",
"124 85 OFFCURVE",
"130 36 OFFCURVE",
"55 33 CURVE",
"55 0 LINE",
"571 0 LINE",
"577 195 LINE",
"543 195 LINE",
"543 76 OFFCURVE",
"486 41 OFFCURVE",
"399 40 CURVE SMOOTH",
"208 37 LINE",
"210 54 OFFCURVE",
"211 79 OFFCURVE",
"211 115 CURVE SMOOTH",
"211 344 LINE",
"284 347 LINE SMOOTH",
"369 350 OFFCURVE",
"403 347 OFFCURVE",
"403 259 CURVE"
);
},
{
closed = 1;
nodes = (
"352 766 LINE",
"352 777 OFFCURVE",
"366 786 OFFCURVE",
"382 798 CURVE SMOOTH",
"406 817 OFFCURVE",
"423 833 OFFCURVE",
"423 867 CURVE SMOOTH",
"423 907 OFFCURVE",
"384 948 OFFCURVE",
"314 948 CURVE SMOOTH",
"247 948 OFFCURVE",
"210 912 OFFCURVE",
"210 878 CURVE SMOOTH",
"210 851 OFFCURVE",
"227 840 OFFCURVE",
"243 840 CURVE SMOOTH",
"259 840 OFFCURVE",
"274 850 OFFCURVE",
"274 866 CURVE SMOOTH",
"274 872 OFFCURVE",
"271 878 OFFCURVE",
"268 882 CURVE",
"270 896 OFFCURVE",
"291 912 OFFCURVE",
"315 912 CURVE SMOOTH",
"348 912 OFFCURVE",
"368 887 OFFCURVE",
"368 860 CURVE SMOOTH",
"368 846 OFFCURVE",
"362 830 OFFCURVE",
"349 819 CURVE SMOOTH",
"332 804 OFFCURVE",
"311 790 OFFCURVE",
"311 766 CURVE"
);
}
);
};
components = (
{
name = E;
},
{
name = hookabovecomb;
transform = "{1, 0, 0, 1, 93, 200}";
}
);
layerId = UUID0;
width = 622;
},
{
background = {
anchors = (
{
name = bottom;
position = "{333, 0}";
},
{
name = ogonek;
position = "{562, 5}";
},
{
name = top;
position = "{324, 970}";
},
{
name = topleft;
position = "{20, 700}";
}
);
paths = (
{
closed = 1;
nodes = (
"456 241 LINE",
"456 484 LINE",
"379 484 LINE",
"383 397 LINE",
"266 397 LINE",
"266 547 LINE SMOOTH",
"266 625 OFFCURVE",
"291 633 OFFCURVE",
"333 634 CURVE SMOOTH",
"369 635 LINE SMOOTH",
"423 637 OFFCURVE",
"490 615 OFFCURVE",
"490 506 CURVE",
"556 506 LINE",
"550 700 LINE",
"50 700 LINE",
"50 623 LINE",
"64 624 OFFCURVE",
"104 625 OFFCURVE",
"125 626 CURVE",
"123 609 OFFCURVE",
"121 572 OFFCURVE",
"121 536 CURVE SMOOTH",
"121 153 LINE SMOOTH",
"121 72 OFFCURVE",
"95 68 OFFCURVE",
"50 66 CURVE",
"50 0 LINE",
"578 0 LINE",
"583 220 LINE",
"518 220 LINE",
"518 112 OFFCURVE",
"455 76 OFFCURVE",
"396 76 CURVE SMOOTH",
"262 76 LINE",
"264 93 OFFCURVE",
"266 128 OFFCURVE",
"266 164 CURVE SMOOTH",
"266 328 LINE",
"292 329 LINE SMOOTH",
"346 331 OFFCURVE",
"390 325 OFFCURVE",
"390 241 CURVE"
);
},
{
closed = 1;
nodes = (
"366 759 LINE",
"366 771 OFFCURVE",
"377 785 OFFCURVE",
"393 798 CURVE SMOOTH",
"414 811 OFFCURVE",
"435 828 OFFCURVE",
"435 864 CURVE SMOOTH",
"435 921 OFFCURVE",
"389 957 OFFCURVE",
"310 957 CURVE SMOOTH",
"239 957 OFFCURVE",
"198 908 OFFCURVE",
"198 863 CURVE SMOOTH",
"198 835 OFFCURVE",
"219 812 OFFCURVE",
"250 812 CURVE SMOOTH",
"273 812 OFFCURVE",
"285 828 OFFCURVE",
"285 843 CURVE SMOOTH",
"285 857 OFFCURVE",
"275 870 OFFCURVE",
"255 870 CURVE",
"257 879 OFFCURVE",
"272 897 OFFCURVE",
"310 897 CURVE SMOOTH",
"338 897 OFFCURVE",
"360 883 OFFCURVE",
"360 855 CURVE SMOOTH",
"360 838 OFFCURVE",
"352 826 OFFCURVE",
"343 816 CURVE SMOOTH",
"326 799 OFFCURVE",
"304 787 OFFCURVE",
"304 759 CURVE"
);
}
);
};
components = (
{
name = E;
},
{
name = hookabovecomb;
transform = "{1, 0, 0, 1, 32, 200}";
}
);
layerId = "4C2B4986-1645-43C1-94B7-5E4C57EFF0D9";
width = 624;
}
);
unicode = 1EBA;
},
{
glyphname = Emacron;
layers = (
{
background = {
anchors = (
{
name = bottom;
position = "{346, 0}";
},
{
name = ogonek;
position = "{560, 5}";
},
{
name = top;
position = "{327, 700}";
},
{
name = topleft;
position = "{20, 700}";
}
);
paths = (
{
closed = 1;
nodes = (
"436 259 LINE",
"436 469 LINE",
"392 469 LINE",
"399 383 LINE",
"211 384 LINE",
"211 544 LINE SMOOTH",
"211 625 OFFCURVE",
"212 661 OFFCURVE",
"287 663 CURVE SMOOTH",
"373 665 LINE SMOOTH",
"448 667 OFFCURVE",
"508 643 OFFCURVE",
"508 525 CURVE",
"541 525 LINE",
"536 700 LINE",
"55 700 LINE",
"55 656 LINE",
"79 657 OFFCURVE",
"103 659 OFFCURVE",
"127 660 CURVE",
"125 640 OFFCURVE",
"124 615 OFFCURVE",
"124 588 CURVE SMOOTH",
"124 156 LINE SMOOTH",
"124 85 OFFCURVE",
"130 36 OFFCURVE",
"55 33 CURVE",
"55 0 LINE",
"571 0 LINE",
"577 195 LINE",
"543 195 LINE",
"543 76 OFFCURVE",
"486 41 OFFCURVE",
"399 40 CURVE SMOOTH",
"208 37 LINE",
"210 54 OFFCURVE",
"211 79 OFFCURVE",
"211 115 CURVE SMOOTH",
"211 344 LINE",
"284 347 LINE SMOOTH",
"369 350 OFFCURVE",
"403 347 OFFCURVE",
"403 259 CURVE"
);
},
{
closed = 1;
nodes = (
"459 844 LINE",
"459 900 LINE",
"194 900 LINE",
"194 840 LINE"
);
}
);
};
components = (
{
name = E;
},
{
name = macroncomb;
transform = "{1, 0, 0, 1, 149, 200}";
}
);
layerId = UUID0;
width = 622;
},
{
background = {
anchors = (
{
name = bottom;
position = "{333, 0}";
},
{
name = ogonek;
position = "{562, 5}";
},
{
name = top;
position = "{324, 700}";
},
{
name = topleft;
position = "{20, 700}";
}
);
paths = (
{
closed = 1;
nodes = (
"456 241 LINE",
"456 484 LINE",
"379 484 LINE",
"383 397 LINE",
"266 397 LINE",
"266 547 LINE SMOOTH",
"266 625 OFFCURVE",
"291 633 OFFCURVE",
"333 634 CURVE SMOOTH",
"369 635 LINE SMOOTH",
"423 637 OFFCURVE",
"490 615 OFFCURVE",
"490 506 CURVE",
"556 506 LINE",
"550 700 LINE",
"50 700 LINE",
"50 623 LINE",
"64 624 OFFCURVE",
"104 625 OFFCURVE",
"125 626 CURVE",
"123 609 OFFCURVE",
"121 572 OFFCURVE",
"121 536 CURVE SMOOTH",
"121 153 LINE SMOOTH",
"121 72 OFFCURVE",
"95 68 OFFCURVE",
"50 66 CURVE",
"50 0 LINE",
"578 0 LINE",
"583 220 LINE",
"518 220 LINE",
"518 112 OFFCURVE",
"455 76 OFFCURVE",
"396 76 CURVE SMOOTH",
"262 76 LINE",
"264 93 OFFCURVE",
"266 128 OFFCURVE",
"266 164 CURVE SMOOTH",
"266 328 LINE",
"292 329 LINE SMOOTH",
"346 331 OFFCURVE",
"390 325 OFFCURVE",
"390 241 CURVE"
);
},
{
closed = 1;
nodes = (
"466 831 LINE",
"466 923 LINE",
"182 923 LINE",
"182 827 LINE"
);
}
);
};
components = (
{
name = E;
},
{
name = macroncomb;
transform = "{1, 0, 0, 1, 137, 200}";
}
);
layerId = "4C2B4986-1645-43C1-94B7-5E4C57EFF0D9";
width = 624;
}
);
leftKerningGroup = I;
rightKerningGroup = E;
unicode = 0112;
},
{
glyphname = Eogonek;
layers = (
{
background = {
anchors = (
{
name = bottom;
position = "{346, 0}";
},
{
name = ogonek;
position = "{560, 5}";
},
{
name = top;
position = "{327, 700}";
},
{
name = topleft;
position = "{20, 700}";
}
);
paths = (
{
closed = 1;
nodes = (
"436 259 LINE",
"436 469 LINE",
"392 469 LINE",
"399 383 LINE",
"211 384 LINE",
"211 544 LINE SMOOTH",
"211 625 OFFCURVE",
"212 661 OFFCURVE",
"287 663 CURVE SMOOTH",
"373 665 LINE SMOOTH",
"448 667 OFFCURVE",
"508 643 OFFCURVE",
"508 525 CURVE",
"541 525 LINE",
"536 700 LINE",
"55 700 LINE",
"55 656 LINE",
"79 657 OFFCURVE",
"103 659 OFFCURVE",
"127 660 CURVE",
"125 640 OFFCURVE",
"124 615 OFFCURVE",
"124 588 CURVE SMOOTH",
"124 156 LINE SMOOTH",
"124 85 OFFCURVE",
"130 36 OFFCURVE",
"55 33 CURVE",
"55 0 LINE",
"571 0 LINE",
"577 195 LINE",
"543 195 LINE",
"543 76 OFFCURVE",
"486 41 OFFCURVE",
"399 40 CURVE SMOOTH",
"208 37 LINE",
"210 54 OFFCURVE",
"211 79 OFFCURVE",
"211 115 CURVE SMOOTH",
"211 344 LINE",
"284 347 LINE SMOOTH",
"369 350 OFFCURVE",
"403 347 OFFCURVE",
"403 259 CURVE"
);
},
{
closed = 1;
nodes = (
"502 -254 OFFCURVE",
"547 -223 OFFCURVE",
"573 -191 CURVE",
"556 -173 LINE",
"537 -189 OFFCURVE",
"515 -201 OFFCURVE",
"491 -201 CURVE SMOOTH",
"458 -201 OFFCURVE",
"429 -174 OFFCURVE",
"429 -132 CURVE SMOOTH",
"429 -66 OFFCURVE",
"490 -20 OFFCURVE",
"561 5 CURVE",
"561 31 LINE",
"459 2 OFFCURVE",
"348 -66 OFFCURVE",
"348 -152 CURVE SMOOTH",
"348 -212 OFFCURVE",
"390 -254 OFFCURVE",
"454 -254 CURVE SMOOTH"
);
}
);
};
components = (
{
name = E;
},
{
name = ogonekcomb;
transform = "{1, 0, 0, 1, 303, 5}";
}
);
layerId = UUID0;
width = 622;
},
{
background = {
anchors = (
{
name = bottom;
position = "{333, 0}";
},
{
name = ogonek;
position = "{562, 5}";
},
{
name = top;
position = "{324, 700}";
},
{
name = topleft;
position = "{20, 700}";
}
);
paths = (
{
closed = 1;
nodes = (
"456 241 LINE",
"456 484 LINE",
"379 484 LINE",
"383 397 LINE",
"266 397 LINE",
"266 547 LINE SMOOTH",
"266 625 OFFCURVE",
"291 633 OFFCURVE",
"333 634 CURVE SMOOTH",
"369 635 LINE SMOOTH",
"423 637 OFFCURVE",
"490 615 OFFCURVE",
"490 506 CURVE",
"556 506 LINE",
"550 700 LINE",
"50 700 LINE",
"50 623 LINE",
"64 624 OFFCURVE",
"104 625 OFFCURVE",
"125 626 CURVE",
"123 609 OFFCURVE",
"121 572 OFFCURVE",
"121 536 CURVE SMOOTH",
"121 153 LINE SMOOTH",
"121 72 OFFCURVE",
"95 68 OFFCURVE",
"50 66 CURVE",
"50 0 LINE",
"578 0 LINE",
"583 220 LINE",
"518 220 LINE",
"518 112 OFFCURVE",
"455 76 OFFCURVE",
"396 76 CURVE SMOOTH",
"262 76 LINE",
"264 93 OFFCURVE",
"266 128 OFFCURVE",
"266 164 CURVE SMOOTH",
"266 328 LINE",
"292 329 LINE SMOOTH",
"346 331 OFFCURVE",
"390 325 OFFCURVE",
"390 241 CURVE"
);
},
{
closed = 1;
nodes = (
"491 -261 OFFCURVE",
"540 -230 OFFCURVE",
"575 -184 CURVE",
"540 -141 LINE",
"519 -160 OFFCURVE",
"497 -170 OFFCURVE",
"478 -170 CURVE SMOOTH",
"451 -170 OFFCURVE",
"435 -154 OFFCURVE",
"434 -130 CURVE SMOOTH",
"432 -74 OFFCURVE",
"498 -22 OFFCURVE",
"561 4 CURVE",
"561 50 LINE",
"446 16 OFFCURVE",
"335 -65 OFFCURVE",
"335 -158 CURVE SMOOTH",
"335 -226 OFFCURVE",
"379 -261 OFFCURVE",
"443 -261 CURVE SMOOTH"
);
}
);
};
components = (
{
name = E;
},
{
name = ogonekcomb;
transform = "{1, 0, 0, 1, 291, 5}";
}
);
layerId = "4C2B4986-1645-43C1-94B7-5E4C57EFF0D9";
width = 624;
}
);
leftKerningGroup = I;
rightKerningGroup = E;
unicode = 0118;
},
{
glyphname = Etilde;
layers = (
{
background = {
anchors = (
{
name = bottom;
position = "{346, 0}";
},
{
name = ogonek;
position = "{560, 5}";
},
{
name = top;
position = "{327, 927.053}";
},
{
name = topleft;
position = "{20, 700}";
}
);
paths = (
{
closed = 1;
nodes = (
"436 259 LINE",
"436 469 LINE",
"392 469 LINE",
"399 383 LINE",
"211 384 LINE",
"211 544 LINE SMOOTH",
"211 625 OFFCURVE",
"212 661 OFFCURVE",
"287 663 CURVE SMOOTH",
"373 665 LINE SMOOTH",
"448 667 OFFCURVE",
"508 643 OFFCURVE",
"508 525 CURVE",
"541 525 LINE",
"536 700 LINE",
"55 700 LINE",
"55 656 LINE",
"79 657 OFFCURVE",
"103 659 OFFCURVE",
"127 660 CURVE",
"125 640 OFFCURVE",
"124 615 OFFCURVE",
"124 588 CURVE SMOOTH",
"124 156 LINE SMOOTH",
"124 85 OFFCURVE",
"130 36 OFFCURVE",
"55 33 CURVE",
"55 0 LINE",
"571 0 LINE",
"577 195 LINE",
"543 195 LINE",
"543 76 OFFCURVE",
"486 41 OFFCURVE",
"399 40 CURVE SMOOTH",
"208 37 LINE",
"210 54 OFFCURVE",
"211 79 OFFCURVE",
"211 115 CURVE SMOOTH",
"211 344 LINE",
"284 347 LINE SMOOTH",
"369 350 OFFCURVE",
"403 347 OFFCURVE",
"403 259 CURVE"
);
},
{
closed = 1;
nodes = (
"466 922 LINE",
"450 893 OFFCURVE",
"422 874 OFFCURVE",
"393 874 CURVE SMOOTH",
"349 874 OFFCURVE",
"324 929 OFFCURVE",
"261 927 CURVE SMOOTH",
"224 926 OFFCURVE",
"176 888 OFFCURVE",
"159 841 CURVE",
"189 824 LINE",
"208 854 OFFCURVE",
"238 866 OFFCURVE",
"262 866 CURVE SMOOTH",
"299 866 OFFCURVE",
"331 812 OFFCURVE",
"393 812 CURVE SMOOTH",
"428 812 OFFCURVE",
"473 841 OFFCURVE",
"495 907 CURVE"
);
}
);
};
components = (
{
name = E;
},
{
name = tildecomb.case;
transform = "{1, 0, 0, 1, 89, 0}";
}
);
layerId = UUID0;
width = 622;
},
{
background = {
anchors = (
{
name = bottom;
position = "{333, 0}";
},
{
name = ogonek;
position = "{562, 5}";
},
{
name = top;
position = "{324, 953}";
},
{
name = topleft;
position = "{20, 700}";
}
);
paths = (
{
closed = 1;
nodes = (
"456 241 LINE",
"456 484 LINE",
"379 484 LINE",
"383 397 LINE",
"266 397 LINE",
"266 547 LINE SMOOTH",
"266 625 OFFCURVE",
"291 633 OFFCURVE",
"333 634 CURVE SMOOTH",
"369 635 LINE SMOOTH",
"423 637 OFFCURVE",
"490 615 OFFCURVE",
"490 506 CURVE",
"556 506 LINE",
"550 700 LINE",
"50 700 LINE",
"50 623 LINE",
"64 624 OFFCURVE",
"104 625 OFFCURVE",
"125 626 CURVE",
"123 609 OFFCURVE",
"121 572 OFFCURVE",
"121 536 CURVE SMOOTH",
"121 153 LINE SMOOTH",
"121 72 OFFCURVE",
"95 68 OFFCURVE",
"50 66 CURVE",
"50 0 LINE",
"578 0 LINE",
"583 220 LINE",
"518 220 LINE",
"518 112 OFFCURVE",
"455 76 OFFCURVE",
"396 76 CURVE SMOOTH",
"262 76 LINE",
"264 93 OFFCURVE",
"266 128 OFFCURVE",
"266 164 CURVE SMOOTH",
"266 328 LINE",
"292 329 LINE SMOOTH",
"346 331 OFFCURVE",
"390 325 OFFCURVE",
"390 241 CURVE"
);
},
{
closed = 1;
nodes = (
"446 953 LINE",
"429 922 OFFCURVE",
"407 903 OFFCURVE",
"384 903 CURVE SMOOTH",
"336 903 OFFCURVE",
"324 941 OFFCURVE",
"262 941 CURVE SMOOTH",
"217 941 OFFCURVE",
"167 899 OFFCURVE",
"145 838 CURVE",
"201 805 LINE",
"221 837 OFFCURVE",
"247 846 OFFCURVE",
"263 846 CURVE SMOOTH",
"303 846 OFFCURVE",
"330 807 OFFCURVE",
"384 807 CURVE SMOOTH",
"424 807 OFFCURVE",
"475 841 OFFCURVE",
"503 924 CURVE"
);
}
);
};
components = (
{
name = E;
},
{
name = tildecomb.case;
transform = "{1, 0, 0, 1, 68, 0}";
}
);
layerId = "4C2B4986-1645-43C1-94B7-5E4C57EFF0D9";
width = 624;
}
);
unicode = 1EBC;
},
{
glyphname = Schwa;
layers = (
{
background = {
anchors = (
{
name = top;
position = "{383, 700}";
}
);
paths = (
{
closed = 1;
nodes = (
"591 -15 OFFCURVE",
"726 158 OFFCURVE",
"726 369 CURVE SMOOTH",
"726 539 OFFCURVE",
"623 716 OFFCURVE",
"385 716 CURVE SMOOTH",
"315 716 OFFCURVE",
"220 702 OFFCURVE",
"153 655 CURVE",
"158 709 LINE",
"104 709 LINE",
"104 487 LINE",
"140 487 LINE",
"154 606 OFFCURVE",
"244 675 OFFCURVE",
"359 675 CURVE SMOOTH",
"516 675 OFFCURVE",
"622 552 OFFCURVE",
"628 370 CURVE",
"65 369 LINE",
"64 354 OFFCURVE",
"63 339 OFFCURVE",
"63 324 CURVE SMOOTH",
"63 117 OFFCURVE",
"188 -15 OFFCURVE",
"395 -15 CURVE SMOOTH"
);
},
{
closed = 1;
nodes = (
"243 25 OFFCURVE",
"155 174 OFFCURVE",
"152 326 CURVE",
"627 330 LINE",
"620 158 OFFCURVE",
"529 25 OFFCURVE",
"389 25 CURVE SMOOTH"
);
}
);
};
components = (
{
name = "Schwa-cy";
}
);
layerId = UUID0;
width = 770;
},
{
background = {
anchors = (
{
name = top;
position = "{363, 700}";
}
);
paths = (
{
closed = 1;
nodes = (
"601 -16 OFFCURVE",
"710 167 OFFCURVE",
"710 350 CURVE SMOOTH",
"710 524 OFFCURVE",
"624 716 OFFCURVE",
"361 716 CURVE SMOOTH",
"309 716 OFFCURVE",
"211 699 OFFCURVE",
"157 667 CURVE",
"160 709 LINE",
"83 709 LINE",
"83 490 LINE",
"149 490 LINE",
"167 592 OFFCURVE",
"243 638 OFFCURVE",
"337 639 CURVE SMOOTH",
"485 640 OFFCURVE",
"538 509 OFFCURVE",
"550 392 CURVE",
"49 389 LINE",
"46 369 OFFCURVE",
"45 348 OFFCURVE",
"45 328 CURVE SMOOTH",
"45 165 OFFCURVE",
"128 -16 OFFCURVE",
"364 -16 CURVE SMOOTH"
);
},
{
closed = 1;
nodes = (
"265 54 OFFCURVE",
"203 171 OFFCURVE",
"202 314 CURVE",
"553 314 LINE",
"548 192 OFFCURVE",
"505 61 OFFCURVE",
"386 57 CURVE SMOOTH"
);
}
);
};
components = (
{
name = "Schwa-cy";
}
);
layerId = "4C2B4986-1645-43C1-94B7-5E4C57EFF0D9";
width = 745;
}
);
unicode = 018F;
},
{
glyphname = Ezh;
layers = (
{
background = {
anchors = (
{
name = bottom;
position = "{307, 0}";
},
{
name = top;
position = "{317, 700}";
}
);
paths = (
{
closed = 1;
nodes = (
"239 409 LINE",
"239 367 LINE",
"264 368 LINE",
"407 362 OFFCURVE",
"475 310 OFFCURVE",
"475 202 CURVE SMOOTH",
"475 89 OFFCURVE",
"390 32 OFFCURVE",
"291 32 CURVE SMOOTH",
"205 32 OFFCURVE",
"120 76 OFFCURVE",
"66 151 CURVE",
"40 130 LINE",
"111 31 OFFCURVE",
"206 -16 OFFCURVE",
"313 -16 CURVE SMOOTH",
"445 -16 OFFCURVE",
"574 57 OFFCURVE",
"574 201 CURVE SMOOTH",
"574 318 OFFCURVE",
"488 409 OFFCURVE",
"321 409 CURVE SMOOTH"
);
},
{
closed = 1;
nodes = (
"239 409 LINE",
"309 373 LINE",
"562 665 LINE",
"563 700 LINE",
"81 700 LINE",
"75 493 LINE",
"109 493 LINE",
"109 607 OFFCURVE",
"148 658 OFFCURVE",
"227 659 CURVE SMOOTH",
"477 663 LINE",
"438 639 OFFCURVE",
"416 615 OFFCURVE",
"389 583 CURVE SMOOTH"
);
}
);
};
components = (
{
name = "Dzeabkhasian-cy";
}
);
layerId = UUID0;
width = 613;
},
{
background = {
anchors = (
{
name = bottom;
position = "{325, 0}";
},
{
name = top;
position = "{319, 700}";
}
);
paths = (
{
closed = 1;
nodes = (
"257 393 LINE",
"257 358 LINE",
"344 358 LINE",
"424 358 OFFCURVE",
"463 303 OFFCURVE",
"463 218 CURVE SMOOTH",
"463 105 OFFCURVE",
"394 65 OFFCURVE",
"307 65 CURVE",
"226 65 OFFCURVE",
"135 99 OFFCURVE",
"79 176 CURVE",
"30 134 LINE",
"122 -1 OFFCURVE",
"254 -16 OFFCURVE",
"319 -16 CURVE",
"476 -19 OFFCURVE",
"621 66 OFFCURVE",
"621 213 CURVE SMOOTH",
"621 321 OFFCURVE",
"542 430 OFFCURVE",
"377 414 CURVE SMOOTH"
);
},
{
closed = 1;
nodes = (
"257 393 LINE",
"405 393 LINE",
"590 625 LINE",
"590 700 LINE",
"81 700 LINE",
"75 487 LINE",
"141 487 LINE",
"141 595 OFFCURVE",
"194 637 OFFCURVE",
"268 635 CURVE SMOOTH",
"459 630 LINE",
"429 603 OFFCURVE",
"408 580 OFFCURVE",
"369 531 CURVE SMOOTH"
);
}
);
};
components = (
{
name = "Dzeabkhasian-cy";
}
);
layerId = "4C2B4986-1645-43C1-94B7-5E4C57EFF0D9";
width = 649;
}
);
unicode = 01B7;
},
{
glyphname = Ezhcaron;
layers = (
{
background = {
anchors = (
{
name = bottom;
position = "{307, 0}";
},
{
name = top;
position = "{317, 957}";
}
);
paths = (
{
closed = 1;
nodes = (
"239 409 LINE",
"239 367 LINE",
"264 368 LINE",
"407 362 OFFCURVE",
"475 310 OFFCURVE",
"475 202 CURVE SMOOTH",
"475 89 OFFCURVE",
"390 32 OFFCURVE",
"291 32 CURVE SMOOTH",
"205 32 OFFCURVE",
"120 76 OFFCURVE",
"66 151 CURVE",
"40 130 LINE",
"111 31 OFFCURVE",
"206 -16 OFFCURVE",
"313 -16 CURVE SMOOTH",
"445 -16 OFFCURVE",
"574 57 OFFCURVE",
"574 201 CURVE SMOOTH",
"574 318 OFFCURVE",
"488 409 OFFCURVE",
"321 409 CURVE SMOOTH"
);
},
{
closed = 1;
nodes = (
"239 409 LINE",
"309 373 LINE",
"562 665 LINE",
"563 700 LINE",
"81 700 LINE",
"75 493 LINE",
"109 493 LINE",
"109 607 OFFCURVE",
"148 658 OFFCURVE",
"227 659 CURVE SMOOTH",
"477 663 LINE",
"438 639 OFFCURVE",
"416 615 OFFCURVE",
"389 583 CURVE SMOOTH"
);
},
{
closed = 1;
nodes = (
"313 780 LINE",
"507 925 LINE",
"487 957 LINE",
"317 867 LINE",
"149 955 LINE",
"127 921 LINE",
"311 780 LINE"
);
}
);
};
components = (
{
name = Ezh;
},
{
name = caroncomb.case;
transform = "{1, 0, 0, 1, 82, 0}";
}
);
layerId = UUID0;
width = 613;
},
{
background = {
anchors = (
{
name = bottom;
position = "{325, 0}";
},
{
name = top;
position = "{319, 963}";
}
);
paths = (
{
closed = 1;
nodes = (
"257 393 LINE",
"257 358 LINE",
"344 358 LINE",
"424 358 OFFCURVE",
"463 303 OFFCURVE",
"463 218 CURVE SMOOTH",
"463 105 OFFCURVE",
"394 65 OFFCURVE",
"307 65 CURVE",
"226 65 OFFCURVE",
"135 99 OFFCURVE",
"79 176 CURVE",
"30 134 LINE",
"122 -1 OFFCURVE",
"254 -16 OFFCURVE",
"319 -16 CURVE",
"476 -19 OFFCURVE",
"621 66 OFFCURVE",
"621 213 CURVE SMOOTH",
"621 321 OFFCURVE",
"542 430 OFFCURVE",
"377 414 CURVE SMOOTH"
);
},
{
closed = 1;
nodes = (
"257 393 LINE",
"405 393 LINE",
"590 625 LINE",
"590 700 LINE",
"81 700 LINE",
"75 487 LINE",
"141 487 LINE",
"141 595 OFFCURVE",
"194 637 OFFCURVE",
"268 635 CURVE SMOOTH",
"459 630 LINE",
"429 603 OFFCURVE",
"408 580 OFFCURVE",
"369 531 CURVE SMOOTH"
);
},
{
closed = 1;
nodes = (
"324 765 LINE",
"528 918 LINE",
"502 963 LINE",
"319 874 LINE",
"141 961 LINE",
"110 915 LINE",
"305 765 LINE"
);
}
);
};
components = (
{
name = Ezh;
},
{
name = caroncomb.case;
transform = "{1, 0, 0, 1, 89, 0}";
}
);
layerId = "4C2B4986-1645-43C1-94B7-5E4C57EFF0D9";
width = 649;
}
);
unicode = 01EE;
},
{
glyphname = F;
layers = (
{
background = {
paths = (
{
closed = 1;
nodes = (
"310 0 LINE",
"310 44 LINE",
"276 43 OFFCURVE",
"242 41 OFFCURVE",
"208 40 CURVE",
"210 57 OFFCURVE",
"211 83 OFFCURVE",
"211 119 CURVE SMOOTH",
"211 329 LINE",
"271 332 LINE SMOOTH",
"355 336 OFFCURVE",
"390 332 OFFCURVE",
"390 243 CURVE",
"422 243 LINE",
"422 454 LINE",
"378 454 LINE",
"385 367 LINE",
"211 368 LINE",
"211 540 LINE SMOOTH",
"211 609 OFFCURVE",
"206 661 OFFCURVE",
"280 663 CURVE SMOOTH",
"353 665 LINE SMOOTH",
"428 667 OFFCURVE",
"491 643 OFFCURVE",
"491 525 CURVE",
"524 525 LINE",
"519 700 LINE",
"55 700 LINE",
"55 656 LINE",
"79 657 OFFCURVE",
"103 659 OFFCURVE",
"127 660 CURVE",
"125 640 OFFCURVE",
"124 615 OFFCURVE",
"124 588 CURVE SMOOTH",
"124 156 LINE SMOOTH",
"124 85 OFFCURVE",
"130 36 OFFCURVE",
"55 33 CURVE",
"55 0 LINE"
);
}
);
};
layerId = UUID0;
paths = (
{
closed = 1;
nodes = (
"310 0 LINE",
"310 44 LINE",
"276 43 OFFCURVE",
"242 41 OFFCURVE",
"208 40 CURVE",
"210 57 OFFCURVE",
"211 83 OFFCURVE",
"211 119 CURVE SMOOTH",
"211 329 LINE",
"271 332 LINE SMOOTH",
"355 336 OFFCURVE",
"390 332 OFFCURVE",
"390 243 CURVE",
"422 243 LINE",
"422 454 LINE",
"378 454 LINE",
"385 367 LINE",
"211 368 LINE",
"211 540 LINE SMOOTH",
"211 609 OFFCURVE",
"206 661 OFFCURVE",
"280 663 CURVE SMOOTH",
"353 665 LINE SMOOTH",
"428 667 OFFCURVE",
"491 643 OFFCURVE",
"491 525 CURVE",
"524 525 LINE",
"519 700 LINE",
"55 700 LINE",
"55 656 LINE",
"79 657 OFFCURVE",
"103 659 OFFCURVE",
"127 660 CURVE",
"125 640 OFFCURVE",
"124 615 OFFCURVE",
"124 588 CURVE SMOOTH",
"124 156 LINE SMOOTH",
"124 85 OFFCURVE",
"130 36 OFFCURVE",
"55 33 CURVE",
"55 0 LINE"
);
}
);
width = 548;
},
{
background = {
paths = (
{
closed = 1;
nodes = (
"351 0 LINE",
"351 77 LINE",
"336 77 OFFCURVE",
"283 76 OFFCURVE",
"262 74 CURVE",
"264 91 OFFCURVE",
"266 128 OFFCURVE",
"266 164 CURVE SMOOTH",
"266 304 LINE",
"278 304 LINE SMOOTH",
"332 306 OFFCURVE",
"376 300 OFFCURVE",
"376 216 CURVE",
"442 216 LINE",
"442 459 LINE",
"365 459 LINE",
"369 373 LINE",
"266 373 LINE",
"266 547 LINE SMOOTH",
"266 625 OFFCURVE",
"291 633 OFFCURVE",
"333 634 CURVE SMOOTH",
"369 635 LINE SMOOTH",
"423 637 OFFCURVE",
"490 615 OFFCURVE",
"490 506 CURVE",
"556 506 LINE",
"550 700 LINE",
"50 700 LINE",
"50 623 LINE",
"64 624 OFFCURVE",
"104 625 OFFCURVE",
"125 626 CURVE",
"123 609 OFFCURVE",
"121 572 OFFCURVE",
"121 536 CURVE SMOOTH",
"121 153 LINE SMOOTH",
"121 72 OFFCURVE",
"95 68 OFFCURVE",
"50 66 CURVE",
"50 0 LINE"
);
}
);
};
layerId = "4C2B4986-1645-43C1-94B7-5E4C57EFF0D9";
paths = (
{
closed = 1;
nodes = (
"351 0 LINE",
"351 77 LINE",
"336 77 OFFCURVE",
"283 76 OFFCURVE",
"262 74 CURVE",
"264 91 OFFCURVE",
"266 128 OFFCURVE",
"266 164 CURVE SMOOTH",
"266 304 LINE",
"278 304 LINE SMOOTH",
"332 306 OFFCURVE",
"376 300 OFFCURVE",
"376 216 CURVE",
"442 216 LINE",
"442 459 LINE",
"365 459 LINE",
"369 373 LINE",
"266 373 LINE",
"266 547 LINE SMOOTH",
"266 625 OFFCURVE",
"291 633 OFFCURVE",
"333 634 CURVE SMOOTH",
"369 635 LINE SMOOTH",
"423 637 OFFCURVE",
"490 615 OFFCURVE",
"490 506 CURVE",
"556 506 LINE",
"550 700 LINE",
"50 700 LINE",
"50 623 LINE",
"64 624 OFFCURVE",
"104 625 OFFCURVE",
"125 626 CURVE",
"123 609 OFFCURVE",
"121 572 OFFCURVE",
"121 536 CURVE SMOOTH",
"121 153 LINE SMOOTH",
"121 72 OFFCURVE",
"95 68 OFFCURVE",
"50 66 CURVE",
"50 0 LINE"
);
}
);
width = 571;
}
);
leftKerningGroup = I;
unicode = 0046;
},
{
glyphname = G;
layers = (
{
anchors = (
{
name = bottom;
position = "{427, 0}";
},
{
name = top;
position = "{396, 700}";
}
);
background = {
anchors = (
{
name = bottom;
position = "{427, 0}";
},
{
name = top;
position = "{396, 700}";
}
);
paths = (
{
closed = 1;
nodes = (
"431 -16 OFFCURVE",
"492 -6 OFFCURVE",
"533 10 CURVE SMOOTH",
"581 29 OFFCURVE",
"619 36 OFFCURVE",
"641 36 CURVE SMOOTH",
"668 36 LINE",
"668 189 LINE SMOOTH",
"668 216 OFFCURVE",
"665 308 OFFCURVE",
"740 308 CURVE",
"740 341 LINE",
"514 341 LINE",
"514 297 LINE",
"537 298 OFFCURVE",
"561 300 OFFCURVE",
"584 301 CURVE",
"584 269 OFFCURVE",
"584 236 OFFCURVE",
"584 204 CURVE",
"584 82 LINE",
"532 47 OFFCURVE",
"466 32 OFFCURVE",
"413 32 CURVE SMOOTH",
"255 32 OFFCURVE",
"145 169 OFFCURVE",
"145 358 CURVE SMOOTH",
"145 544 OFFCURVE",
"260 676 OFFCURVE",
"402 676 CURVE SMOOTH",
"518 676 OFFCURVE",
"608 605 OFFCURVE",
"617 480 CURVE",
"653 480 LINE",
"653 709 LINE",
"598 709 LINE",
"602 661 LINE",
"546 695 OFFCURVE",
"467 716 OFFCURVE",
"395 716 CURVE SMOOTH",
"162 716 OFFCURVE",
"47 523 OFFCURVE",
"47 335 CURVE SMOOTH",
"47 116 OFFCURVE",
"186 -16 OFFCURVE",
"387 -16 CURVE SMOOTH"
);
}
);
};
layerId = UUID0;
paths = (
{
closed = 1;
nodes = (
"431 -16 OFFCURVE",
"492 -6 OFFCURVE",
"533 10 CURVE SMOOTH",
"581 29 OFFCURVE",
"619 36 OFFCURVE",
"641 36 CURVE SMOOTH",
"668 36 LINE",
"668 189 LINE SMOOTH",
"668 216 OFFCURVE",
"665 308 OFFCURVE",
"740 308 CURVE",
"740 341 LINE",
"514 341 LINE",
"514 297 LINE",
"537 298 OFFCURVE",
"561 300 OFFCURVE",
"584 301 CURVE",
"584 269 OFFCURVE",
"584 236 OFFCURVE",
"584 204 CURVE",
"584 82 LINE",
"532 47 OFFCURVE",
"466 32 OFFCURVE",
"413 32 CURVE SMOOTH",
"255 32 OFFCURVE",
"145 169 OFFCURVE",
"145 358 CURVE SMOOTH",
"145 544 OFFCURVE",
"260 676 OFFCURVE",
"402 676 CURVE SMOOTH",
"518 676 OFFCURVE",
"608 605 OFFCURVE",
"617 480 CURVE",
"653 480 LINE",
"653 709 LINE",
"598 709 LINE",
"602 661 LINE",
"546 695 OFFCURVE",
"467 716 OFFCURVE",
"395 716 CURVE SMOOTH",
"162 716 OFFCURVE",
"47 523 OFFCURVE",
"47 335 CURVE SMOOTH",
"47 116 OFFCURVE",
"186 -16 OFFCURVE",
"387 -16 CURVE SMOOTH"
);
}
);
width = 761;
},
{
anchors = (
{
name = bottom;
position = "{433, 0}";
},
{
name = top;
position = "{387, 700}";
}
);
background = {
anchors = (
{
name = bottom;
position = "{433, 0}";
},
{
name = top;
position = "{387, 700}";
}
);
paths = (
{
closed = 1;
nodes = (
"436 -16 OFFCURVE",
"484 -4 OFFCURVE",
"526 8 CURVE SMOOTH",
"570 21 OFFCURVE",
"607 34 OFFCURVE",
"646 34 CURVE SMOOTH",
"670 34 LINE",
"670 194 LINE SMOOTH",
"670 270 OFFCURVE",
"692 279 OFFCURVE",
"737 281 CURVE",
"737 347 LINE",
"471 347 LINE",
"471 270 LINE",
"485 271 OFFCURVE",
"525 271 OFFCURVE",
"546 273 CURVE",
"544 256 OFFCURVE",
"542 219 OFFCURVE",
"542 183 CURVE SMOOTH",
"542 90 LINE",
"505 72 OFFCURVE",
"439 63 OFFCURVE",
"401 63 CURVE SMOOTH",
"265 63 OFFCURVE",
"192 188 OFFCURVE",
"192 360 CURVE SMOOTH",
"192 504 OFFCURVE",
"257 644 OFFCURVE",
"396 644 CURVE SMOOTH",
"490 643 OFFCURVE",
"564 587 OFFCURVE",
"582 476 CURVE",
"647 476 LINE",
"647 709 LINE",
"570 709 LINE",
"574 667 LINE",
"520 699 OFFCURVE",
"436 716 OFFCURVE",
"383 716 CURVE SMOOTH",
"150 716 OFFCURVE",
"36 522 OFFCURVE",
"36 340 CURVE SMOOTH",
"36 141 OFFCURVE",
"159 -16 OFFCURVE",
"376 -16 CURVE SMOOTH"
);
}
);
};
layerId = "4C2B4986-1645-43C1-94B7-5E4C57EFF0D9";
paths = (
{
closed = 1;
nodes = (
"436 -16 OFFCURVE",
"484 -4 OFFCURVE",
"526 8 CURVE SMOOTH",
"570 21 OFFCURVE",
"607 34 OFFCURVE",
"646 34 CURVE SMOOTH",
"670 34 LINE",
"670 194 LINE SMOOTH",
"670 270 OFFCURVE",
"692 279 OFFCURVE",
"737 281 CURVE",
"737 347 LINE",
"471 347 LINE",
"471 270 LINE",
"485 271 OFFCURVE",
"525 271 OFFCURVE",
"546 273 CURVE",
"544 256 OFFCURVE",
"542 219 OFFCURVE",
"542 183 CURVE SMOOTH",
"542 90 LINE",
"505 72 OFFCURVE",
"439 63 OFFCURVE",
"401 63 CURVE SMOOTH",
"265 63 OFFCURVE",
"192 188 OFFCURVE",
"192 360 CURVE SMOOTH",
"192 504 OFFCURVE",
"257 644 OFFCURVE",
"396 644 CURVE SMOOTH",
"490 643 OFFCURVE",
"564 587 OFFCURVE",
"582 476 CURVE",
"647 476 LINE",
"647 709 LINE",
"570 709 LINE",
"574 667 LINE",
"520 699 OFFCURVE",
"436 716 OFFCURVE",
"383 716 CURVE SMOOTH",
"150 716 OFFCURVE",
"36 522 OFFCURVE",
"36 340 CURVE SMOOTH",
"36 141 OFFCURVE",
"159 -16 OFFCURVE",
"376 -16 CURVE SMOOTH"
);
}
);
width = 754;
}
);
leftKerningGroup = O;
rightKerningGroup = G;
unicode = 0047;
},
{
glyphname = Gbreve;
layers = (
{
background = {
anchors = (
{
name = bottom;
position = "{427, 0}";
},
{
name = top;
position = "{396, 700}";
}
);
paths = (
{
closed = 1;
nodes = (
"431 -16 OFFCURVE",
"492 -6 OFFCURVE",
"533 10 CURVE SMOOTH",
"581 29 OFFCURVE",
"619 36 OFFCURVE",
"641 36 CURVE SMOOTH",
"668 36 LINE",
"668 189 LINE SMOOTH",
"668 216 OFFCURVE",
"665 308 OFFCURVE",
"740 308 CURVE",
"740 341 LINE",
"514 341 LINE",
"514 297 LINE",
"537 298 OFFCURVE",
"561 300 OFFCURVE",
"584 301 CURVE",
"584 269 OFFCURVE",
"584 236 OFFCURVE",
"584 204 CURVE",
"584 82 LINE",
"532 47 OFFCURVE",
"466 32 OFFCURVE",
"413 32 CURVE SMOOTH",
"255 32 OFFCURVE",
"145 169 OFFCURVE",
"145 358 CURVE SMOOTH",
"145 544 OFFCURVE",
"260 676 OFFCURVE",
"402 676 CURVE SMOOTH",
"518 676 OFFCURVE",
"608 605 OFFCURVE",
"617 480 CURVE",
"653 480 LINE",
"653 709 LINE",
"598 709 LINE",
"602 661 LINE",
"546 695 OFFCURVE",
"467 716 OFFCURVE",
"395 716 CURVE SMOOTH",
"162 716 OFFCURVE",
"47 523 OFFCURVE",
"47 335 CURVE SMOOTH",
"47 116 OFFCURVE",
"186 -16 OFFCURVE",
"387 -16 CURVE SMOOTH"
);
},
{
closed = 1;
nodes = (
"457 809 OFFCURVE",
"512 845 OFFCURVE",
"543 912 CURVE",
"516 924 LINE",
"495 896 OFFCURVE",
"447 870 OFFCURVE",
"396 870 CURVE SMOOTH",
"345 870 OFFCURVE",
"297 896 OFFCURVE",
"276 924 CURVE",
"250 912 LINE",
"280 845 OFFCURVE",
"335 809 OFFCURVE",
"396 809 CURVE SMOOTH"
);
}
);
};
components = (
{
name = G;
},
{
name = brevecomb.case;
transform = "{1, 0, 0, 1, 213, 0}";
}
);
layerId = UUID0;
width = 761;
},
{
background = {
anchors = (
{
name = bottom;
position = "{433, 0}";
},
{
name = top;
position = "{387, 700}";
}
);
paths = (
{
closed = 1;
nodes = (
"436 -16 OFFCURVE",
"484 -4 OFFCURVE",
"526 8 CURVE SMOOTH",
"570 21 OFFCURVE",
"607 34 OFFCURVE",
"646 34 CURVE SMOOTH",
"670 34 LINE",
"670 194 LINE SMOOTH",
"670 270 OFFCURVE",
"692 279 OFFCURVE",
"737 281 CURVE",
"737 347 LINE",
"471 347 LINE",
"471 270 LINE",
"485 271 OFFCURVE",
"525 271 OFFCURVE",
"546 273 CURVE",
"544 256 OFFCURVE",
"542 219 OFFCURVE",
"542 183 CURVE SMOOTH",
"542 90 LINE",
"505 72 OFFCURVE",
"439 63 OFFCURVE",
"401 63 CURVE SMOOTH",
"265 63 OFFCURVE",
"192 188 OFFCURVE",
"192 360 CURVE SMOOTH",
"192 504 OFFCURVE",
"257 644 OFFCURVE",
"396 644 CURVE SMOOTH",
"490 643 OFFCURVE",
"564 587 OFFCURVE",
"582 476 CURVE",
"647 476 LINE",
"647 709 LINE",
"570 709 LINE",
"574 667 LINE",
"520 699 OFFCURVE",
"436 716 OFFCURVE",
"383 716 CURVE SMOOTH",
"150 716 OFFCURVE",
"36 522 OFFCURVE",
"36 340 CURVE SMOOTH",
"36 141 OFFCURVE",
"159 -16 OFFCURVE",
"376 -16 CURVE SMOOTH"
);
},
{
closed = 1;
nodes = (
"453 782 OFFCURVE",
"527 813 OFFCURVE",
"559 903 CURVE",
"517 924 LINE",
"489 896 OFFCURVE",
"452 869 OFFCURVE",
"389 869 CURVE SMOOTH",
"326 869 OFFCURVE",
"288 896 OFFCURVE",
"260 924 CURVE",
"218 903 LINE",
"250 813 OFFCURVE",
"325 782 OFFCURVE",
"389 782 CURVE SMOOTH"
);
}
);
};
components = (
{
name = G;
},
{
name = brevecomb.case;
transform = "{1, 0, 0, 1, 184, 0}";
}
);
layerId = "4C2B4986-1645-43C1-94B7-5E4C57EFF0D9";
width = 754;
}
);
leftKerningGroup = O;
rightKerningGroup = G;
unicode = 011E;
},
{
glyphname = Gcaron;
layers = (
{
background = {
anchors = (
{
name = bottom;
position = "{427, 0}";
},
{
name = top;
position = "{396, 957}";
}
);
paths = (
{
closed = 1;
nodes = (
"431 -16 OFFCURVE",
"492 -6 OFFCURVE",
"533 10 CURVE SMOOTH",
"581 29 OFFCURVE",
"619 36 OFFCURVE",
"641 36 CURVE SMOOTH",
"668 36 LINE",
"668 189 LINE SMOOTH",
"668 216 OFFCURVE",
"665 308 OFFCURVE",
"740 308 CURVE",
"740 341 LINE",
"514 341 LINE",
"514 297 LINE",
"537 298 OFFCURVE",
"561 300 OFFCURVE",
"584 301 CURVE",
"584 269 OFFCURVE",
"584 236 OFFCURVE",
"584 204 CURVE",
"584 82 LINE",
"532 47 OFFCURVE",
"466 32 OFFCURVE",
"413 32 CURVE SMOOTH",
"255 32 OFFCURVE",
"145 169 OFFCURVE",
"145 358 CURVE SMOOTH",
"145 544 OFFCURVE",
"260 676 OFFCURVE",
"402 676 CURVE SMOOTH",
"518 676 OFFCURVE",
"608 605 OFFCURVE",
"617 480 CURVE",
"653 480 LINE",
"653 709 LINE",
"598 709 LINE",
"602 661 LINE",
"546 695 OFFCURVE",
"467 716 OFFCURVE",
"395 716 CURVE SMOOTH",
"162 716 OFFCURVE",
"47 523 OFFCURVE",
"47 335 CURVE SMOOTH",
"47 116 OFFCURVE",
"186 -16 OFFCURVE",
"387 -16 CURVE SMOOTH"
);
},
{
closed = 1;
nodes = (
"392 780 LINE",
"586 925 LINE",
"566 957 LINE",
"396 867 LINE",
"228 955 LINE",
"206 921 LINE",
"390 780 LINE"
);
}
);
};
components = (
{
name = G;
},
{
name = caroncomb.case;
transform = "{1, 0, 0, 1, 161, 0}";
}
);
layerId = UUID0;
width = 761;
},
{
background = {
anchors = (
{
name = bottom;
position = "{433, 0}";
},
{
name = top;
position = "{387, 963}";
}
);
paths = (
{
closed = 1;
nodes = (
"436 -16 OFFCURVE",
"484 -4 OFFCURVE",
"526 8 CURVE SMOOTH",
"570 21 OFFCURVE",
"607 34 OFFCURVE",
"646 34 CURVE SMOOTH",
"670 34 LINE",
"670 194 LINE SMOOTH",
"670 270 OFFCURVE",
"692 279 OFFCURVE",
"737 281 CURVE",
"737 347 LINE",
"471 347 LINE",
"471 270 LINE",
"485 271 OFFCURVE",
"525 271 OFFCURVE",
"546 273 CURVE",
"544 256 OFFCURVE",
"542 219 OFFCURVE",
"542 183 CURVE SMOOTH",
"542 90 LINE",
"505 72 OFFCURVE",
"439 63 OFFCURVE",
"401 63 CURVE SMOOTH",
"265 63 OFFCURVE",
"192 188 OFFCURVE",
"192 360 CURVE SMOOTH",
"192 504 OFFCURVE",
"257 644 OFFCURVE",
"396 644 CURVE SMOOTH",
"490 643 OFFCURVE",
"564 587 OFFCURVE",
"582 476 CURVE",
"647 476 LINE",
"647 709 LINE",
"570 709 LINE",
"574 667 LINE",
"520 699 OFFCURVE",
"436 716 OFFCURVE",
"383 716 CURVE SMOOTH",
"150 716 OFFCURVE",
"36 522 OFFCURVE",
"36 340 CURVE SMOOTH",
"36 141 OFFCURVE",
"159 -16 OFFCURVE",
"376 -16 CURVE SMOOTH"
);
},
{
closed = 1;
nodes = (
"392 765 LINE",
"596 918 LINE",
"570 963 LINE",
"387 874 LINE",
"209 961 LINE",
"178 915 LINE",
"373 765 LINE"
);
}
);
};
components = (
{
name = G;
},
{
name = caroncomb.case;
transform = "{1, 0, 0, 1, 157, 0}";
}
);
layerId = "4C2B4986-1645-43C1-94B7-5E4C57EFF0D9";
width = 754;
}
);
unicode = 01E6;
},
{
glyphname = Gcircumflex;
layers = (
{
background = {
anchors = (
{
name = bottom;
position = "{427, 0}";
},
{
name = top;
position = "{401, 931}";
}
);
paths = (
{
closed = 1;
nodes = (
"431 -16 OFFCURVE",
"492 -6 OFFCURVE",
"533 10 CURVE SMOOTH",
"581 29 OFFCURVE",
"619 36 OFFCURVE",
"641 36 CURVE SMOOTH",
"668 36 LINE",
"668 189 LINE SMOOTH",
"668 216 OFFCURVE",
"665 308 OFFCURVE",
"740 308 CURVE",
"740 341 LINE",
"514 341 LINE",
"514 297 LINE",
"537 298 OFFCURVE",
"561 300 OFFCURVE",
"584 301 CURVE",
"584 269 OFFCURVE",
"584 236 OFFCURVE",
"584 204 CURVE",
"584 82 LINE",
"532 47 OFFCURVE",
"466 32 OFFCURVE",
"413 32 CURVE SMOOTH",
"255 32 OFFCURVE",
"145 169 OFFCURVE",
"145 358 CURVE SMOOTH",
"145 544 OFFCURVE",
"260 676 OFFCURVE",
"402 676 CURVE SMOOTH",
"518 676 OFFCURVE",
"608 605 OFFCURVE",
"617 480 CURVE",
"653 480 LINE",
"653 709 LINE",
"598 709 LINE",
"602 661 LINE",
"546 695 OFFCURVE",
"467 716 OFFCURVE",
"395 716 CURVE SMOOTH",
"162 716 OFFCURVE",
"47 523 OFFCURVE",
"47 335 CURVE SMOOTH",
"47 116 OFFCURVE",
"186 -16 OFFCURVE",
"387 -16 CURVE SMOOTH"
);
},
{
closed = 1;
nodes = (
"549 790 LINE",
"402 931 LINE",
"400 931 LINE",
"245 789 LINE",
"270 760 LINE",
"397 844 LINE",
"526 760 LINE"
);
}
);
};
components = (
{
name = G;
},
{
name = circumflexcomb.case;
transform = "{1, 0, 0, 1, 161, 0}";
}
);
layerId = UUID0;
width = 761;
},
{
background = {
anchors = (
{
name = bottom;
position = "{433, 0}";
},
{
name = top;
position = "{391, 971}";
}
);
paths = (
{
closed = 1;
nodes = (
"436 -16 OFFCURVE",
"484 -4 OFFCURVE",
"526 8 CURVE SMOOTH",
"570 21 OFFCURVE",
"607 34 OFFCURVE",
"646 34 CURVE SMOOTH",
"670 34 LINE",
"670 194 LINE SMOOTH",
"670 270 OFFCURVE",
"692 279 OFFCURVE",
"737 281 CURVE",
"737 347 LINE",
"471 347 LINE",
"471 270 LINE",
"485 271 OFFCURVE",
"525 271 OFFCURVE",
"546 273 CURVE",
"544 256 OFFCURVE",
"542 219 OFFCURVE",
"542 183 CURVE SMOOTH",
"542 90 LINE",
"505 72 OFFCURVE",
"439 63 OFFCURVE",
"401 63 CURVE SMOOTH",
"265 63 OFFCURVE",
"192 188 OFFCURVE",
"192 360 CURVE SMOOTH",
"192 504 OFFCURVE",
"257 644 OFFCURVE",
"396 644 CURVE SMOOTH",
"490 643 OFFCURVE",
"564 587 OFFCURVE",
"582 476 CURVE",
"647 476 LINE",
"647 709 LINE",
"570 709 LINE",
"574 667 LINE",
"520 699 OFFCURVE",
"436 716 OFFCURVE",
"383 716 CURVE SMOOTH",
"150 716 OFFCURVE",
"36 522 OFFCURVE",
"36 340 CURVE SMOOTH",
"36 141 OFFCURVE",
"159 -16 OFFCURVE",
"376 -16 CURVE SMOOTH"
);
},
{
closed = 1;
nodes = (
"559 821 LINE",
"402 971 LINE",
"383 971 LINE",
"218 821 LINE",
"245 776 LINE",
"388 861 LINE",
"527 774 LINE"
);
}
);
};
components = (
{
name = G;
},
{
name = circumflexcomb.case;
transform = "{1, 0, 0, 1, 133, 0}";
}
);
layerId = "4C2B4986-1645-43C1-94B7-5E4C57EFF0D9";
width = 754;
}
);
leftKerningGroup = O;
rightKerningGroup = G;
unicode = 011C;
},
{
glyphname = Gcommaaccent;
layers = (
{
background = {
anchors = (
{
name = bottom;
position = "{427, 0}";
},
{
name = top;
position = "{396, 700}";
}
);
paths = (
{
closed = 1;
nodes = (
"431 -16 OFFCURVE",
"492 -6 OFFCURVE",
"533 10 CURVE SMOOTH",
"581 29 OFFCURVE",
"619 36 OFFCURVE",
"641 36 CURVE SMOOTH",
"668 36 LINE",
"668 189 LINE SMOOTH",
"668 216 OFFCURVE",
"665 308 OFFCURVE",
"740 308 CURVE",
"740 341 LINE",
"514 341 LINE",
"514 297 LINE",
"537 298 OFFCURVE",
"561 300 OFFCURVE",
"584 301 CURVE",
"584 269 OFFCURVE",
"584 236 OFFCURVE",
"584 204 CURVE",
"584 82 LINE",
"532 47 OFFCURVE",
"466 32 OFFCURVE",
"413 32 CURVE SMOOTH",
"255 32 OFFCURVE",
"145 169 OFFCURVE",
"145 358 CURVE SMOOTH",
"145 544 OFFCURVE",
"260 676 OFFCURVE",
"402 676 CURVE SMOOTH",
"518 676 OFFCURVE",
"608 605 OFFCURVE",
"617 480 CURVE",
"653 480 LINE",
"653 709 LINE",
"598 709 LINE",
"602 661 LINE",
"546 695 OFFCURVE",
"467 716 OFFCURVE",
"395 716 CURVE SMOOTH",
"162 716 OFFCURVE",
"47 523 OFFCURVE",
"47 335 CURVE SMOOTH",
"47 116 OFFCURVE",
"186 -16 OFFCURVE",
"387 -16 CURVE SMOOTH"
);
},
{
closed = 1;
nodes = (
"440 -209 OFFCURVE",
"471 -155 OFFCURVE",
"471 -104 CURVE SMOOTH",
"471 -82 OFFCURVE",
"466 -61 OFFCURVE",
"455 -40 CURVE",
"386 -60 LINE",
"404 -116 OFFCURVE",
"407 -160 OFFCURVE",
"364 -240 CURVE",
"390 -259 LINE"
);
}
);
};
components = (
{
name = G;
},
{
name = commaaccentcomb;
transform = "{1, 0, 0, 1, 270, 0}";
}
);
layerId = UUID0;
width = 761;
},
{
background = {
anchors = (
{
name = bottom;
position = "{433, 0}";
},
{
name = top;
position = "{387, 700}";
}
);
paths = (
{
closed = 1;
nodes = (
"436 -16 OFFCURVE",
"484 -4 OFFCURVE",
"526 8 CURVE SMOOTH",
"570 21 OFFCURVE",
"607 34 OFFCURVE",
"646 34 CURVE SMOOTH",
"670 34 LINE",
"670 194 LINE SMOOTH",
"670 270 OFFCURVE",
"692 279 OFFCURVE",
"737 281 CURVE",
"737 347 LINE",
"471 347 LINE",
"471 270 LINE",
"485 271 OFFCURVE",
"525 271 OFFCURVE",
"546 273 CURVE",
"544 256 OFFCURVE",
"542 219 OFFCURVE",
"542 183 CURVE SMOOTH",
"542 90 LINE",
"505 72 OFFCURVE",
"439 63 OFFCURVE",
"401 63 CURVE SMOOTH",
"265 63 OFFCURVE",
"192 188 OFFCURVE",
"192 360 CURVE SMOOTH",
"192 504 OFFCURVE",
"257 644 OFFCURVE",
"396 644 CURVE SMOOTH",
"490 643 OFFCURVE",
"564 587 OFFCURVE",
"582 476 CURVE",
"647 476 LINE",
"647 709 LINE",
"570 709 LINE",
"574 667 LINE",
"520 699 OFFCURVE",
"436 716 OFFCURVE",
"383 716 CURVE SMOOTH",
"150 716 OFFCURVE",
"36 522 OFFCURVE",
"36 340 CURVE SMOOTH",
"36 141 OFFCURVE",
"159 -16 OFFCURVE",
"376 -16 CURVE SMOOTH"
);
},
{
closed = 1;
nodes = (
"458 -230 OFFCURVE",
"499 -167 OFFCURVE",
"499 -108 CURVE",
"499 -84 OFFCURVE",
"492 -59 OFFCURVE",
"478 -36 CURVE",
"388 -54 LINE",
"406 -119 OFFCURVE",
"400 -172 OFFCURVE",
"355 -249 CURVE",
"400 -284 LINE"
);
}
);
};
components = (
{
name = G;
},
{
name = commaaccentcomb;
transform = "{1, 0, 0, 1, 278, 0}";
}
);
layerId = "4C2B4986-1645-43C1-94B7-5E4C57EFF0D9";
width = 754;
}
);
leftKerningGroup = O;
rightKerningGroup = G;
unicode = 0122;
},
{
glyphname = Gdotaccent;
layers = (
{
background = {
anchors = (
{
name = bottom;
position = "{427, 0}";
},
{
name = top;
position = "{396, 927.96}";
}
);
paths = (
{
closed = 1;
nodes = (
"431 -16 OFFCURVE",
"492 -6 OFFCURVE",
"533 10 CURVE SMOOTH",
"581 29 OFFCURVE",
"619 36 OFFCURVE",
"641 36 CURVE SMOOTH",
"668 36 LINE",
"668 189 LINE SMOOTH",
"668 216 OFFCURVE",
"665 308 OFFCURVE",
"740 308 CURVE",
"740 341 LINE",
"514 341 LINE",
"514 297 LINE",
"537 298 OFFCURVE",
"561 300 OFFCURVE",
"584 301 CURVE",
"584 269 OFFCURVE",
"584 236 OFFCURVE",
"584 204 CURVE",
"584 82 LINE",
"532 47 OFFCURVE",
"466 32 OFFCURVE",
"413 32 CURVE SMOOTH",
"255 32 OFFCURVE",
"145 169 OFFCURVE",
"145 358 CURVE SMOOTH",
"145 544 OFFCURVE",
"260 676 OFFCURVE",
"402 676 CURVE SMOOTH",
"518 676 OFFCURVE",
"608 605 OFFCURVE",
"617 480 CURVE",
"653 480 LINE",
"653 709 LINE",
"598 709 LINE",
"602 661 LINE",
"546 695 OFFCURVE",
"467 716 OFFCURVE",
"395 716 CURVE SMOOTH",
"162 716 OFFCURVE",
"47 523 OFFCURVE",
"47 335 CURVE SMOOTH",
"47 116 OFFCURVE",
"186 -16 OFFCURVE",
"387 -16 CURVE SMOOTH"
);
},
{
closed = 1;
nodes = (
"425 809 OFFCURVE",
"451 835 OFFCURVE",
"451 868 CURVE SMOOTH",
"451 901 OFFCURVE",
"428 928 OFFCURVE",
"397 928 CURVE SMOOTH",
"369 928 OFFCURVE",
"343 901 OFFCURVE",
"343 868 CURVE SMOOTH",
"343 835 OFFCURVE",
"368 809 OFFCURVE",
"396 809 CURVE SMOOTH"
);
}
);
};
components = (
{
name = G;
},
{
name = dotaccentcomb;
transform = "{1, 0, 0, 1, 296, 200}";
}
);
layerId = UUID0;
width = 761;
},
{
background = {
anchors = (
{
name = bottom;
position = "{433, 0}";
},
{
name = top;
position = "{387, 953}";
}
);
paths = (
{
closed = 1;
nodes = (
"436 -16 OFFCURVE",
"484 -4 OFFCURVE",
"526 8 CURVE SMOOTH",
"570 21 OFFCURVE",
"607 34 OFFCURVE",
"646 34 CURVE SMOOTH",
"670 34 LINE",
"670 194 LINE SMOOTH",
"670 270 OFFCURVE",
"692 279 OFFCURVE",
"737 281 CURVE",
"737 347 LINE",
"471 347 LINE",
"471 270 LINE",
"485 271 OFFCURVE",
"525 271 OFFCURVE",
"546 273 CURVE",
"544 256 OFFCURVE",
"542 219 OFFCURVE",
"542 183 CURVE SMOOTH",
"542 90 LINE",
"505 72 OFFCURVE",
"439 63 OFFCURVE",
"401 63 CURVE SMOOTH",
"265 63 OFFCURVE",
"192 188 OFFCURVE",
"192 360 CURVE SMOOTH",
"192 504 OFFCURVE",
"257 644 OFFCURVE",
"396 644 CURVE SMOOTH",
"490 643 OFFCURVE",
"564 587 OFFCURVE",
"582 476 CURVE",
"647 476 LINE",
"647 709 LINE",
"570 709 LINE",
"574 667 LINE",
"520 699 OFFCURVE",
"436 716 OFFCURVE",
"383 716 CURVE SMOOTH",
"150 716 OFFCURVE",
"36 522 OFFCURVE",
"36 340 CURVE SMOOTH",
"36 141 OFFCURVE",
"159 -16 OFFCURVE",
"376 -16 CURVE SMOOTH"
);
},
{
closed = 1;
nodes = (
"434 789 OFFCURVE",
"463 826 OFFCURVE",
"463 871 CURVE SMOOTH",
"463 916 OFFCURVE",
"431 953 OFFCURVE",
"388 953 CURVE SMOOTH",
"347 953 OFFCURVE",
"311 916 OFFCURVE",
"311 871 CURVE SMOOTH",
"311 826 OFFCURVE",
"343 789 OFFCURVE",
"389 789 CURVE SMOOTH"
);
}
);
};
components = (
{
name = G;
},
{
name = dotaccentcomb;
transform = "{1, 0, 0, 1, 267, 200}";
}
);
layerId = "4C2B4986-1645-43C1-94B7-5E4C57EFF0D9";
width = 754;
}
);
unicode = 0120;
},
